<svg xmlns="http://www.w3.org/2000/svg" width="512" height="512" viewBox="0 0 512 512">
<g>
<path d="M 511.00 111.25 C511.00,112.76 511.23,114.00 511.50,114.00 C511.77,114.00 512.00,88.35 512.00,57.00 L 512.00 512.00 L 0.00 512.00 L 0.00 0.00 L 512.00 0.00 L 449.75 0.14 C411.70,0.22 390.95,0.58 396.36,1.06 C435.45,4.53 469.37,25.07 491.62,58.75 C496.97,66.85 498.80,70.45 503.67,82.50 C506.46,89.40 511.00,107.18 511.00,111.25 ZM 118.50 468.87 C128.69,470.15 382.53,470.24 393.03,468.98 C414.91,466.34 431.85,457.58 447.35,440.90 C459.64,427.67 466.87,411.51 468.98,392.50 C470.33,380.35 470.33,131.65 468.98,119.50 C466.87,100.49 459.64,84.33 447.35,71.10 C435.33,58.16 424.71,51.41 408.31,46.26 L 399.50 43.50 L 113.50 43.50 L 104.50 46.31 C75.94,55.24 55.26,75.92 46.32,104.50 L 43.50 113.50 L 43.50 398.50 L 46.31 407.50 C56.69,440.70 84.88,464.67 118.50,468.87 ZM 276.00 382.55 C265.67,384.27 246.20,384.22 236.00,382.45 C209.45,377.85 185.50,365.48 166.45,346.55 C141.47,321.71 128.86,291.35 128.86,256.00 C128.86,228.93 135.44,207.23 150.52,184.50 C169.14,156.44 199.76,136.57 233.83,130.42 C245.19,128.37 267.81,128.37 279.17,130.42 C318.57,137.53 352.98,163.31 371.17,199.33 C375.49,207.90 380.78,224.69 382.51,235.34 C384.25,246.10 384.45,264.14 382.92,274.31 C378.86,301.47 366.09,326.78 346.61,346.26 C326.95,365.92 303.53,377.96 276.00,382.55 ZM 246.50 340.87 C246.84,340.91 247.16,340.95 247.47,340.99 C251.87,341.55 254.01,341.81 256.15,341.81 C258.32,341.81 260.49,341.53 265.03,340.98 C281.98,338.93 297.26,332.56 309.72,322.34 C362.90,278.71 346.24,194.33 280.50,174.39 C272.42,171.93 269.97,171.66 256.50,171.66 C243.03,171.66 240.58,171.93 232.50,174.39 C204.04,183.02 183.01,204.05 174.39,232.50 C171.96,240.52 171.66,243.08 171.66,256.00 C171.66,268.92 171.96,271.48 174.39,279.50 C184.43,312.64 212.63,336.64 246.50,340.87 ZM 0.14 62.75 C0.22,101.04 0.59,122.05 1.06,116.64 C6.47,55.67 54.92,6.97 116.01,1.09 C121.38,0.57 101.60,0.22 62.25,0.14 L 0.00 0.00 ZM 0.14 449.25 L 0.00 512.00 L 57.75 511.88 C89.51,511.82 114.60,511.58 113.50,511.34 C112.40,511.11 107.90,510.23 103.50,509.38 C48.69,498.86 6.03,451.36 1.06,395.36 C0.59,389.95 0.22,410.96 0.14,449.25 ZM 399.50 511.34 C398.40,511.58 423.26,511.82 454.75,511.88 L 512.00 512.00 L 511.86 454.75 C511.79,423.26 511.55,398.62 511.34,400.00 C511.13,401.38 510.02,406.75 508.86,411.94 C497.96,461.05 458.22,500.02 409.50,509.38 C405.10,510.23 400.60,511.11 399.50,511.34 ZM 407.62 146.51 C404.80,147.76 400.70,148.99 398.50,149.24 C393.98,149.76 384.75,148.08 381.00,146.06 C351.96,130.40 360.51,88.17 393.13,86.21 C403.32,85.60 409.35,87.64 416.38,94.06 C423.78,100.83 426.46,107.06 426.47,117.52 C426.47,124.40 426.06,126.35 423.54,131.32 C420.06,138.21 414.63,143.39 407.62,146.51 Z" fill="rgb(0,0,0)"/>
<path d="M 0.71 396.42 C0.82,394.35 0.94,393.94 1.06,395.36 C1.66,402.05 2.79,408.62 4.41,415.02 C10.40,437.95 22.37,458.44 38.48,474.58 C55.61,491.68 77.47,504.01 101.81,509.04 C77.48,504.01 55.63,491.76 38.48,474.58 C22.19,458.31 10.18,437.74 4.41,415.02 C3.49,411.50 2.72,407.92 2.09,404.30 ZM 400.64 0.59 C397.98,0.80 399.32,1.12 402.50,1.61 C406.10,2.16 409.64,2.85 413.12,3.66 C407.66,2.44 402.07,1.57 396.36,1.06 C394.36,0.89 395.94,0.73 400.64,0.59 ZM 0.71 115.58 L 2.09 107.70 C2.57,104.94 3.13,102.21 3.77,99.51 C2.49,105.09 1.58,110.81 1.06,116.64 C0.94,118.06 0.82,117.65 0.71,115.58 ZM 99.13 3.86 C101.95,3.18 104.80,2.59 107.70,2.09 L 115.45 0.74 C117.12,0.84 117.34,0.96 116.01,1.09 C110.26,1.64 104.63,2.57 99.13,3.86 Z" fill="rgb(72,72,72)"/>
<path d="M 2.88 408.47 C3.34,410.67 3.85,412.86 4.41,415.02 C9.10,432.98 17.46,449.44 28.61,463.49 C27.56,462.20 26.54,460.88 25.55,459.55 L 25.55 459.55 C14.30,444.46 6.32,427.00 2.88,408.47 ZM 66.91 16.20 C78.26,9.88 90.56,5.30 103.39,2.91 C101.96,3.20 100.54,3.52 99.13,3.86 C87.72,6.53 76.91,10.72 66.91,16.20 ZM 2.91 103.39 C5.08,91.74 9.05,80.53 14.49,70.07 C9.77,79.29 6.14,89.16 3.77,99.51 C3.46,100.80 3.18,102.09 2.91,103.39 ZM 0.71 396.42 L 1.87 403.04 C1.35,400.52 0.87,398.66 0.63,398.31 C0.66,397.57 0.69,396.94 0.71,396.42 ZM 0.63 113.69 C0.87,113.34 1.35,111.48 1.87,108.96 L 0.71 115.58 C0.69,115.06 0.66,114.43 0.63,113.69 ZM 108.96 1.87 C111.43,1.36 113.26,0.89 113.67,0.65 C114.38,0.68 114.97,0.71 115.45,0.74 ZM 411.54 3.30 C419.22,4.90 426.66,7.22 433.82,10.21 C427.17,7.45 420.26,5.25 413.12,3.66 C412.60,3.54 412.07,3.42 411.54,3.30 ZM 399.22 0.85 C400.09,1.08 401.42,1.37 403.02,1.69 C402.85,1.66 402.67,1.64 402.50,1.61 C400.42,1.29 399.13,1.04 399.22,0.85 Z" fill="rgb(179,179,179)"/>
<path d="M 0.00 454.83 C0.00,423.39 0.27,397.94 0.60,398.27 C0.94,398.60 1.85,402.61 2.65,407.17 C11.34,457.26 53.24,499.73 103.50,509.38 C107.90,510.23 112.40,511.11 113.50,511.34 C114.60,511.58 89.51,511.82 57.75,511.88 L 0.00 512.00 L 0.00 454.83 ZM 399.50 511.34 C400.60,511.11 405.10,510.23 409.50,509.38 C458.22,500.02 497.96,461.05 508.86,411.94 C510.02,406.75 511.13,401.38 511.34,400.00 C511.55,398.62 511.79,423.26 511.86,454.75 L 512.00 512.00 L 454.75 511.88 C423.26,511.82 398.40,511.58 399.50,511.34 ZM 118.50 468.87 C84.88,464.67 56.69,440.70 46.31,407.50 L 43.50 398.50 L 43.50 256.00 L 43.50 113.50 L 46.32 104.50 C55.26,75.92 75.94,55.24 104.50,46.31 L 113.50 43.50 L 256.50 43.50 L 399.50 43.50 L 408.31 46.26 C424.71,51.41 435.33,58.16 447.35,71.10 C459.64,84.33 466.87,100.49 468.98,119.50 C470.33,131.65 470.33,380.35 468.98,392.50 C466.87,411.51 459.64,427.67 447.35,440.90 C431.85,457.58 414.91,466.34 393.03,468.98 C382.53,470.24 128.69,470.15 118.50,468.87 ZM 276.00 382.55 C303.53,377.96 326.95,365.92 346.61,346.26 C366.09,326.78 378.86,301.47 382.92,274.31 C384.45,264.14 384.25,246.10 382.51,235.34 C380.78,224.69 375.49,207.90 371.17,199.33 C352.98,163.31 318.57,137.53 279.17,130.42 C267.81,128.37 245.19,128.37 233.83,130.42 C199.76,136.57 169.14,156.44 150.52,184.50 C135.44,207.23 128.86,228.93 128.86,256.00 C128.86,291.35 141.47,321.71 166.45,346.55 C185.50,365.48 209.45,377.85 236.00,382.45 C246.20,384.22 265.67,384.27 276.00,382.55 ZM 407.62 146.51 C414.63,143.39 420.06,138.21 423.54,131.32 C426.06,126.35 426.47,124.40 426.47,117.52 C426.46,107.06 423.78,100.83 416.38,94.06 C409.35,87.64 403.32,85.60 393.13,86.21 C360.51,88.17 351.96,130.40 381.00,146.06 C384.75,148.08 393.98,149.76 398.50,149.24 C400.70,148.99 404.80,147.76 407.62,146.51 ZM 0.00 57.17 L 0.00 0.00 L 57.17 -0.00 C88.61,-0.00 114.06,0.27 113.73,0.60 C113.40,0.94 109.39,1.85 104.83,2.65 C54.19,11.43 11.43,54.19 2.65,104.83 C1.85,109.39 0.94,113.40 0.60,113.73 C0.27,114.06 0.00,88.61 0.00,57.17 ZM 511.00 111.25 C511.00,107.18 506.46,89.40 503.67,82.50 C498.80,70.45 496.97,66.85 491.62,58.75 C471.66,28.54 441.68,8.49 407.57,2.54 C402.67,1.68 398.43,0.76 398.16,0.49 C397.89,0.22 423.39,-0.00 454.83,-0.00 L 512.00 0.00 L 512.00 57.00 C512.00,88.35 511.77,114.00 511.50,114.00 C511.23,114.00 511.00,112.76 511.00,111.25 ZM 246.50 340.87 C212.63,336.64 184.43,312.64 174.39,279.50 C171.96,271.48 171.66,268.92 171.66,256.00 C171.66,243.08 171.96,240.52 174.39,232.50 C183.01,204.05 204.04,183.02 232.50,174.39 C240.58,171.93 243.03,171.66 256.50,171.66 C269.97,171.66 272.42,171.93 280.50,174.39 C346.24,194.33 362.90,278.71 309.72,322.34 C297.26,332.56 281.98,338.93 265.03,340.98 C255.70,342.10 256.38,342.11 246.50,340.87 Z" fill="rgb(254,254,254)"/>
</g>
</svg>