<?xml version="1.0" encoding="UTF-8"?>
<svg version="1.1" xmlns="http://www.w3.org/2000/svg" width="246" height="205">
<path d="M0 0 C1.45188134 1.21214583 2.88863546 2.44256357 4.3125 3.6875 C5.19550781 4.42742188 6.07851562 5.16734375 6.98828125 5.9296875 C25.21690717 21.71270248 35.92064608 43.34918865 38.05859375 67.296875 C39.76587347 92.04419644 32.50686236 114.82401928 16.3125 133.6875 C0.77872417 151.38956734 -20.00106186 162.62733201 -43.6875 164.6875 C-69.95444272 166.34817024 -93.22178589 159.50885214 -113.296875 142.30859375 C-130.71693993 126.82888259 -141.84604446 105.16071785 -143.59375 81.78515625 C-143.6246875 81.09292969 -143.655625 80.40070313 -143.6875 79.6875 C-143.7390625 78.92308594 -143.790625 78.15867187 -143.84375 77.37109375 C-144.35142542 63.51578539 -141.57594451 49.20465062 -135.6875 36.6875 C-135.25695312 35.7696875 -134.82640625 34.851875 -134.3828125 33.90625 C-123.8140977 13.12708191 -104.99134729 -4.43669514 -82.7265625 -11.9765625 C-55.24260921 -20.42493725 -23.43633688 -17.74465506 0 0 Z " fill="#353434" transform="translate(175.6875,28.3125)"/>
<path d="M0 0 C1.0725 0.7425 2.145 1.485 3.25 2.25 C4.11625 2.78625 4.9825 3.3225 5.875 3.875 C14.95901496 12.95901496 16.25 22.50857072 16.25 35.25 C-0.25 35.25 -16.75 35.25 -33.75 35.25 C-31.69126923 46.41210433 -31.69126923 46.41210433 -25.1015625 54.4921875 C-19.5628267 57.77021481 -14.04697322 58.0300728 -7.75 57.25 C-3.16878046 56.07511159 0.24283579 53.92542293 3.25 50.25 C3.91 48.93 4.57 47.61 5.25 46.25 C8.88 46.25 12.51 46.25 16.25 46.25 C14.03157647 54.26097386 11.10063833 60.07534561 3.875 64.5625 C-5.24169469 68.80647856 -15.36624189 70.14083175 -25 66.6875 C-32.76106568 63.15633989 -39.26504841 57.2702124 -42.5534668 49.3034668 C-44.52484963 43.7614894 -45.29649658 38.80875016 -45.25 32.9375 C-45.24572998 32.1122583 -45.24145996 31.2870166 -45.23706055 30.43676758 C-45.00198731 21.93342949 -42.53111025 14.81330932 -37.5625 7.875 C-28.03590601 -1.01648772 -12.46798036 -6.1258863 0 0 Z " fill="#F9F9F9" transform="translate(101.75,69.75)"/>
<path d="M0 0 C5.1861714 -1.45654175 10.0271051 -2.3740845 15 0 C21.29674489 6.22912884 25.67663507 14.33378891 30 22 C33.57024545 20.80991818 34.03168103 19.88326148 36.06640625 16.81640625 C36.63423828 15.97142578 37.20207031 15.12644531 37.78710938 14.25585938 C38.37298828 13.36705078 38.95886719 12.47824219 39.5625 11.5625 C40.72867264 9.81260378 41.89656326 8.0638509 43.06640625 6.31640625 C43.8389978 5.14766968 43.8389978 5.14766968 44.62719727 3.95532227 C46 2 46 2 48 0 C51.0390625 -0.1953125 51.0390625 -0.1953125 54.625 -0.125 C56.40777344 -0.09792969 56.40777344 -0.09792969 58.2265625 -0.0703125 C59.14179688 -0.04710938 60.05703125 -0.02390625 61 0 C59.54813624 4.30798919 57.24366091 7.55173653 54.4375 11.0625 C53.54411468 12.20951381 52.65088931 13.35665222 51.7578125 14.50390625 C49.95706265 16.79663985 48.13585306 19.0713749 46.3046875 21.33984375 C45.47367849 22.39300842 44.64293794 23.44638498 43.8125 24.5 C43.05582031 25.4384375 42.29914063 26.376875 41.51953125 27.34375 C39.79747026 29.84542634 39.79747026 29.84542634 39.99609375 32.45703125 C41.29027683 35.73529267 43.14842816 38.39256759 45.25 41.1875 C45.6823999 41.77829346 46.1147998 42.36908691 46.56030273 42.9777832 C47.51124904 44.27674678 48.465775 45.57309523 49.42333984 46.8671875 C51.73105896 49.98893328 54.01952448 53.12447698 56.30175781 56.26489258 C57.46222207 57.86157684 58.6268452 59.45524792 59.79589844 61.0456543 C60.32860352 61.77695557 60.86130859 62.50825684 61.41015625 63.26171875 C62.12377319 64.23564575 62.12377319 64.23564575 62.85180664 65.22924805 C64 67 64 67 65 70 C59.91484883 71.12540231 54.93119258 71.99040864 50 70 C45.30718051 65.75228849 42.38361708 59.92452971 39.37841797 54.43017578 C37.13617384 50.47705887 34.57172343 46.74420086 32 43 C27.95886776 44.34704408 27.54226707 46.10542467 25.48046875 49.78515625 C24.78191107 50.9683442 24.08064819 52.14993838 23.37695312 53.33007812 C22.27613738 55.18958735 21.19344835 57.05165068 20.15454102 58.9465332 C17.86038368 63.09934497 15.57025421 66.79897114 12 70 C7.14708647 71.06083369 2.87759651 70.80981751 -2 70 C-0.72601667 66.50361504 0.74558627 63.71522516 2.9765625 60.7421875 C3.56171631 59.95666504 4.14687012 59.17114258 4.74975586 58.36181641 C5.36858643 57.54116699 5.98741699 56.72051758 6.625 55.875 C7.25220947 55.0298584 7.87941895 54.1847168 8.52563477 53.31396484 C11.22747657 49.67548919 13.94479636 46.05305992 16.73828125 42.484375 C17.46402344 41.54078125 18.18976563 40.5971875 18.9375 39.625 C19.56527344 38.83351562 20.19304687 38.04203125 20.83984375 37.2265625 C22.3612124 34.30676407 21.89719339 33.125809 21 30 C19.7354905 27.79533396 19.7354905 27.79533396 18.0859375 25.70703125 C17.49248535 24.91603027 16.8990332 24.1250293 16.28759766 23.31005859 C15.65644043 22.48586426 15.0252832 21.66166992 14.375 20.8125 C13.09818619 19.11386137 11.82213688 17.4146478 10.546875 15.71484375 C9.93392578 14.90257324 9.32097656 14.09030273 8.68945312 13.25341797 C0 1.6632948 0 1.6632948 0 0 Z " fill="#F8F8F8" transform="translate(124,68)"/>
<path d="M0 0 C4.78954988 2.34505643 8.07494085 5.67809029 10.375 10.5 C10.87 13.965 10.87 13.965 11.375 17.5 C-1.165 17.5 -13.705 17.5 -26.625 17.5 C-26.625 10.93381449 -25.85261938 8.28802474 -21.625 3.5 C-14.61789293 -2.02842098 -8.27740544 -3.08672477 0 0 Z " fill="#353535" transform="translate(95.625,78.5)"/>
<path d="M0 0 C-5.96431685 3.97621123 -14.02028798 3.18221234 -21 3.1875 C-22.27617188 3.20586914 -22.27617188 3.20586914 -23.578125 3.22460938 C-29.06091513 3.23722316 -33.73554405 2.54155944 -39 1 C-34.73286434 -0.24195418 -30.75298485 0.16661897 -26.375 0.5 C-17.80654668 1.06905258 -7.80648652 -1.8489047 0 0 Z " fill="#272425" transform="translate(143,190)"/>
<path d="M0 0 C0.33 0.66 0.66 1.32 1 2 C0.00390625 4.3125 0.00390625 4.3125 -1.4375 7 C-3.37773011 10.32910995 -3.37773011 10.32910995 -4 14 C-4.66 14 -5.32 14 -6 14 C-6.12375 14.78375 -6.2475 15.5675 -6.375 16.375 C-7 19 -7 19 -9 21 C-8.50564369 15.60327694 -7.15393269 11.83464285 -4.5 7.125 C-3.55640625 5.42730469 -3.55640625 5.42730469 -2.59375 3.6953125 C-1 1 -1 1 0 0 Z " fill="#2B2526" transform="translate(46,55)"/>
<path d="M0 0 C0.33 0 0.66 0 1 0 C1.87315363 8.32854235 2.57581623 16.70983638 1 25 C0.34 25.66 -0.32 26.32 -1 27 C-1.38133299 25.0085944 -1.71325582 23.00720923 -2 21 C-1.67 20.67 -1.34 20.34 -1 20 C-0.84344973 18.51361008 -0.74933057 17.02050873 -0.68359375 15.52734375 C-0.64169922 14.62822266 -0.59980469 13.72910156 -0.55664062 12.80273438 C-0.51732422 11.85720703 -0.47800781 10.91167969 -0.4375 9.9375 C-0.37272461 8.5134082 -0.37272461 8.5134082 -0.30664062 7.06054688 C-0.20020724 4.70718647 -0.09818992 2.35371646 0 0 Z " fill="#201C1E" transform="translate(212,92)"/>
<path d="M0 0 C-0.6796875 1.953125 -0.6796875 1.953125 -2 4 C-4.3828125 4.609375 -4.3828125 4.609375 -7.125 4.75 C-8.03507812 4.80671875 -8.94515625 4.8634375 -9.8828125 4.921875 C-10.58148438 4.94765625 -11.28015625 4.9734375 -12 5 C-12 4.34 -12 3.68 -12 3 C-4.71428571 -0.42857143 -4.71428571 -0.42857143 0 0 Z " fill="#292526" transform="translate(96,17)"/>
<path d="M0 0 C5.32697239 1.45281065 8.36402802 5.08111378 12 9 C11.67 9.66 11.34 10.32 11 11 C9.72799029 9.89718873 8.45744147 8.79269231 7.1875 7.6875 C6.47980469 7.07261719 5.77210938 6.45773438 5.04296875 5.82421875 C3.29590233 4.26421871 1.5946095 2.71533703 0 1 C0 0.67 0 0.34 0 0 Z " fill="#282527" transform="translate(179,33)"/>
<path d="M0 0 C3.97638733 2.8718353 6.51530859 5.76682204 9 10 C9 10.66 9 11.32 9 12 C5.37648747 10.79216249 4.84784764 9.70346858 2.8125 6.5625 C2.28269531 5.75941406 1.75289062 4.95632812 1.20703125 4.12890625 C0 2 0 2 0 0 Z " fill="#292627" transform="translate(191,44)"/>
<path d="M0 0 C2.9719385 1.12451727 5.33440687 2.22293791 8 4 C7.67 4.66 7.34 5.32 7 6 C4.36 4.68 1.72 3.36 -1 2 C-0.67 1.34 -0.34 0.68 0 0 Z " fill="#282526" transform="translate(170,26)"/>
<path d="M0 0 C-3.31371 2.20914 -4.3446021 2.22481553 -8.1875 2.125 C-9.08855469 2.10695312 -9.98960937 2.08890625 -10.91796875 2.0703125 C-11.60503906 2.04710937 -12.29210937 2.02390625 -13 2 C-13 1.67 -13 1.34 -13 1 C-4.57142857 -1.42857143 -4.57142857 -1.42857143 0 0 Z " fill="#231C1E" transform="translate(143,190)"/>
</svg>
