<?xml version="1.0" encoding="UTF-8"?>
<svg version="1.1" xmlns="http://www.w3.org/2000/svg" width="500" height="500">
<path d="M0 0 C0.59780273 0.34853027 1.19560547 0.69706055 1.81152344 1.05615234 C31.37122467 18.53655905 55.00504846 44.43771294 72 74 C72.43876465 74.76086914 72.8775293 75.52173828 73.32958984 76.30566406 C98.98182958 121.362381 104.92048013 175.56587763 91.53564453 225.45825195 C82.07622232 258.89574711 64.87826996 287.92002773 41 313 C40.26257568 313.78044678 40.26257568 313.78044678 39.51025391 314.57666016 C24.25092603 330.64260355 6.66190958 342.10569929 -12.875 352.375 C-13.82560303 352.87507568 -14.77620605 353.37515137 -15.75561523 353.89038086 C-31.45850046 362 -31.45850046 362 -38 362 C-37.99111755 361.33395752 -37.98223511 360.66791504 -37.9730835 359.98168945 C-37.88374291 352.97225638 -37.82391053 345.9629882 -37.78027344 338.953125 C-37.76031001 336.3462872 -37.73312958 333.73949329 -37.69824219 331.1328125 C-37.47097803 313.70031465 -37.27886058 297.37895128 -45.75 281.625 C-46.26324829 280.63814209 -46.26324829 280.63814209 -46.78686523 279.63134766 C-51.99481581 269.92935336 -58.8401198 262.1065868 -68 256 C-68 255.34 -68 254.68 -68 254 C-67.37246826 253.91024902 -66.74493652 253.82049805 -66.09838867 253.72802734 C-35.44752836 249.24444217 -4.72436138 240.42642032 15.25 215 C26.25911036 199.53976685 30.24805536 178.35043968 27.68359375 159.69873047 C25.07698191 145.22634071 20.09615348 129.83073115 8.61328125 119.9453125 C5.87777066 114.95118421 7.96797435 110.14126417 9.25 104.8125 C12.6765256 88.89014336 14.03267115 75.52988837 8 60 C7.67 59.01 7.34 58.02 7 57 C-11.18810186 59.34010097 -27.39508701 63.29436868 -40.0625 77.5625 C-44.27844904 81.89008632 -44.27844904 81.89008632 -47.1796875 82.33203125 C-49.88724886 81.78396087 -52.3835676 80.89189079 -55 80 C-58.19358719 79.24030789 -61.40881599 78.59378834 -64.625 77.9375 C-65.42478271 77.76395996 -66.22456543 77.59041992 -67.04858398 77.41162109 C-90.40270218 72.38357996 -115.58299958 73.80878352 -138.25 81.328125 C-141.10305527 82.02517828 -142.3475466 82.19642579 -145 81 C-146.6484375 79.46875 -146.6484375 79.46875 -148.375 77.5 C-161.34576982 64.14562146 -177.83099455 58.87569086 -196 57 C-203.01140405 74.22366646 -201.73218626 89.63831458 -197.875 107.453125 C-196.04398917 116.5534806 -196.04398917 116.5534806 -198.94140625 120.9375 C-199.80560086 121.96639087 -200.67989611 122.98685681 -201.5625 124 C-214.94963959 140.46461567 -219.73652435 159.13873794 -218 180 C-215.09726994 202.26170669 -203.38396959 219.2569208 -186 233 C-166.78486754 246.20702062 -143.72026472 251.08288877 -121 254 C-122.19409491 257.58228472 -122.90191137 257.74638132 -126.0625 259.5625 C-136.43964573 266.24999392 -142.66060712 277.70541199 -147 289 C-155.99970683 290.29061097 -164.89996988 291.20644616 -174 291.25 C-174.76352783 291.25902344 -175.52705566 291.26804687 -176.3137207 291.27734375 C-186.21016664 291.22577178 -192.36840256 289.51271809 -199.58984375 282.5703125 C-202.63745926 279.32018121 -205.35037559 275.87426549 -208.078125 272.35546875 C-213.40120118 265.83145465 -219.97117224 260.74318282 -228 258 C-231.47039253 258.01328748 -231.47039253 258.01328748 -234 259 C-233.61442484 261.32828076 -233.35329579 262.6636704 -231.6171875 264.31640625 C-231.04226562 264.72761719 -230.46734375 265.13882812 -229.875 265.5625 C-220.56479198 273.12828472 -216.77975092 284.95288746 -212.828125 295.859375 C-209.73380067 304.03723217 -206.22275379 311.09356597 -198.8671875 316.15625 C-197.87976563 316.5996875 -196.89234375 317.043125 -195.875 317.5 C-194.88242188 317.9640625 -193.88984375 318.428125 -192.8671875 318.90625 C-187.71708765 320.87086575 -182.76293894 321.18506555 -177.29296875 321.31640625 C-176.56757401 321.33718735 -175.84217926 321.35796844 -175.09480286 321.37937927 C-172.79245887 321.44442215 -170.49000718 321.50354773 -168.1875 321.5625 C-166.62043186 321.60572835 -165.05337435 321.64934398 -163.48632812 321.69335938 C-159.65766064 321.80005668 -155.8288855 321.90144969 -152 322 C-151.97494385 323.14476807 -151.9498877 324.28953613 -151.92407227 325.46899414 C-151.82950422 329.73879114 -151.72940648 334.00844408 -151.62768555 338.27807617 C-151.58452272 340.12179175 -151.54283549 341.96554252 -151.50268555 343.80932617 C-151.44452834 346.4680438 -151.38096781 349.12658735 -151.31640625 351.78515625 C-151.29969376 352.60210464 -151.28298126 353.41905304 -151.26576233 354.26075745 C-151.14662215 358.92166192 -150.75576946 363.39814399 -150 368 C-179.56287095 362.8999494 -209.66921261 346.84958879 -232 327 C-232.78890625 326.319375 -233.5778125 325.63875 -234.390625 324.9375 C-273.69426732 290.45172351 -300.39168094 241.70453725 -304 189 C-305.96936481 135.32433364 -291.9432254 81.28765179 -254.75878906 40.87597656 C-238.20719482 23.22155538 -221.55337895 8.15402079 -200 -3 C-199.36271973 -3.33837891 -198.72543945 -3.67675781 -198.06884766 -4.02539062 C-135.27622493 -37.35758214 -61.52287621 -36.12812095 0 0 Z " fill="#020202" transform="translate(353,77)"/>
</svg>
