<?xml version="1.0" encoding="UTF-8"?>
<svg version="1.1" xmlns="http://www.w3.org/2000/svg" width="256" height="256">
<path d="M0 0 C0.78687698 0.28852844 1.57375397 0.57705688 2.38447571 0.87432861 C7.33323006 2.83482114 12.24002214 4.88186975 17.1340332 6.97509766 C18.26837799 7.45679413 19.40272278 7.9384906 20.57144165 8.43478394 C24.16922416 9.96318841 27.76499829 11.49624816 31.3605957 13.02978516 C34.9779559 14.5696496 38.59573106 16.10852833 42.21401978 17.64620972 C44.45940903 18.6007511 46.70420069 19.55669969 48.94833374 20.51419067 C49.96013702 20.94488861 50.97194031 21.37558655 52.0144043 21.81933594 C52.90437103 22.19889435 53.79433777 22.57845276 54.71127319 22.96951294 C56.4432625 23.68176086 58.20897654 24.31257877 59.9855957 24.90478516 C57.59315895 38.00154052 37.40880354 53.95665784 27.1819458 61.56225586 C22.77480636 64.25614051 19.12239436 64.37904239 14.00317383 63.65136719 C9.71502753 62.42554174 5.6820768 60.93314369 1.6394043 59.05029297 C-2.06397727 57.45174041 -5.458016 57.0726917 -9.4519043 56.59228516 C-14.44843857 55.46064435 -14.44843857 55.46064435 -16.5456543 53.40087891 C-21.12474221 43.94664136 -16.42301108 28.25777939 -14.9519043 18.40478516 C-14.86851807 17.73833984 -14.78513184 17.07189453 -14.69921875 16.38525391 C-13.34330761 5.61118657 -13.34330761 5.61118657 -10.36254883 1.78369141 C-6.8338644 -0.85516608 -4.1469253 -1.53000811 0 0 Z " fill="#48ACBC" transform="translate(189.014404296875,108.09521484375)"/>
<path d="M0 0 C1.14083164 1.63947439 2.27596169 3.28292661 3.40625 4.9296875 C4.01573486 5.80915039 4.62521973 6.68861328 5.25317383 7.59472656 C7.14382533 10.3271048 9.02630677 13.06493292 10.90625 15.8046875 C11.48036621 16.64032227 12.05448242 17.47595703 12.64599609 18.33691406 C15.90753275 23.08735121 19.15827339 27.84508785 22.40527344 32.60546875 C31.81910061 46.39853238 41.35961583 60.1033495 50.90625 73.8046875 C49.12424313 77.65496741 46.82949595 80.0846017 43.78125 83.0546875 C42.87117188 83.94671875 41.96109375 84.83875 41.0234375 85.7578125 C40.32476562 86.43328125 39.62609375 87.10875 38.90625 87.8046875 C35.55581603 86.35280156 33.40138804 84.5227216 30.859375 81.91796875 C29.7146875 80.7568457 29.7146875 80.7568457 28.546875 79.57226562 C27.75796875 78.76208984 26.9690625 77.95191406 26.15625 77.1171875 C24.60150128 75.52745694 23.04423104 73.94018827 21.484375 72.35546875 C20.79762695 71.65075439 20.11087891 70.94604004 19.40332031 70.2199707 C17.40386228 68.28600137 15.3790128 66.4741857 13.27050781 64.66455078 C8.10827664 60.18092295 3.31929658 55.3423931 -1.5 50.49609375 C-2.47483645 49.5193874 -3.44989749 48.54290516 -4.4251709 47.56663513 C-6.96561301 45.02241289 -9.50303509 42.47520014 -12.03979492 39.92730713 C-14.63926127 37.31752868 -17.24163494 34.71065268 -19.84375 32.10351562 C-24.92989918 27.00670878 -30.0128547 21.90673242 -35.09375 16.8046875 C-33.80880781 14.19800398 -32.47436724 11.75576899 -30.8515625 9.34375 C-30.42488281 8.70695312 -29.99820313 8.07015625 -29.55859375 7.4140625 C-29.11644531 6.75921875 -28.67429687 6.104375 -28.21875 5.4296875 C-27.78433594 4.78257812 -27.34992187 4.13546875 -26.90234375 3.46875 C-26.04254885 2.18809453 -25.17779484 0.91075306 -24.30786133 -0.36303711 C-23.17874888 -2.06703649 -22.14162434 -3.83101556 -21.11328125 -5.59765625 C-19.09375 -8.1953125 -19.09375 -8.1953125 -16.47265625 -9.17578125 C-15.54324219 -9.24410156 -14.61382812 -9.31242188 -13.65625 -9.3828125 C-12.26599609 -9.52783203 -12.26599609 -9.52783203 -10.84765625 -9.67578125 C-5.50669679 -8.74395428 -3.00317966 -4.15715591 0 0 Z " fill="#448BA7" transform="translate(89.09375,168.1953125)"/>
<path d="M0 0 C6.60737353 2.09712839 12.85818951 4.88943195 19.16015625 7.74780273 C20.55603095 8.37545714 21.95651215 8.99296357 23.36132812 9.6003418 C25.4035656 10.48440561 27.42864948 11.40032751 29.453125 12.32421875 C30.08019348 12.58804855 30.70726196 12.85187836 31.35333252 13.123703 C34.97770064 14.82832181 35.91775198 15.77839063 37.33496094 19.59692383 C37.55442383 20.71993896 37.77388672 21.8429541 38 23 C38.391875 23.70125 38.78375 24.4025 39.1875 25.125 C40.36191229 27.8351822 39.8265472 29.15605088 39 32 C37.60469003 34.49203509 36.17797061 36.86104049 34.625 39.25 C34.18309326 39.9423877 33.74118652 40.63477539 33.28588867 41.34814453 C31.86459903 43.5702345 30.43230408 45.78499771 29 48 C28.04497294 49.49180358 27.09054277 50.98398944 26.13671875 52.4765625 C24.28618448 55.36760389 22.41706347 58.24514046 20.53125 61.11328125 C18.97371436 63.4825148 17.48749489 65.85722581 16.03125 68.29296875 C15.4640625 69.20691406 14.896875 70.12085937 14.3125 71.0625 C13.85488281 71.83722656 13.39726563 72.61195313 12.92578125 73.41015625 C10.43216606 75.46877974 8.25493807 75.82464242 5.04907227 75.64868164 C0.80215028 74.30421939 -0.99397967 70.32130999 -3.1875 66.6875 C-4.30521322 64.94611603 -5.42372689 63.20524561 -6.54296875 61.46484375 C-7.10935059 60.56362793 -7.67573242 59.66241211 -8.25927734 58.73388672 C-11.0630034 54.33050322 -14.03512938 50.04575862 -17 45.75 C-18.04184116 44.22407746 -19.08351598 42.69804133 -20.125 41.171875 C-22.70257363 37.41291345 -25.33790712 33.69952613 -28 30 C-26.36221955 25.80374091 -23.26676818 23.01323215 -20.1171875 19.921875 C-19.54292023 19.35043762 -18.96865295 18.77900024 -18.37698364 18.19024658 C-16.5476419 16.37207055 -14.71145807 14.56098508 -12.875 12.75 C-11.63105226 11.51608671 -10.3875573 10.28171678 -9.14453125 9.046875 C-6.10157633 6.02593257 -3.05246746 3.01132908 0 0 Z " fill="#3A9EA1" transform="translate(68,57)"/>
<path d="M0 0 C6.90663863 0.74582904 13.64829534 2.05025143 20.453125 3.43359375 C21.63090515 3.67159195 22.8086853 3.90959015 24.02215576 4.15480042 C26.50011643 4.65671801 28.97775206 5.16024269 31.45507812 5.6652832 C35.25004598 6.43750936 39.04681343 7.20041118 42.84375 7.96289062 C45.25532373 8.45255702 47.66678607 8.9427724 50.078125 9.43359375 C51.2135675 9.6607457 52.34901001 9.88789764 53.51885986 10.12193298 C54.57385681 10.3387825 55.62885376 10.55563202 56.71582031 10.77905273 C58.10525848 11.06098732 58.10525848 11.06098732 59.52276611 11.34861755 C63.34647981 12.35405349 65.43494084 13.09590534 67.5625 16.5 C68.036875 17.325 68.51125 18.15 69 19 C69.99 19.66 70.98 20.32 72 21 C70.28415272 33.6882391 68.35795919 46.34270322 66.3381958 58.98574829 C66.07164816 60.65825863 65.80711254 62.3310909 65.5446167 64.00424194 C65.16971703 66.38922245 64.78703954 68.77283246 64.40234375 71.15625 C64.23521629 72.23172844 64.23521629 72.23172844 64.06471252 73.32893372 C63.44631549 77.10084252 62.83760263 80.62507932 61 84 C58.875 85.3125 58.875 85.3125 57 86 C47.53173515 72.41113771 38.0912466 58.80465064 28.72753906 45.14355469 C27.42314709 43.24110943 26.11803045 41.33916417 24.8125 39.4375 C24.37703857 38.80295898 23.94157715 38.16841797 23.49291992 37.51464844 C20.62986339 33.35001834 17.74747942 29.19926786 14.85546875 25.0546875 C14.13576904 24.02287354 13.41606934 22.99105957 12.67456055 21.92797852 C11.2491233 19.88576399 9.82225331 17.84454858 8.39379883 15.80444336 C7.73790771 14.86479736 7.0820166 13.92515137 6.40625 12.95703125 C5.82166016 12.12147705 5.23707031 11.28592285 4.63476562 10.42504883 C0 3.54973118 0 3.54973118 0 0 Z " fill="#4DA2BF" transform="translate(88,152)"/>
<path d="M0 0 C4.89731686 1.98769937 8.58467648 6.92180344 12.25257874 10.59992981 C13.19681702 11.51580872 14.1410553 12.43168762 15.11390686 13.37532043 C16.00142639 14.26026184 16.88894592 15.14520325 17.80335999 16.05696106 C18.62102844 16.86753967 19.4386969 17.67811829 20.28114319 18.51325989 C21.94007874 20.78742981 21.94007874 20.78742981 21.82655334 22.85652161 C20.93772106 24.79256526 20.01010089 26.5975926 18.89320374 28.41242981 C18.46636292 29.10981262 18.03952209 29.80719543 17.5997467 30.52571106 C17.13455627 31.27207825 16.66936584 32.01844543 16.19007874 32.78742981 C15.47102356 33.95338684 15.47102356 33.95338684 14.73744202 35.14289856 C10.29708588 42.3021014 5.71352599 49.36824308 1.09339905 56.41242981 C0.56585022 57.21680481 0.03830139 58.02117981 -0.50523376 58.84992981 C-0.97461365 59.56278137 -1.44399353 60.27563293 -1.92759705 61.01008606 C-3.10308909 62.787589 -3.10308909 62.787589 -4.05992126 64.78742981 C-6.35289001 65.16633606 -6.35289001 65.16633606 -9.24742126 65.34992981 C-12.20812909 65.54839039 -14.91872998 65.75217284 -17.80235291 66.47224426 C-21.84146056 66.86304753 -24.5567359 65.73347911 -28.13804626 64.07649231 C-29.11701874 63.64510452 -29.11701874 63.64510452 -30.11576843 63.20500183 C-32.18711344 62.28825377 -34.24827974 61.35076572 -36.30992126 60.41242981 C-37.71034759 59.78865065 -39.11138435 59.16624005 -40.51304626 58.54524231 C-49.79568909 54.4195459 -49.79568909 54.4195459 -53.05992126 52.78742981 C-52.5393334 48.67005304 -50.408794 46.79740566 -47.49742126 43.97492981 C-46.25798767 42.75869934 -46.25798767 42.75869934 -44.99351501 41.51789856 C-42.83766423 39.47380549 -40.60921563 37.53284708 -38.35411072 35.59919739 C-34.16863277 31.944003 -30.2838383 28.05790781 -26.41929626 24.06867981 C-25.00582416 22.62799616 -23.59174446 21.18790842 -22.17710876 19.74836731 C-19.97669915 17.50444397 -17.78043903 15.25698605 -15.59410095 12.99934387 C-13.46376345 10.80275865 -11.31814709 8.62213643 -9.16929626 6.44367981 C-8.5150769 5.76051697 -7.86085754 5.07735413 -7.18681335 4.37348938 C-6.57227295 3.75534363 -5.95773254 3.13719788 -5.3245697 2.50032043 C-4.78910522 1.95073669 -4.25364075 1.40115295 -3.70195007 0.83491516 C-2.05992126 -0.21257019 -2.05992126 -0.21257019 0 0 Z " fill="#35A69E" transform="translate(128.05992126464844,0.2125701904296875)"/>
<path d="M0 0 C0.15606206 8.11465568 -0.9203535 15.8188661 -2.17895508 23.81958008 C-2.43571583 25.48844324 -2.67878269 27.15946801 -2.90844727 28.83227539 C-3.24300207 31.26499051 -3.61858245 33.68815422 -4.00390625 36.11328125 C-4.14657677 37.23359489 -4.14657677 37.23359489 -4.29212952 38.37654114 C-4.65454102 40.48168945 -4.65454102 40.48168945 -6 44 C-9.49975586 45.86791992 -9.49975586 45.86791992 -13 47 C-13.99 47.99 -13.99 47.99 -15 49 C-22.91288443 49.23703543 -30.97740968 47.13843837 -38.66796875 45.49609375 C-40.40920769 45.13198143 -40.40920769 45.13198143 -42.18562317 44.76051331 C-45.8541669 43.99199693 -49.52082941 43.21489877 -53.1875 42.4375 C-55.69063536 41.91153867 -58.19388954 41.38614251 -60.69726562 40.86132812 C-66.79956577 39.58074813 -72.90034931 38.29313766 -79 37 C-79.33 35.68 -79.66 34.36 -80 33 C-72.89258179 29.90492096 -65.78385841 26.81285366 -58.67431641 23.72265625 C-56.26736596 22.67631191 -53.86087246 21.62893592 -51.45458984 20.58105469 C-38.80806614 15.07429426 -26.14952234 9.59632836 -13.4375 4.2421875 C-12.4261499 3.81205353 -11.4147998 3.38191956 -10.37280273 2.93875122 C-9.44411377 2.55016937 -8.5154248 2.16158752 -7.55859375 1.76123047 C-6.74704834 1.4194577 -5.93550293 1.07768494 -5.09936523 0.72555542 C-3 0 -3 0 0 0 Z " fill="#48ADBB" transform="translate(169,109)"/>
<path d="M0 0 C7.03729632 5.96608512 13.41689715 12.18796396 19.421875 19.203125 C20.91868784 21.00857397 20.91868784 21.00857397 22.6105957 22.30737305 C24 24 24 24 24.14233398 26.24438477 C24.03219971 27.11377686 23.92206543 27.98316895 23.80859375 28.87890625 C23.68983887 29.85746582 23.57108398 30.83602539 23.44873047 31.84423828 C23.30064941 32.88563965 23.15256836 33.92704102 23 35 C22.85578613 36.04784668 22.71157227 37.09569336 22.56298828 38.17529297 C22.09298136 41.43476383 21.58346748 44.68581079 21.0625 47.9375 C20.80823242 49.60135742 20.80823242 49.60135742 20.54882812 51.29882812 C20.29456055 52.89694336 20.29456055 52.89694336 20.03515625 54.52734375 C19.8844165 55.48374756 19.73367676 56.44015137 19.57836914 57.42553711 C18.99850813 60.00664066 18.5559789 61.85463055 17 64 C12.9966087 65.76811042 9.96591894 64.55531259 6.021698 63.0315094 C5.26945953 62.72333786 4.51722107 62.41516632 3.7421875 62.09765625 C2.95731964 61.78227402 2.17245178 61.46689178 1.36380005 61.14195251 C-0.29142796 60.47040975 -1.94374393 59.79165029 -3.59326172 59.10620117 C-6.11208248 58.06782521 -8.64603338 57.07551898 -11.18359375 56.08398438 C-12.79279762 55.42462844 -14.40091147 54.76260469 -16.0078125 54.09765625 C-16.76409943 53.80770279 -17.52038635 53.51774933 -18.29959106 53.2190094 C-22.2990444 51.49895799 -24.38602799 50.09121293 -26.11230469 46.00195312 C-26.83797173 43.48839258 -27.06550517 42.28651631 -26.47705078 39.71264648 C-26.05407715 39.10493408 -25.63110352 38.49722168 -25.1953125 37.87109375 C-24.72061523 37.15671143 -24.24591797 36.4423291 -23.75683594 35.70629883 C-23.21833008 34.95759521 -22.67982422 34.2088916 -22.125 33.4375 C-21.00776858 31.78388384 -19.89058333 30.13023649 -18.7734375 28.4765625 C-18.16725586 27.60161133 -17.56107422 26.72666016 -16.93652344 25.82519531 C-14.14360082 21.75059868 -11.46883603 17.60205439 -8.78466797 13.45532227 C-5.87368703 8.95891506 -2.93681935 4.47955593 0 0 Z " fill="#40BAB7" transform="translate(155,27)"/>
<path d="M0 0 C7.65217026 2.43626788 15.07390143 5.32204837 22.5 8.375 C23.69109375 8.84421875 24.8821875 9.3134375 26.109375 9.796875 C27.23859375 10.26351562 28.3678125 10.73015625 29.53125 11.2109375 C30.55798828 11.62649902 31.58472656 12.04206055 32.64257812 12.47021484 C35 14 35 14 35.84179688 16.67431641 C35.89400391 17.44179199 35.94621094 18.20926758 36 19 C35.41661865 19.24419678 34.8332373 19.48839355 34.23217773 19.73999023 C19.29205651 26.00427902 4.41288121 32.40132584 -10.4375 38.875 C-11.69713058 39.42364212 -11.69713058 39.42364212 -12.98220825 39.98336792 C-15.42483365 41.04767367 -17.86689969 42.11324697 -20.30859375 43.1796875 C-21.07428177 43.5139827 -21.83996979 43.84827789 -22.62886047 44.19270325 C-27.8017357 46.45780377 -32.94132119 48.78703617 -38.05102539 51.19189453 C-40 52 -40 52 -42 52 C-40.74517201 48.64057171 -39.32117809 45.72565997 -37.34765625 42.734375 C-36.82349121 41.93451172 -36.29932617 41.13464844 -35.75927734 40.31054688 C-35.19934082 39.46556641 -34.6394043 38.62058594 -34.0625 37.75 C-32.8890592 35.96371488 -31.715887 34.17725329 -30.54296875 32.390625 C-29.95177246 31.49279297 -29.36057617 30.59496094 -28.75146484 29.66992188 C-25.64079791 24.92804098 -22.57849493 20.15484497 -19.51586914 15.38183594 C-18.35459857 13.5806089 -17.1787798 11.78978614 -16 10 C-15.49726562 9.20980469 -14.99453125 8.41960937 -14.4765625 7.60546875 C-12.58160055 5.54507362 -11.23417528 5.27275284 -8.5 4.8125 C-5.86631517 4.3428262 -3.55213769 3.85071256 -1 3 C-0.67 2.01 -0.34 1.02 0 0 Z " fill="#3C9AA1" transform="translate(129,83)"/>
<path d="M0 0 C1.35491943 1.63676453 1.35491943 1.63676453 2.92089844 3.9597168 C3.80125763 5.25687874 3.80125763 5.25687874 4.69940186 6.58024597 C5.32969299 7.52700699 5.95998413 8.47376801 6.609375 9.44921875 C7.57777313 10.89637016 7.57777313 10.89637016 8.56573486 12.37275696 C9.93132155 14.42065128 11.29292144 16.47120873 12.65087891 18.52416992 C14.73746173 21.66860509 16.85043383 24.79415454 18.96484375 27.91992188 C20.28552567 29.90774465 21.60459064 31.89664286 22.921875 33.88671875 C23.87945709 35.29167854 23.87945709 35.29167854 24.85638428 36.72502136 C25.43068176 37.60555679 26.00497925 38.48609222 26.59667969 39.39331055 C27.11027039 40.16386276 27.62386108 40.93441498 28.15301514 41.72831726 C29 44 29 44 28.15020752 46.78791809 C27.77063904 47.51790512 27.39107056 48.24789215 27 49 C19.60852631 48.34229856 12.54021681 46.91726384 5.30859375 45.27734375 C4.12274185 45.01240616 2.93688995 44.74746857 1.71510315 44.47450256 C-2.04512242 43.63333196 -5.80381413 42.78552115 -9.5625 41.9375 C-12.1229482 41.36349198 -14.68349413 40.78991966 -17.24414062 40.21679688 C-23.49723345 38.81623825 -29.74908286 37.41023544 -36 36 C-34.71152504 33.1670381 -33.36571643 31.11912582 -31.15844727 28.93139648 C-30.5876796 28.36077988 -30.01691193 27.79016327 -29.42884827 27.20225525 C-28.8142424 26.59797195 -28.19963654 25.99368866 -27.56640625 25.37109375 C-26.93266586 24.74018326 -26.29892548 24.10927277 -25.64598083 23.45924377 C-23.62280842 21.44724421 -21.59279719 19.44230726 -19.5625 17.4375 C-18.1994108 16.08444661 -16.83677535 14.73093595 -15.47460938 13.37695312 C-12.47000967 10.39198665 -9.46108625 7.41145872 -6.44825745 4.43479919 C-5.4220972 3.41817477 -4.42128539 2.3756699 -3.4393158 1.31629944 C-2 0 -2 0 0 0 Z " fill="#3C99A2" transform="translate(36,91)"/>
<path d="M0 0 C12.15494014 1.5631113 24.05273206 4.32055378 36 7 C31.13049729 12.85970078 25.89773872 18.2632623 20.515625 23.65234375 C19.61882019 24.55247696 18.72201538 25.45261017 17.79803467 26.38002014 C15.91336764 28.26972655 14.02761953 30.15827967 12.14013672 32.04516602 C9.71841429 34.46678591 7.30369818 36.8952685 4.8905983 39.32547665 C2.58258099 41.64723423 0.26742749 43.9618537 -2.046875 46.27734375 C-3.34839508 47.58964211 -3.34839508 47.58964211 -4.6762085 48.92845154 C-5.47754211 49.72670853 -6.27887573 50.52496552 -7.10449219 51.34741211 C-8.1632254 52.40828285 -8.1632254 52.40828285 -9.24334717 53.49058533 C-11 55 -11 55 -13 55 C-12.18313049 49.66537333 -11.36521489 44.33090841 -10.54638672 38.99658203 C-10.26876496 37.18705435 -9.99141451 35.37748502 -9.71435547 33.56787109 C-9.5804541 32.69340332 -9.44655273 31.81893555 -9.30859375 30.91796875 C-9.17612244 30.05200073 -9.04365112 29.18603271 -8.90716553 28.29382324 C-8.64200793 26.57368273 -8.37368181 24.8540275 -8.10211182 23.1348877 C-7.52315008 19.46780127 -6.97759565 15.81371978 -6.53417969 12.12695312 C-6.39657227 11.04865234 -6.25896484 9.97035156 -6.1171875 8.859375 C-5.96805908 7.4976416 -5.96805908 7.4976416 -5.81591797 6.10839844 C-5 4 -5 4 -2.43017578 2.69628906 C-1.62821777 2.46651367 -0.82625977 2.23673828 0 2 C0 1.34 0 0.68 0 0 Z " fill="#4DA4BF" transform="translate(172,169)"/>
<path d="M0 0 C5.47925516 0.62581689 10.8241605 1.49260683 16.21875 2.62890625 C17.33376892 2.8598423 17.33376892 2.8598423 18.47131348 3.09544373 C20.81483279 3.58151693 23.15741866 4.07192853 25.5 4.5625 C27.10150246 4.89547122 28.70306446 5.22815614 30.3046875 5.56054688 C34.20382054 6.37039337 38.10212342 7.18412841 42 8 C41.34 8.66 40.68 9.32 40 10 C39.74628251 12.26594817 39.74628251 12.26594817 39.86474609 14.90869141 C39.89500381 16.44005234 39.89500381 16.44005234 39.9258728 18.00234985 C39.95806915 19.10759003 39.9902655 20.2128302 40.0234375 21.3515625 C40.04846344 22.4807309 40.07348938 23.60989929 40.09927368 24.77328491 C40.18164885 28.39082078 40.2781713 32.00782489 40.375 35.625 C40.4332216 38.07289473 40.49052524 40.52081147 40.546875 42.96875 C40.68725369 48.97946299 40.83925863 54.98979898 41 61 C37.6118962 57.76542023 34.85068379 54.56890089 32.29296875 50.6484375 C31.62330078 49.63136719 30.95363281 48.61429688 30.26367188 47.56640625 C29.57853516 46.51324219 28.89339844 45.46007812 28.1875 44.375 C23.58002654 37.32931331 18.89007319 30.39542498 13.90356445 23.61181641 C11.00713373 19.63772177 8.2404081 15.5826488 5.5 11.5 C4.96375 10.71625 4.4275 9.9325 3.875 9.125 C3.3696875 8.3721875 2.864375 7.619375 2.34375 6.84375 C1.89193359 6.17537109 1.44011719 5.50699219 0.97460938 4.81835938 C0 3 0 3 0 0 Z " fill="#4290A5" transform="translate(88,152)"/>
<path d="M0 0 C1.83425903 1.48022461 1.83425903 1.48022461 3.72705078 3.40234375 C4.79803513 4.47850952 4.79803513 4.47850952 5.89065552 5.57641602 C6.65119232 6.35557373 7.41172913 7.13473145 8.1953125 7.9375 C8.98396698 8.732771 9.77262146 9.52804199 10.58517456 10.34741211 C13.10562744 12.8912935 15.61571343 15.44510749 18.125 18 C20.64312366 20.55314424 23.16335305 23.10415912 25.68624878 25.65258789 C27.25642107 27.23978423 28.82350246 28.83004522 30.38723755 30.42358398 C31.09492279 31.14102783 31.80260803 31.85847168 32.53173828 32.59765625 C33.46628342 33.54910522 33.46628342 33.54910522 34.41970825 34.51977539 C35.94921484 36.09338123 35.94921484 36.09338123 38 37 C38 37.66 38 38.32 38 39 C29.97783856 36.49144137 22.29135395 33.28075291 14.5625 30 C12.50759125 29.13018068 10.4524712 28.26086194 8.39733887 27.39157104 C7.002689 26.80148768 5.60823959 26.21093033 4.21398926 25.61990356 C0.18815568 23.91562147 -3.84585906 22.23366377 -7.89155579 20.5770874 C-9.73256935 19.82302665 -11.57151318 19.06391894 -13.41040039 18.3046875 C-15.68351253 17.36667435 -17.9599626 16.43670124 -20.23999023 15.515625 C-21.25134033 15.09539062 -22.26269043 14.67515625 -23.3046875 14.2421875 C-24.19140137 13.8797998 -25.07811523 13.51741211 -25.99169922 13.14404297 C-28 12 -28 12 -29 9 C-24.92405075 7.29425537 -20.83821032 5.61362135 -16.75 3.9375 C-15.59113281 3.45216797 -14.43226563 2.96683594 -13.23828125 2.46679688 C-12.12324219 2.01240234 -11.00820312 1.55800781 -9.859375 1.08984375 C-8.83295898 0.66566162 -7.80654297 0.24147949 -6.74902344 -0.19555664 C-3.75989857 -1.07026059 -2.85171158 -1.05555847 0 0 Z " fill="#43B4BB" transform="translate(218,89)"/>
<path d="M0 0 C7.65217026 2.43626788 15.07390143 5.32204837 22.5 8.375 C23.69109375 8.84421875 24.8821875 9.3134375 26.109375 9.796875 C27.80320313 10.49683594 27.80320313 10.49683594 29.53125 11.2109375 C30.55798828 11.62649902 31.58472656 12.04206055 32.64257812 12.47021484 C35 14 35 14 35.84179688 16.67431641 C35.92010742 17.82552979 35.92010742 17.82552979 36 19 C35.25951416 19.31227539 34.51902832 19.62455078 33.75610352 19.94628906 C30.35786222 21.379976 26.96017797 22.81497857 23.5625 24.25 C22.39783203 24.74113281 21.23316406 25.23226562 20.03320312 25.73828125 C14.21617678 28.19617971 8.41812857 30.67358233 2.68725586 33.32714844 C1 34 1 34 -1 34 C-1.02465288 29.31860746 -1.04283739 24.63725241 -1.05493164 19.95581055 C-1.05997157 18.36205386 -1.0668035 16.76830181 -1.07543945 15.17456055 C-1.08751999 12.88849747 -1.09323155 10.60249533 -1.09765625 8.31640625 C-1.10281754 7.59973282 -1.10797882 6.88305939 -1.11329651 6.14466858 C-1.11349263 4.42936328 -1.06192007 2.71418734 -1 1 C-0.67 0.67 -0.34 0.34 0 0 Z " fill="#44B3B9" transform="translate(129,83)"/>
<path d="M0 0 C5.41719806 2.70859903 9.04320976 6.63556493 13.3125 10.875 C14.16134766 11.69097656 15.01019531 12.50695313 15.88476562 13.34765625 C16.68205078 14.13785156 17.47933594 14.92804687 18.30078125 15.7421875 C19.03466064 16.4626123 19.76854004 17.18303711 20.5246582 17.92529297 C22 20 22 20 21.87011719 22.02197266 C20.95922649 24.09268994 19.96450469 25.97956555 18.77734375 27.90625 C18.32480225 28.64504395 17.87226074 29.38383789 17.40600586 30.14501953 C16.67909546 31.31073486 16.67909546 31.31073486 15.9375 32.5 C15.44451416 33.29647949 14.95152832 34.09295898 14.44360352 34.91357422 C12.97135912 37.28147969 11.48861183 39.64235524 10 42 C9.58105469 42.66418945 9.16210938 43.32837891 8.73046875 44.01269531 C4.05673468 51.37109101 4.05673468 51.37109101 2 54 C1.34 54 0.68 54 0 54 C0 36.18 0 18.36 0 0 Z " fill="#3BC1B5" transform="translate(128,1)"/>
<path d="M0 0 C0.66 0.33 1.32 0.66 2 1 C2 9.58 2 18.16 2 27 C-3.61572215 26.37603087 -8.75900852 25.74137489 -14.22265625 24.58984375 C-15.50205078 24.32236328 -16.78144531 24.05488281 -18.09960938 23.77929688 C-19.4205926 23.49879058 -20.74155591 23.21819051 -22.0625 22.9375 C-23.4185384 22.65260708 -24.77465768 22.36809891 -26.13085938 22.08398438 C-29.42138594 21.3930909 -32.71104574 20.69833305 -36 20 C-36.33 18.68 -36.66 17.36 -37 16 C-31.7715742 13.69307377 -26.53883038 11.39635991 -21.30175781 9.10913086 C-19.51959773 8.3290701 -17.73866553 7.54619794 -15.95898438 6.76049805 C-13.40549722 5.63375051 -10.84781193 4.51707967 -8.2890625 3.40234375 C-7.09055161 2.86963112 -7.09055161 2.86963112 -5.86782837 2.32615662 C-3.93676505 1.49073494 -1.97070619 0.73705633 0 0 Z " fill="#4096A4" transform="translate(126,126)"/>
<path d="M0 0 C6.88814905 1.38088667 13.7747762 2.76917605 20.66040039 4.16259766 C23.00250492 4.63565511 25.34495136 5.1070231 27.68774414 5.57666016 C31.05706852 6.2523822 34.42511263 6.9341901 37.79296875 7.6171875 C39.36198189 7.92981033 39.36198189 7.92981033 40.96269226 8.24874878 C42.43365105 8.54883347 42.43365105 8.54883347 43.93432617 8.85498047 C45.22339119 9.11479202 45.22339119 9.11479202 46.53849792 9.37985229 C49.14318685 10.03607431 51.53050579 10.94990709 54 12 C49.05440128 15.29706582 43.51440419 17.35348609 38.0625 19.6875 C36.86947266 20.21150391 35.67644531 20.73550781 34.44726562 21.27539062 C33.30064453 21.76587891 32.15402344 22.25636719 30.97265625 22.76171875 C29.92343994 23.21506592 28.87422363 23.66841309 27.79321289 24.13549805 C24.85489744 25.04490938 23.76012417 25.26442253 21 24 C19.15649414 22.51293945 19.15649414 22.51293945 17.28515625 20.61328125 C16.59873047 19.92169922 15.91230469 19.23011719 15.20507812 18.51757812 C14.49802734 17.78990234 13.79097656 17.06222656 13.0625 16.3125 C12.00772461 15.24999023 12.00772461 15.24999023 10.93164062 14.16601562 C0 3.07045162 0 3.07045162 0 0 Z " fill="#4195A4" transform="translate(6,135)"/>
<path d="M0 0 C3.87316729 1.6099864 6.67141173 4.23044915 9.6875 7.0625 C10.20989258 7.548396 10.73228516 8.03429199 11.27050781 8.53491211 C22.05860952 18.62037205 22.05860952 18.62037205 25 22 C25 22.66 25 23.32 25 24 C20.95340457 25.93121816 16.8858802 27.81352068 12.8125 29.6875 C11.66201172 30.23728516 10.51152344 30.78707031 9.32617188 31.35351562 C7.65844727 32.11245117 7.65844727 32.11245117 5.95703125 32.88671875 C4.93585205 33.36326904 3.91467285 33.83981934 2.86254883 34.33081055 C0 35 0 35 -2.87231445 33.63208008 C-3.57445068 33.09349365 -4.27658691 32.55490723 -5 32 C-1.83112696 9.19872014 -1.83112696 9.19872014 0 0 Z " fill="#43B8B9" transform="translate(185,59)"/>
<path d="M0 0 C-0.63935385 3.31241708 -1.86623805 5.6496628 -3.6875 8.4765625 C-4.22117187 9.311875 -4.75484375 10.1471875 -5.3046875 11.0078125 C-5.86414063 11.87148437 -6.42359375 12.73515625 -7 13.625 C-8.10484873 15.34591646 -9.20904763 17.06725035 -10.3125 18.7890625 C-10.80363281 19.54912598 -11.29476562 20.30918945 -11.80078125 21.09228516 C-13.03038516 22.97960979 -13.03038516 22.97960979 -14 25 C-18.07376031 23.38989473 -20.76507069 20.46177729 -23.75 17.375 C-24.25660156 16.859375 -24.76320313 16.34375 -25.28515625 15.8125 C-26.52803902 14.54616661 -27.76465276 13.2736856 -29 12 C-26.63182362 9.29552605 -24.34415015 8.09621314 -21.03515625 6.73828125 C-19.58786133 6.14370117 -19.58786133 6.14370117 -18.11132812 5.53710938 C-17.10521484 5.13298828 -16.09910156 4.72886719 -15.0625 4.3125 C-14.06025391 3.89677734 -13.05800781 3.48105469 -12.02539062 3.05273438 C-4.51135314 0 -4.51135314 0 0 0 Z " fill="#4193A6" transform="translate(64,154)"/>
<path d="M0 0 C0.33 0 0.66 0 1 0 C1.25287193 6.06892629 0.69832609 11.16200408 -1 17 C-0.01 17.33 0.98 17.66 2 18 C1.01 20.475 1.01 20.475 0 23 C0.66 23.33 1.32 23.66 2 24 C1.01 24.66 0.02 25.32 -1 26 C-1.72965366 28.56282742 -1.72965366 28.56282742 -2 31 C-1.2575 30.67 -0.515 30.34 0.25 30 C3 29 3 29 7 29 C7.66 28.67 8.32 28.34 9 28 C9.33 27.01 9.66 26.02 10 25 C10.66 25 11.32 25 12 25 C12.33 24.34 12.66 23.68 13 23 C13.66 23.66 14.32 24.32 15 25 C12.19469153 27.8546576 9.38292304 30.70277231 6.56494141 33.54492188 C5.60675044 34.51318538 4.65036018 35.48323426 3.69580078 36.45507812 C2.3253618 37.8497097 0.94793633 39.23746521 -0.4296875 40.625 C-1.25710449 41.46289062 -2.08452148 42.30078125 -2.93701172 43.1640625 C-5 45 -5 45 -7 45 C-6.16430544 39.55558915 -5.32810887 34.11125572 -4.49145508 28.66699219 C-4.20713866 26.81642725 -3.92295737 24.96584155 -3.63891602 23.11523438 C-3.22968846 20.44916346 -2.81996866 17.78316857 -2.41015625 15.1171875 C-2.28407486 14.29507782 -2.15799347 13.47296814 -2.02809143 12.62594604 C-1.37987067 8.41230719 -0.71239036 4.20339875 0 0 Z " fill="#579FBC" transform="translate(166,179)"/>
<path d="M0 0 C4.0744433 1.35814777 5.42021951 4.1308426 7.6875 7.5625 C8.10322266 8.17802734 8.51894531 8.79355469 8.94726562 9.42773438 C9.97193162 10.94706671 10.98690678 12.47292657 12 14 C10.46563424 17.65564739 8.25017578 19.98698623 5.4375 22.75 C4.63183594 23.54921875 3.82617188 24.3484375 2.99609375 25.171875 C1 27 1 27 0 27 C0 18.09 0 9.18 0 0 Z " fill="#5598BE" transform="translate(128,228)"/>
<path d="M0 0 C0.99 0.33 1.98 0.66 3 1 C3.144375 1.639375 3.28875 2.27875 3.4375 2.9375 C3.79081858 5.15511278 3.79081858 5.15511278 5.8125 6.125 C6.534375 6.41375 7.25625 6.7025 8 7 C8.66 7.37125 9.32 7.7425 10 8.125 C12.24693303 9.26721256 12.24693303 9.26721256 16 9 C15.85691406 9.99580078 15.85691406 9.99580078 15.7109375 11.01171875 C14.79684678 17.71645525 14.79684678 17.71645525 17 24 C9.81039693 17.17300299 4.72523061 8.66292278 0 0 Z " fill="#4C8DA0" transform="translate(103,176)"/>
<path d="M0 0 C1.65 0 3.3 0 5 0 C5.33 0.66 5.66 1.32 6 2 C7.64363134 2.72159424 9.31050386 3.39351421 11 4 C11 3.34 11 2.68 11 2 C11.66 2 12.32 2 13 2 C12.38461538 8.52307692 12.38461538 8.52307692 10.4375 10.9375 C9.963125 11.288125 9.48875 11.63875 9 12 C5.37648747 10.79216249 4.84784764 9.70346858 2.8125 6.5625 C2.28269531 5.75941406 1.75289062 4.95632812 1.20703125 4.12890625 C0 2 0 2 0 0 Z " fill="#589ABC" transform="translate(138,226)"/>
<path d="M0 0 C0.33 0.99 0.66 1.98 1 3 C-0.98 3.66 -2.96 4.32 -5 5 C-5 5.99 -5 6.98 -5 8 C-6.38916196 8.94869597 -7.78620687 9.88770635 -9.21875 10.76953125 C-12.54625542 13.06813697 -15.21008059 16.09247275 -18 19 C-20.66666667 21.66666667 -23.33333333 24.33333333 -26 27 C-26.66 26.67 -27.32 26.34 -28 26 C-20.33333333 18.33333333 -12.66666667 10.66666667 -5 3 C-4.43643799 2.39518799 -3.87287598 1.79037598 -3.29223633 1.16723633 C-2 0 -2 0 0 0 Z " fill="#4A9499" transform="translate(36,91)"/>
<path d="M0 0 C-0.33 0.99 -0.66 1.98 -1 3 C-2.98 3.33 -4.96 3.66 -7 4 C-7.22011697 6.17361906 -7.22011697 6.17361906 -5.3203125 7.91015625 C-4.59585938 8.62042969 -3.87140625 9.33070313 -3.125 10.0625 C-2.40570313 10.77535156 -1.68640625 11.48820313 -0.9453125 12.22265625 C0.88233189 14.05497621 0.88233189 14.05497621 3 15 C3 14.34 3 13.68 3 13 C3.66 13 4.32 13 5 13 C5 12.34 5 11.68 5 11 C5.66 11 6.32 11 7 11 C5.125 15.75 5.125 15.75 4 18 C-0.07376031 16.38989473 -2.76507069 13.46177729 -5.75 10.375 C-6.25660156 9.859375 -6.76320313 9.34375 -7.28515625 8.8125 C-8.52803902 7.54616661 -9.76465276 6.2736856 -11 5 C-7.7410665 1.54211998 -4.83323623 0 0 0 Z " fill="#4E8B98" transform="translate(46,161)"/>
<path d="M0 0 C1.14030527 3.42091582 0.83657799 5.02687151 0.22265625 8.54296875 C0.03896484 9.61611328 -0.14472656 10.68925781 -0.33398438 11.79492188 C-0.53314453 12.91447266 -0.73230469 14.03402344 -0.9375 15.1875 C-1.13279297 16.31865234 -1.32808594 17.44980469 -1.52929688 18.61523438 C-2.01301447 21.41135801 -2.50350054 24.20612255 -3 27 C-3.33 27 -3.66 27 -4 27 C-3.96519531 26.16855469 -3.93039063 25.33710938 -3.89453125 24.48046875 C-3.86746094 23.39378906 -3.84039062 22.30710938 -3.8125 21.1875 C-3.77769531 20.10855469 -3.74289063 19.02960938 -3.70703125 17.91796875 C-3.73463048 14.98051156 -3.73463048 14.98051156 -5.51171875 13.11328125 C-6.00285156 12.74589844 -6.49398437 12.37851563 -7 12 C-6.34 10.68 -5.68 9.36 -5 8 C-4.34 8.33 -3.68 8.66 -3 9 C-2.67 9.99 -2.34 10.98 -2 12 C-1.67 8.7 -1.34 5.4 -1 2 C-1.66 1.67 -2.32 1.34 -3 1 C-2.01 0.67 -1.02 0.34 0 0 Z " fill="#579EB5" transform="translate(159,173)"/>
<path d="M0 0 C0 3 0 3 -1.5625 6.4375 C-3.19896979 9.7299394 -3.19896979 9.7299394 -2.8125 12.375 C-2.10416667 14.19791667 -2.10416667 14.19791667 0 15 C-3.34373475 14.44271087 -6.03312999 13.64826111 -9 12 C-8.45015228 8.12488273 -6.72444669 6.40423494 -3.9375 3.75 C-3.20402344 3.04359375 -2.47054687 2.3371875 -1.71484375 1.609375 C-1.14894531 1.07828125 -0.58304688 0.5471875 0 0 Z " fill="#49A19B" transform="translate(84,41)"/>
<path d="M0 0 C5.06623768 4.23816537 9.80038069 8.67408963 14.4375 13.375 C15.07365234 14.01566406 15.70980469 14.65632812 16.36523438 15.31640625 C17.91250332 16.87530879 19.45736492 18.43651416 21 20 C20.67 20.99 20.34 21.98 20 23 C19.62488281 22.55269531 19.24976563 22.10539062 18.86328125 21.64453125 C14.71367899 16.74235629 10.73202869 12.0896726 5.3125 8.5625 C1.90279166 6.23500344 0.85840822 4.1012837 0 0 Z " fill="#51BCAF" transform="translate(129,1)"/>
<path d="M0 0 C3.3 0.99 6.6 1.98 10 3 C10 3.66 10 4.32 10 5 C11.65 4.34 13.3 3.68 15 3 C17.04119788 4.61594832 19.04072937 6.2856382 21 8 C21 8.66 21 9.32 21 10 C13.81783567 7.72564796 6.9241798 4.96415819 0 2 C0 1.34 0 0.68 0 0 Z " fill="#55ACB4" transform="translate(235,118)"/>
<path d="M0 0 C0 3.84947814 -1.31151243 5.46593267 -3.375 8.6875 C-4.00148437 9.68136719 -4.62796875 10.67523438 -5.2734375 11.69921875 C-6.12808594 12.83810547 -6.12808594 12.83810547 -7 14 C-7.66 14 -8.32 14 -9 14 C-9.26218749 10.85375007 -9.24754367 9.38162983 -7.5 6.6875 C-7.005 6.130625 -6.51 5.57375 -6 5 C-5.34 5.33 -4.68 5.66 -4 6 C-4.33 4.35 -4.66 2.7 -5 1 C-3.35 0.67 -1.7 0.34 0 0 Z " fill="#47BBB2" transform="translate(137,41)"/>
<path d="M0 0 C3.375 -0.125 3.375 -0.125 7 0 C7.66 0.66 8.32 1.32 9 2 C11.43252661 2.46162427 11.43252661 2.46162427 14.125 2.625 C15.03507813 2.69976562 15.94515625 2.77453125 16.8828125 2.8515625 C17.93082031 2.92503906 17.93082031 2.92503906 19 3 C19 3.66 19 4.32 19 5 C19.99 5.33 20.98 5.66 22 6 C14.82129753 5.54841134 7.76156997 4.56473344 1 2 C0.67 1.34 0.34 0.68 0 0 Z " fill="#59A8BB" transform="translate(181,162)"/>
<path d="M0 0 C-0.33 0.99 -0.66 1.98 -1 3 C-1.66 2.01 -2.32 1.02 -3 0 C-5.6556728 -0.58348752 -5.6556728 -0.58348752 -8.625 -0.6875 C-9.62789062 -0.75324219 -10.63078125 -0.81898438 -11.6640625 -0.88671875 C-12.43492188 -0.92410156 -13.20578125 -0.96148437 -14 -1 C-14.10183594 -0.41734375 -14.20367187 0.1653125 -14.30859375 0.765625 C-15.11517153 3.37219275 -16.24157009 4.73535414 -18.0625 6.75 C-18.61035156 7.36359375 -19.15820312 7.9771875 -19.72265625 8.609375 C-20.14417969 9.06828125 -20.56570312 9.5271875 -21 10 C-21 5.786371 -19.39214552 3.40758317 -17.05078125 -0.0234375 C-13.86759772 -3.0914201 -10.86845943 -3.17469952 -6.5859375 -3.390625 C-3.60873585 -2.94089665 -2.22229788 -1.98233144 0 0 Z " fill="#4E8E9B" transform="translate(85,162)"/>
<path d="M0 0 C19.09433962 0.72955975 19.09433962 0.72955975 27 6 C20.67250629 5.39828638 14.62404348 4.37848091 8.4375 2.9375 C7.61958984 2.75123047 6.80167969 2.56496094 5.95898438 2.37304688 C3.97164104 1.91979313 1.98566799 1.46053788 0 1 C0 0.67 0 0.34 0 0 Z " fill="#4A9498" transform="translate(23,131)"/>
<path d="M0 0 C3.87059272 1.57158637 6.20418609 4.06622825 9.0625 7.0625 C12.5170026 10.82954005 12.5170026 10.82954005 17 13 C17.33 14.65 17.66 16.3 18 18 C13.46334263 14.2698595 9.22058878 10.32946434 5.0625 6.1875 C4.31746216 5.44922974 4.31746216 5.44922974 3.55737305 4.69604492 C0 1.12375366 0 1.12375366 0 0 Z " fill="#55869A" transform="translate(86,216)"/>
<path d="M0 0 C0.99 0.99 1.98 1.98 3 3 C2.34 4.65 1.68 6.3 1 8 C-1.97 7.67 -4.94 7.34 -8 7 C-7.67 6.01 -7.34 5.02 -7 4 C-1.25 3.875 -1.25 3.875 1 5 C0.67 3.35 0.34 1.7 0 0 Z " fill="#48909A" transform="translate(62,132)"/>
<path d="M0 0 C1.65 0 3.3 0 5 0 C5 0.66 5 1.32 5 2 C7.64 1.67 10.28 1.34 13 1 C13 1.99 13 2.98 13 4 C13.99 4.33 14.98 4.66 16 5 C16 5.66 16 6.32 16 7 C10.53262809 5.25192871 5.24175152 3.34205919 0 1 C0 0.67 0 0.34 0 0 Z " fill="#56B0B5" transform="translate(207,107)"/>
<path d="M0 0 C0.33 0.99 0.66 1.98 1 3 C3.31 3 5.62 3 8 3 C4.63263969 5.82858266 1.12548042 7.4998253 -3 9 C-3.99 8.67 -4.98 8.34 -6 8 C-6 7.34 -6 6.68 -6 6 C-4.02 5.67 -2.04 5.34 0 5 C-0.66 4.01 -1.32 3.02 -2 2 C-1.34 2 -0.68 2 0 2 C0 1.34 0 0.68 0 0 Z " fill="#47969E" transform="translate(110,118)"/>
<path d="M0 0 C0.103125 0.639375 0.20625 1.27875 0.3125 1.9375 C0.539375 2.618125 0.76625 3.29875 1 4 C1.99 4.33 2.98 4.66 4 5 C3.34 5.66 2.68 6.32 2 7 C1.01 7 0.02 7 -1 7 C-1 8.65 -1 10.3 -1 12 C-3 9 -3 9 -4 6 C-2.0625 2.8125 -2.0625 2.8125 0 0 Z " fill="#4AB6B4" transform="translate(132,63)"/>
<path d="M0 0 C4.95 0.99 9.9 1.98 15 3 C14.67 3.66 14.34 4.32 14 5 C11.36 4.34 8.72 3.68 6 3 C5.67 3.99 5.34 4.98 5 6 C3.2925002 4.71937515 1.62626404 3.38232443 0 2 C0 1.34 0 0.68 0 0 Z " fill="#489299" transform="translate(6,135)"/>
<path d="M0 0 C0.99 0 1.98 0 3 0 C2.938125 0.763125 2.87625 1.52625 2.8125 2.3125 C2.74101915 5.04525312 2.74101915 5.04525312 4.5 6.8125 C4.995 7.204375 5.49 7.59625 6 8 C2.44219804 7.39009109 -0.6828589 6.4216319 -4 5 C-4 4.34 -4 3.68 -4 3 C-2.68 3 -1.36 3 0 3 C0 2.01 0 1.02 0 0 Z " fill="#4CB5B4" transform="translate(135,72)"/>
<path d="M0 0 C0.33 0 0.66 0 1 0 C1 2.97 1 5.94 1 9 C4.3 8.67 7.6 8.34 11 8 C8.456333 10.543667 6.49900021 11.23021995 3 12 C0.5625 11.1875 0.5625 11.1875 -1 9 C-1.02713134 5.92873231 -0.58064395 3.01051267 0 0 Z " fill="#55ADAD" transform="translate(181,82)"/>
<path d="M0 0 C2.01136276 2.55991624 3.62845496 5.04590299 5 8 C2 8 2 8 0.39453125 6.46875 C-0.12753906 5.8190625 -0.64960938 5.169375 -1.1875 4.5 C-1.71730469 3.8503125 -2.24710938 3.200625 -2.79296875 2.53125 C-3.19128906 2.0259375 -3.58960938 1.520625 -4 1 C-2.68 0.67 -1.36 0.34 0 0 Z " fill="#4D949E" transform="translate(16,142)"/>
<path d="M0 0 C0.66 0 1.32 0 2 0 C4.29648649 2.5614657 5 3.47967572 5 7 C5.99 7 6.98 7 8 7 C8.33 9.31 8.66 11.62 9 14 C6.67489755 11.15820812 4.42299401 8.27173401 2.25 5.3125 C1.82203125 4.73113281 1.3940625 4.14976563 0.953125 3.55078125 C0 2 0 2 0 0 Z " fill="#4D939B" transform="translate(62,117)"/>
<path d="M0 0 C-4.95 1.98 -9.9 3.96 -15 6 C-15 5.34 -15 4.68 -15 4 C-14.34 4 -13.68 4 -13 4 C-12.67 3.01 -12.34 2.02 -12 1 C-10.68 1.33 -9.36 1.66 -8 2 C-8 1.34 -8 0.68 -8 0 C-4.71303767 -0.79953138 -3.28976808 -1.09658936 0 0 Z " fill="#59ADB4" transform="translate(153,107)"/>
<path d="M0 0 C-1.65 1.65 -3.3 3.3 -5 5 C-5.66 4.67 -6.32 4.34 -7 4 C-7.33 4.66 -7.66 5.32 -8 6 C-9.32 5.01 -10.64 4.02 -12 3 C-10.3789897 2.30314502 -8.75303934 1.61777139 -7.125 0.9375 C-6.22007812 0.55464844 -5.31515625 0.17179687 -4.3828125 -0.22265625 C-2 -1 -2 -1 0 0 Z " fill="#51B2B5" transform="translate(204,94)"/>
<path d="M0 0 C0.99 0.66 1.98 1.32 3 2 C0.03 4.97 -2.94 7.94 -6 11 C-6.33 10.01 -6.66 9.02 -7 8 C-6.360625 7.566875 -5.72125 7.13375 -5.0625 6.6875 C-2.73253997 5.08760823 -2.73253997 5.08760823 -2 2 C-1.34 2 -0.68 2 0 2 C0 1.34 0 0.68 0 0 Z " fill="#5C9FB8" transform="translate(178,202)"/>
<path d="M0 0 C1.52519276 0.08937803 3.04681929 0.24537146 4.5625 0.4375 C5.80193359 0.59025391 5.80193359 0.59025391 7.06640625 0.74609375 C7.70449219 0.82988281 8.34257812 0.91367188 9 1 C9.33 2.65 9.66 4.3 10 6 C8.53932801 5.54917531 7.08151968 5.08906463 5.625 4.625 C4.81289062 4.36976562 4.00078125 4.11453125 3.1640625 3.8515625 C1 3 1 3 -1 1 C-0.67 0.67 -0.34 0.34 0 0 Z " fill="#56ADB5" transform="translate(224,113)"/>
<path d="M0 0 C0.33 0.66 0.66 1.32 1 2 C-0.98 4.97 -2.96 7.94 -5 11 C-5.99 10.34 -6.98 9.68 -8 9 C-7.01 9 -6.02 9 -5 9 C-5.33 7.68 -5.66 6.36 -6 5 C-5.195625 4.731875 -4.39125 4.46375 -3.5625 4.1875 C-2.716875 3.795625 -1.87125 3.40375 -1 3 C-0.67 2.01 -0.34 1.02 0 0 Z " fill="#44969D" transform="translate(94,106)"/>
<path d="M0 0 C2 3 2 3 2 5 C3.32 5.33 4.64 5.66 6 6 C6 7.65 6 9.3 6 11 C2.60582235 7.87378374 0.3937282 5.43458973 -1 1 C-0.67 0.67 -0.34 0.34 0 0 Z " fill="#489A9A" transform="translate(41,84)"/>
<path d="M0 0 C0 3.86239516 -1.48857616 6.47334438 -3 10 C-3 10.99 -3 11.98 -3 13 C-3.66 12.67 -4.32 12.34 -5 12 C-4.50769231 4.61538462 -4.50769231 4.61538462 -1.9375 1.5 C-1.298125 1.005 -0.65875 0.51 0 0 Z " fill="#42A5A2" transform="translate(84,41)"/>
<path d="M0 0 C1.5 1.375 1.5 1.375 3 3 C3 3.66 3 4.32 3 5 C3.66 5.33 4.32 5.66 5 6 C2.36 5.67 -0.28 5.34 -3 5 C-1.125 1.125 -1.125 1.125 0 0 Z " fill="#4D939B" transform="translate(3,122)"/>
<path d="M0 0 C3.63 0.66 7.26 1.32 11 2 C11 2.99 11 3.98 11 5 C9.53932801 4.54917531 8.08151968 4.08906463 6.625 3.625 C5.81289062 3.36976562 5.00078125 3.11453125 4.1640625 2.8515625 C2 2 2 2 0 0 Z " fill="#54AFB2" transform="translate(193,101)"/>
<path d="M0 0 C-1.69179328 2.04219706 -2.63727666 2.91793306 -5.26171875 3.51171875 C-6.06222656 3.56972656 -6.86273438 3.62773438 -7.6875 3.6875 C-8.49574219 3.75324219 -9.30398437 3.81898437 -10.13671875 3.88671875 C-11.05904297 3.94279297 -11.05904297 3.94279297 -12 4 C-8.15336308 0.86570325 -4.95471579 -1.65157193 0 0 Z " fill="#53ACAE" transform="translate(217,89)"/>
<path d="M0 0 C0.66 0 1.32 0 2 0 C2.33 1.65 2.66 3.3 3 5 C3.99 4.67 4.98 4.34 6 4 C6.66 4.66 7.32 5.32 8 6 C7 7 7 7 4.4375 7.0625 C3.2309375 7.0315625 3.2309375 7.0315625 2 7 C1.34 4.69 0.68 2.38 0 0 Z " fill="#5CA8B6" transform="translate(172,156)"/>
<path d="M0 0 C1.875 0.25 1.875 0.25 4 1 C5.25 3.0625 5.25 3.0625 6 5 C5.01 5.33 4.02 5.66 3 6 C0.8614515 3.8614515 0.57344937 2.86724686 0 0 Z " fill="#54B6B5" transform="translate(204,78)"/>
<path d="M0 0 C0.95904856 3.83619425 0.91892116 5.32431536 0 9 C-0.99 9 -1.98 9 -3 9 C-2.01 6.03 -1.02 3.06 0 0 Z " fill="#5CA6B8" transform="translate(163,144)"/>
<path d="M0 0 C0.66 0.33 1.32 0.66 2 1 C0.35 3.64 -1.3 6.28 -3 9 C-3.66 7.68 -4.32 6.36 -5 5 C-3.625 3.5 -3.625 3.5 -2 2 C-1.34 2 -0.68 2 0 2 C0 1.34 0 0.68 0 0 Z " fill="#4D8F9C" transform="translate(61,157)"/>
<path d="M0 0 C0.66 0.33 1.32 0.66 2 1 C1.01 2.485 1.01 2.485 0 4 C-3.625 4.1875 -3.625 4.1875 -7 4 C-4.61426621 2.10786631 -2.92824652 0.97608217 0 0 Z " fill="#4A959B" transform="translate(117,130)"/>
<path d="M0 0 C2.97 0.99 5.94 1.98 9 3 C9 3.33 9 3.66 9 4 C3.48 4.368 3.48 4.368 1.125 2.5625 C0 1 0 1 0 0 Z " fill="#54ABB3" transform="translate(225,124)"/>
<path d="M0 0 C1.14926266 0.95421808 2.29430541 1.91352045 3.4375 2.875 C4.07558594 3.40867187 4.71367187 3.94234375 5.37109375 4.4921875 C7 6 7 6 8 8 C4.63820226 6.55922954 2.40843732 4.75249979 0 2 C0 1.34 0 0.68 0 0 Z " fill="#50B7BE" transform="translate(229,101)"/>
<path d="M0 0 C1.98 0 3.96 0 6 0 C5.34 1.32 4.68 2.64 4 4 C2.68 3.34 1.36 2.68 0 2 C0 1.34 0 0.68 0 0 Z " fill="#47BFC3" transform="translate(189,98)"/>
<path d="M0 0 C3.16115776 1.36983503 3.9927092 1.9890638 6 5 C4 5 2 5 0 5 C0 3.35 0 1.7 0 0 Z " fill="#53B6B2" transform="translate(185,59)"/>
<path d="M0 0 C0.33 0.99 0.66 1.98 1 3 C1.99 3 2.98 3 4 3 C4.33 3.99 4.66 4.98 5 6 C2.69 5.34 0.38 4.68 -2 4 C-1.34 2.68 -0.68 1.36 0 0 Z " fill="#44A29C" transform="translate(95,57)"/>
<path d="" fill="#55AAAA" transform="translate(0,0)"/>
</svg>
