<?xml version="1.0" encoding="UTF-8"?>
<svg version="1.1" xmlns="http://www.w3.org/2000/svg" width="500" height="500">
<path d="M0 0 C2.9280256 0.00917495 5.85525257 0.00228638 8.78320312 -0.02050781 C26.09937827 -0.15462165 42.71494356 0.39292463 59.65234375 4.44604492 C60.48851227 4.64024521 61.32468079 4.8344455 62.18618774 5.03453064 C91.00819643 11.76145887 118.11514144 23.76411756 142.71777344 40.16967773 C145.32344072 41.88881309 147.9890561 43.50556346 150.65234375 45.13354492 C158.69932588 50.27363273 165.94025379 56.40754262 172.5078125 63.32885742 C174.41406776 65.21080706 176.37076234 66.94095792 178.40234375 68.68432617 C196.30317238 84.24092491 209.53772658 102.54573655 221.21923828 122.99121094 C222.49554084 125.17744982 223.82704843 127.30759697 225.19921875 129.43432617 C238.53710417 150.56999095 246.53439527 175.15330455 251.65234375 199.44604492 C252.05948608 201.23014771 252.05948608 201.23014771 252.47485352 203.05029297 C255.42216414 217.12189017 255.14536129 231.43159954 255.09838867 245.73876953 C255.08922116 248.65996012 255.09608485 251.58034965 255.11889648 254.50146484 C255.4901032 302.2995127 242.74657426 346.69618145 216.1328125 386.64135742 C214.52892869 389.05679363 213.03940857 391.49089392 211.63671875 394.02807617 C209.56279684 397.60028419 207.26447826 400.77171948 204.71484375 404.00854492 C204.29783203 404.54672852 203.88082031 405.08491211 203.45117188 405.6394043 C199.12569586 411.19500024 194.69212946 416.51661948 189.65234375 421.44604492 C188.41508144 422.69186842 187.17955196 423.93941411 185.9453125 425.18823242 C184.57687555 426.56588887 183.20838478 427.94349186 181.83984375 429.32104492 C181.16630859 430.00295898 180.49277344 430.68487305 179.79882812 431.38745117 C175.25256747 435.95546427 170.54239491 440.25048887 165.65234375 444.44604492 C164.70230469 445.2890918 163.75226563 446.13213867 162.7734375 447.00073242 C155.76466463 453.06071944 148.42332435 457.80594837 140.40380859 462.41870117 C137.85367196 463.91451591 135.38027921 465.52164967 132.90234375 467.13354492 C100.93356753 487.63015152 60.80189 500.71706365 22.75390625 500.78198242 C21.34784829 500.78844183 19.94179155 500.79517224 18.53573608 500.80215454 C15.60273134 500.81403513 12.66984346 500.81784548 9.73681641 500.81665039 C6.78148692 500.81648873 3.82678317 500.83024984 0.87158203 500.85766602 C-47.98474831 501.30393133 -90.7023349 487.34560985 -132.16992188 461.78686523 C-133.99908975 460.6606556 -135.83649881 459.54784648 -137.67578125 458.43823242 C-144.38019883 454.31980448 -150.33788662 449.51035235 -156.34765625 444.44604492 C-157.58902344 443.47731445 -157.58902344 443.47731445 -158.85546875 442.48901367 C-161.54293069 440.28596886 -163.91667858 437.93017808 -166.34765625 435.44604492 C-167.59347036 434.20877315 -168.84101093 432.97323845 -170.08984375 431.73901367 C-171.4675002 430.37057672 -172.84510319 429.00208595 -174.22265625 427.63354492 C-175.24552734 426.62324219 -175.24552734 426.62324219 -176.2890625 425.5925293 C-180.85783692 421.04551094 -185.18476246 416.36658207 -189.34765625 411.44604492 C-190.41367065 410.20951172 -190.41367065 410.20951172 -191.5012207 408.94799805 C-197.17744091 402.22332728 -201.88637118 395.17170581 -206.41015625 387.63354492 C-207.11440859 386.46879001 -207.81900201 385.30424126 -208.52392578 384.13989258 C-209.88403135 381.88923888 -211.23725694 379.63485972 -212.58740234 377.37817383 C-213.97393069 375.0685753 -215.37879879 372.77430793 -216.8046875 370.48901367 C-234.74281268 340.86005335 -245.62462767 303.10679964 -245.68359375 268.54760742 C-245.69005316 267.14154946 -245.69678357 265.73549272 -245.70376587 264.32943726 C-245.71564646 261.39643251 -245.71945681 258.46354463 -245.71826172 255.53051758 C-245.71810006 252.57518809 -245.73186117 249.62048434 -245.75927734 246.6652832 C-245.92163279 228.88306037 -245.37089864 211.8744367 -241.34765625 194.44604492 C-240.93193359 192.58689453 -240.93193359 192.58689453 -240.5078125 190.69018555 C-239.79593786 187.72827855 -239.01031059 184.80841622 -238.16015625 181.88354492 C-237.86681396 180.85817627 -237.57347168 179.83280762 -237.27124023 178.77636719 C-227.72609425 146.51838878 -210.72803248 115.36301359 -189.34765625 89.44604492 C-188.7134375 88.63006836 -188.07921875 87.8140918 -187.42578125 86.97338867 C-185.20934979 84.27784138 -182.84241129 81.8864085 -180.34765625 79.44604492 C-179.22101112 78.3109567 -178.09612374 77.17412209 -176.97265625 76.03588867 C-175.76436254 74.81840143 -174.55602853 73.60095418 -173.34765625 72.38354492 C-172.744375 71.77188477 -172.14109375 71.16022461 -171.51953125 70.5300293 C-168.27070414 67.26354551 -164.96470675 64.3075602 -161.34765625 61.44604492 C-160.55101562 60.64682617 -159.754375 59.84760742 -158.93359375 59.02416992 C-150.13791358 50.2550628 -139.80878301 43.63204239 -129.10009766 37.47827148 C-126.50280306 35.9484078 -123.99904981 34.27722266 -121.47265625 32.63354492 C-98.35038536 18.39569339 -72.82529688 9.02471658 -46.34765625 3.44604492 C-45.15897949 3.1746167 -43.97030273 2.90318848 -42.74560547 2.62353516 C-28.65633331 -0.32890881 -14.32535401 -0.0469655 0 0 Z M67.77734375 154.88354492 C65.57864323 157.93729564 65.50092873 160.85467957 65.41096497 164.48449707 C65.38357742 165.52661346 65.35618988 166.56872986 65.32797241 167.64242554 C65.30328888 168.78611603 65.27860535 169.92980652 65.25317383 171.1081543 C65.22411453 172.3136795 65.19505524 173.51920471 65.16511536 174.76126099 C64.90967093 185.95986993 64.75594675 197.1600635 64.63759327 208.36089325 C64.55636754 215.87139937 64.44189327 223.37816845 64.23950195 230.88647461 C64.06247359 237.45488885 63.95259501 244.02068644 63.91808051 250.59144831 C63.89780442 254.05671157 63.84853743 257.51491991 63.71863747 260.97795105 C62.99697448 282.80367178 68.46320757 294.90068304 81.50238609 311.58187866 C84.61319742 315.7260909 87.193696 320.11392355 89.71484375 324.63354492 C91.00286601 326.92207092 92.30663032 329.19046378 93.65234375 331.44604492 C93.98234375 331.44604492 94.31234375 331.44604492 94.65234375 331.44604492 C94.72239906 308.97602253 94.77531488 286.50601812 94.80778027 264.0359087 C94.82325461 253.60284082 94.84435501 243.16984076 94.87866211 232.73681641 C94.90854705 223.64427336 94.92791462 214.55177943 94.93460923 205.45918864 C94.93852302 200.64392721 94.9477328 195.82880629 94.96953392 191.01358986 C94.98988474 186.48201854 94.99618039 181.95064573 94.99166679 177.41903305 C94.99249262 175.75535059 94.99846666 174.09166154 95.00996017 172.42801857 C95.02488258 170.15679037 95.02129867 167.88631202 95.0131073 165.61506653 C95.01725537 163.70833774 95.01725537 163.70833774 95.02148724 161.76308918 C94.62035213 158.15857504 93.88182121 156.28359155 91.65234375 153.44604492 C84.33859988 150.43450333 74.37964817 149.8217782 67.77734375 154.88354492 Z M-85.9334259 161.47390747 C-88.18526384 164.6140847 -87.78666881 168.03974903 -87.7800293 171.76586914 C-87.79020395 172.62337234 -87.80037861 173.48087553 -87.81086159 174.36436367 C-87.84128192 177.24321679 -87.85030112 180.12173866 -87.859375 183.00073242 C-87.87655886 185.0533299 -87.8949945 187.10591723 -87.91459656 189.15849304 C-87.9635648 194.72138812 -87.99337642 200.28423007 -88.01842499 205.84727859 C-88.04070345 210.47276109 -88.07157491 215.09817045 -88.10230637 219.72360325 C-88.17351144 230.48471737 -88.22926782 241.2458338 -88.27587891 252.00708008 C-88.32221481 262.58682827 -88.39833588 273.1660175 -88.49278736 283.74543762 C-88.56946537 292.42419426 -88.62793789 301.10293299 -88.67107677 309.78192139 C-88.69680754 314.89448588 -88.73021632 320.00671471 -88.7828064 325.11907959 C-88.83134623 329.90637419 -88.85585366 334.69319109 -88.86167336 339.48072243 C-88.86787094 341.22855695 -88.88263665 342.97638569 -88.90668297 344.72406578 C-88.9381201 347.10407083 -88.93852138 349.48214878 -88.93115234 351.86230469 C-88.94756114 352.54876509 -88.96396994 353.23522549 -88.98087597 353.94248772 C-88.90947413 359.44808441 -87.08856588 361.70515734 -83.34765625 365.44604492 C-80.42305196 366.90834707 -77.79112801 366.65513219 -74.53515625 366.69604492 C-73.31183594 366.72182617 -72.08851563 366.74760742 -70.828125 366.77416992 C-66.13890016 366.33208812 -63.62812442 364.72651309 -60.34765625 361.44604492 C-58.6767455 353.72730932 -59.21180844 345.39773031 -59.23413086 337.55102539 C-59.23441353 336.18010968 -59.23425344 334.80919382 -59.23368835 333.4382782 C-59.23340349 329.74682581 -59.23924974 326.05540646 -59.24626231 322.3639617 C-59.25254781 318.49493169 -59.25310374 314.62590078 -59.25428772 310.75686646 C-59.25738579 303.443795 -59.2655785 296.13073864 -59.27563721 288.8176738 C-59.28684585 280.48628449 -59.29232073 272.15489443 -59.29733264 263.82349944 C-59.3077625 246.69767256 -59.32533222 229.57186034 -59.34765625 212.44604492 C-58.35765625 212.44604492 -57.36765625 212.44604492 -56.34765625 212.44604492 C-55.99960938 213.21368164 -55.99960938 213.21368164 -55.64453125 213.99682617 C-53.86140197 217.36436249 -51.72727967 220.47959543 -49.59765625 223.63354492 C-49.1495459 224.30192383 -48.70143555 224.97030273 -48.23974609 225.65893555 C-46.33123065 228.50483443 -44.41547644 231.34574544 -42.49609375 234.18432617 C-40.37534973 237.33281536 -38.35919049 240.4249651 -36.53515625 243.75854492 C-34.74062553 246.98137561 -32.58821094 249.83013591 -30.34765625 252.75854492 C-25.95963548 258.52051974 -21.9317193 264.47076255 -17.94262695 270.51391602 C-14.53185591 275.67912308 -11.06062651 280.79601827 -7.53515625 285.88354492 C-3.90510063 291.13157184 -0.39691288 296.43358026 3 301.83666992 C11.44927037 315.17972573 20.36684427 328.38817011 29.77734375 341.07104492 C33.10272769 345.57504595 36.13483682 350.23365458 39.15234375 354.94604492 C45.94452488 365.5296927 53.41901934 375.446343 61.16723633 385.3425293 C66.41019387 392.06887037 71.4108831 398.95027833 76.375 405.88354492 C81.46320135 412.98776837 86.67522769 420.00115342 91.86865234 427.02856445 C93.68210995 429.48638778 95.49022126 431.94806061 97.296875 434.41088867 C103.97393354 443.50877436 110.68253035 452.56951732 117.65234375 461.44604492 C118.23628906 462.22077148 118.82023438 462.99549805 119.421875 463.79370117 C122.24966564 467.48913747 122.24966564 467.48913747 126.52734375 468.88354492 C127.22859375 468.73916992 127.92984375 468.59479492 128.65234375 468.44604492 C128.65234375 467.45604492 128.65234375 466.46604492 128.65234375 465.44604492 C129.76609375 465.04385742 129.76609375 465.04385742 130.90234375 464.63354492 C133.51870929 463.50375071 135.45421486 462.23711291 137.65234375 460.44604492 C131.05162849 446.96318139 122.11565946 434.58191134 113.6328125 422.24682617 C104.34453378 408.73974624 95.14449892 395.19918141 86.86206055 381.04882812 C84.77729074 377.57982245 82.46522145 374.29791892 80.078125 371.03198242 C74.43251292 363.21281926 69.05571887 355.22533042 63.71484375 347.19604492 C63.23167694 346.47138031 62.74851013 345.7467157 62.2507019 345.00009155 C56.4766882 336.33471798 50.81760943 327.63327412 45.48046875 318.69018555 C41.52505906 312.11243937 37.19916346 305.8073832 32.85009766 299.48535156 C27.64845515 291.9224802 22.51372306 284.31742951 17.41720581 276.68347168 C16.54425613 275.37642547 15.67036092 274.07001019 14.79544067 272.76428223 C7.03978463 261.18791715 7.03978463 261.18791715 3.5625 255.24291992 C0.8921055 250.7039453 -2.16526014 246.52942299 -5.29492188 242.29858398 C-8.78491142 237.44879357 -11.92123416 232.37933834 -15.09765625 227.32104492 C-20.33135819 219.05104827 -25.66380152 210.90438493 -31.45410156 203.01196289 C-33.76954652 199.82675261 -35.83862931 196.64348008 -37.7109375 193.17651367 C-40.72362254 187.62037595 -44.26979012 182.4623918 -47.84765625 177.25854492 C-48.49863281 176.30012695 -49.14960938 175.34170898 -49.8203125 174.35424805 C-55.0236236 165.81381034 -55.0236236 165.81381034 -62.34765625 159.44604492 C-74.54181046 157.69674906 -74.54181046 157.69674906 -85.9334259 161.47390747 Z " fill="#000000" transform="translate(245.34765625,-0.446044921875)"/>
</svg>
