<?xml version="1.0" encoding="UTF-8"?>
<svg version="1.1" xmlns="http://www.w3.org/2000/svg" width="500" height="500">
<path d="M0 0 C1.69196251 -0.01210762 1.69196251 -0.01210762 3.41810608 -0.02445984 C5.80761199 -0.0382531 8.19713722 -0.04899639 10.58666992 -0.05688477 C12.98028526 -0.06829594 15.37387742 -0.08857036 17.76733398 -0.1184082 C49.67330019 -0.51498955 79.67458958 5.41641272 109.28515625 17.23828125 C110.46851563 17.6971875 111.651875 18.15609375 112.87109375 18.62890625 C143.85682566 31.19654576 170.33004118 51.29312281 194.28515625 74.23828125 C195.20941406 75.12 196.13367188 76.00171875 197.0859375 76.91015625 C201.07354601 80.79152297 201.07354601 80.79152297 202.28515625 82.23828125 C202.28515625 82.89828125 202.28515625 83.55828125 202.28515625 84.23828125 C203.27515625 84.56828125 204.26515625 84.89828125 205.28515625 85.23828125 C207.00150298 87.09436594 208.55317052 88.93326609 210.09765625 90.92578125 C210.57122559 91.53301025 211.04479492 92.14023926 211.53271484 92.76586914 C217.82157761 101.02291679 223.25274159 109.85895857 228.70166016 118.68212891 C230.071202 120.89290645 231.45987685 123.08939305 232.859375 125.28125 C246.5311669 146.96192701 255.80806159 172.26874519 261.28515625 197.23828125 C261.48125488 198.0689209 261.67735352 198.89956055 261.87939453 199.75537109 C265.62274655 216.17653508 265.68277027 232.66847861 265.72265625 249.42578125 C265.72882965 250.52695282 265.73500305 251.62812439 265.74136353 252.76266479 C265.91773472 301.77517166 251.88742233 346.19776713 225.484375 387.36621094 C224.39911638 389.06038095 223.32579791 390.76218507 222.25390625 392.46484375 C210.55295788 410.63967749 194.68415858 427.23207015 178.28515625 441.23828125 C177.4353418 441.9645874 177.4353418 441.9645874 176.56835938 442.70556641 C167.91157516 450.02529573 158.88296864 456.29346844 149.15917969 462.10644531 C147.40724023 463.16454736 145.67725006 464.25875567 143.94921875 465.35546875 C110.10350503 486.83287227 69.47117834 500.15919899 29.28515625 500.4765625 C28.25941498 500.48635635 27.23367371 500.49615021 26.17684937 500.50624084 C-15.72593993 500.82434305 -15.72593993 500.82434305 -35.71484375 496.23828125 C-37.19017578 495.92479736 -37.19017578 495.92479736 -38.6953125 495.60498047 C-54.25147659 492.28112018 -69.02454252 487.3102011 -83.71484375 481.23828125 C-84.49408203 480.91633789 -85.27332031 480.59439453 -86.07617188 480.26269531 C-97.91894672 475.26205982 -108.66156967 468.58600265 -119.46826172 461.66845703 C-121.29909014 460.5029503 -123.1471704 459.36457902 -125 458.234375 C-136.22468598 451.37392628 -146.14388429 443.1500443 -155.2734375 433.71484375 C-157.32847007 431.63021871 -159.40723207 429.73497599 -161.65234375 427.86328125 C-178.41547711 413.46067075 -190.50263498 395.03443565 -201.71484375 376.23828125 C-202.47621839 374.98676976 -203.23789537 373.7354421 -204 372.484375 C-215.31856443 353.42508262 -223.68292655 332.36053511 -228.96484375 310.86328125 C-229.19905029 309.92073486 -229.43325684 308.97818848 -229.67456055 308.00708008 C-233.8848756 289.96869553 -235.20694708 272.22527563 -235.10595703 253.73632812 C-235.08985992 250.24179065 -235.10591238 246.74840925 -235.125 243.25390625 C-235.16824013 195.61462048 -219.81250091 150.92249344 -193.71484375 111.23828125 C-192.95263771 110.04671563 -192.19202147 108.85413032 -191.43359375 107.66015625 C-179.50514338 89.19945925 -163.63397761 72.28059269 -146.71484375 58.23828125 C-146.18084961 57.7798584 -145.64685547 57.32143555 -145.09667969 56.84912109 C-135.83557448 48.90219196 -126.39459774 42.25809518 -115.71826172 36.35400391 C-113.828323 35.30147893 -111.95858117 34.22126351 -110.09375 33.125 C-81.92992637 16.66147087 -52.01909516 6.03816955 -19.71484375 1.23828125 C-18.53631836 1.06248535 -17.35779297 0.88668945 -16.14355469 0.70556641 C-10.77354663 0.04993975 -5.40389343 0.03760661 0 0 Z " fill="#F1F1F1" transform="translate(234.71484375,-0.23828125)"/>
<path d="M0 0 C4.52426773 1.50808924 8.66534667 3.09275253 13 5 C13 5.66 13 6.32 13 7 C13.83273437 7.2475 14.66546875 7.495 15.5234375 7.75 C19.46012563 9.16543843 22.9678817 10.98931344 26.625 13 C32.2745803 16.07239324 32.2745803 16.07239324 38 19 C38.44456199 38.75776117 38.77922724 58.51450327 38.98443127 78.27623463 C39.0822627 87.45303172 39.2155222 96.62671574 39.43334961 105.80151367 C39.62320604 113.80202524 39.7454092 121.80028282 39.7876814 129.80298442 C39.81238613 134.03882765 39.87004229 138.26822586 40.00887108 142.50199318 C40.82105566 168.24516462 40.82105566 168.24516462 36.14451599 174.46965599 C31.69530094 178.32733853 26.82171833 180.45807996 21.25362873 182.23129749 C18.11370242 183.30231207 15.58271844 184.85870885 12.7890625 186.63671875 C11.92337646 187.14759033 11.05769043 187.65846191 10.16577148 188.18481445 C9.32731689 188.68070068 8.4888623 189.17658691 7.625 189.6875 C6.70726807 190.22785889 5.78953613 190.76821777 4.84399414 191.32495117 C0.82583709 193.69830246 -3.17454659 196.085851 -7.10546875 198.6015625 C-7.70117676 198.98094971 -8.29688477 199.36033691 -8.91064453 199.7512207 C-10.42774169 200.72592087 -11.9350839 201.71576077 -13.44140625 202.70703125 C-16.35823803 204.18103326 -17.77239952 204.29453048 -21 204 C-23.36499023 202.93359375 -23.36499023 202.93359375 -25.80859375 201.4375 C-26.71327393 200.89198486 -27.6179541 200.34646973 -28.55004883 199.78442383 C-29.50290771 199.19556396 -30.4557666 198.6067041 -31.4375 198 C-33.4292303 196.79481702 -35.42141706 195.59038805 -37.4140625 194.38671875 C-38.37731445 193.80067871 -39.34056641 193.21463867 -40.33300781 192.61083984 C-43.62921254 190.61996116 -46.96023989 188.70742559 -50.3125 186.8125 C-55.67002822 183.76963203 -60.99829183 180.68020568 -66.3125 177.5625 C-67.06120361 177.12462158 -67.80990723 176.68674316 -68.58129883 176.2355957 C-73.88092017 173.11907983 -73.88092017 173.11907983 -75 172 C-75.16236772 170.01932609 -75.25471112 168.03288177 -75.31982422 166.04663086 C-75.36170868 164.77117905 -75.40359314 163.49572723 -75.44674683 162.18162537 C-75.5845778 157.09093761 -75.68222888 151.99953066 -75.75568962 146.90752316 C-75.81223075 143.04277808 -75.89355492 139.18220631 -76.03564453 135.31958008 C-76.17252607 131.58321528 -76.24458794 127.85062482 -76.27234268 124.11190987 C-76.29373693 122.69174869 -76.33762886 121.2717311 -76.405056 119.85301018 C-76.6119881 115.2869081 -76.54490504 111.32355059 -75 107 C-71.0320942 103.32993507 -66.91954397 101.25708618 -62 99 C-60.44951317 98.10944491 -58.90710075 97.20422003 -57.3828125 96.26953125 C-53.50456068 94.02191821 -49.61302033 91.79736602 -45.72265625 89.57080078 C-42.75154094 87.85665481 -39.79784367 86.11439529 -36.84375 84.37109375 C-34.77110979 83.16358784 -32.69819738 81.95654904 -30.625 80.75 C-29.64418457 80.16452393 -28.66336914 79.57904785 -27.65283203 78.97583008 C-26.72841309 78.4423999 -25.80399414 77.90896973 -24.8515625 77.359375 C-24.03510254 76.87952148 -23.21864258 76.39966797 -22.37744141 75.90527344 C-19.44833275 74.78993816 -17.95857153 75.066966 -15 76 C-12.24609375 77.59375 -12.24609375 77.59375 -9.4375 79.5 C-6.07660556 81.77478015 -3.99173658 83.00206586 0 84 C0 56.28 0 28.56 0 0 Z " fill="#353535" transform="translate(338,98)"/>
<path d="M0 0 C1.96484375 0.91015625 1.96484375 0.91015625 3.9375 2.0625 C4.72769531 2.51753906 5.51789063 2.97257813 6.33203125 3.44140625 C7.65267578 4.21291016 7.65267578 4.21291016 9 5 C11.0408164 6.16815337 13.0825757 7.3346602 15.125 8.5 C15.97783569 8.98895752 15.97783569 8.98895752 16.84790039 9.48779297 C20.80049362 11.75251082 24.76431634 13.99649828 28.734375 16.23046875 C29.74612793 16.80023438 30.75788086 17.37 31.80029297 17.95703125 C33.80886938 19.08747349 35.81827453 20.21644482 37.82861328 21.34375 C39.23989502 22.13845703 39.23989502 22.13845703 40.6796875 22.94921875 C41.51226074 23.41674561 42.34483398 23.88427246 43.20263672 24.3659668 C44.1257666 24.90519775 45.04889648 25.44442871 46 26 C46.67888275 26.264711 47.3577655 26.529422 48.05722046 26.80215454 C50.57188522 27.95422918 52.14090344 28.9361824 54 31 C55.38017392 35.68392695 55.46979247 40.39811347 55.5546875 45.25 C55.59569657 46.66903426 55.63697101 48.08806086 55.67849731 49.50708008 C55.75340476 52.48305136 55.79223802 55.45726699 55.81201172 58.43408203 C55.83815019 61.47044644 55.93487473 64.49095476 56.09912109 67.52294922 C57.38573483 91.71419181 57.38573483 91.71419181 51.97741699 98.56027222 C46.82425467 102.89178178 40.99640534 105.46684159 34.76080322 107.88299561 C30.96465132 109.41889585 27.61055786 111.45176874 24.15625 113.62890625 C23.03605469 114.29083984 21.91585937 114.95277344 20.76171875 115.63476562 C19.68535156 116.27091797 18.60898438 116.90707031 17.5 117.5625 C16.64849365 118.06438843 16.64849365 118.06438843 15.77978516 118.57641602 C14.09184014 119.57149798 12.40527725 120.56892325 10.71875 121.56640625 C9.27918945 122.41634155 9.27918945 122.41634155 7.81054688 123.28344727 C4.89477833 125.01023335 4.89477833 125.01023335 1.89257812 127.27709961 C-1 129 -1 129 -3.02587891 128.94360352 C-5.62159797 127.70288447 -8.10079318 126.35470348 -10.5859375 124.90234375 C-11.67487305 124.26949463 -12.76380859 123.63664551 -13.88574219 122.98461914 C-15.04885944 122.30229947 -16.21194478 121.61992541 -17.375 120.9375 C-18.56382149 120.24483567 -19.75295013 119.55269825 -20.94238281 118.86108398 C-23.26645125 117.50927242 -25.58916032 116.15522394 -27.91113281 114.79980469 C-31.51318145 112.70098217 -35.12783645 110.62638724 -38.75 108.5625 C-45.50287002 104.71336409 -52.25128168 100.85641047 -59 97 C-59 74.89 -59 52.78 -59 30 C-53.72 27.03 -48.44 24.06 -43 21 C-38.65267921 18.35208643 -34.31910618 15.69235622 -30 13 C-28.1700782 11.86945927 -26.33700187 10.74399966 -24.5 9.625 C-23.7471875 9.16351563 -22.994375 8.70203125 -22.21875 8.2265625 C-20 7 -20 7 -17.53125 6.03515625 C-13.88049355 4.54217715 -10.77197811 2.32755415 -7.5 0.14453125 C-4.43288876 -1.25963062 -3.16403287 -1.04621312 0 0 Z " fill="#6BA55B" transform="translate(184,174)"/>
<path d="M0 0 C2.00552777 1.04190129 3.98188646 2.14061995 5.9375 3.2734375 C7.07960938 3.9334375 8.22171875 4.5934375 9.3984375 5.2734375 C10.28547363 5.79115723 10.28547363 5.79115723 11.19042969 6.31933594 C12.99087571 7.36967709 14.79578865 8.41197583 16.6015625 9.453125 C27.56299665 15.80625868 27.56299665 15.80625868 30 18 C30 18.99 30 19.98 30 21 C30.66 21 31.32 21 32 21 C32 21.66 32 22.32 32 23 C32.66 23 33.32 23 34 23 C35.28870965 30.59687484 36.46097552 38.20170435 37.52392578 45.83349609 C37.91070347 48.40606363 38.385091 50.91630782 38.93359375 53.45703125 C39.50755555 57.42137203 39.72947004 59.36181512 38 63 C32.96630787 67.43055245 23.94187153 74 17 74 C17 66.41 17 58.82 17 51 C15.35 50.67 13.7 50.34 12 50 C8.99024142 48.28959322 6.06924497 46.51047935 3.171875 44.61914062 C-0.39411111 42.39396457 -0.39411111 42.39396457 -4.44921875 42.50390625 C-5.29097656 42.99761719 -6.13273437 43.49132812 -7 44 C-8.25496407 44.6514252 -9.51162318 45.2995905 -10.76953125 45.9453125 C-12.11887826 46.66873014 -13.46621356 47.39590244 -14.8125 48.125 C-17.184375 49.40375 -19.55625 50.6825 -22 52 C-22 59.59 -22 67.18 -22 75 C-20.50210938 75.845625 -19.00421875 76.69125 -17.4609375 77.5625 C-11.30551462 81.03852767 -5.15239829 84.51862239 1 88 C1.7331543 88.41443359 2.46630859 88.82886719 3.22167969 89.25585938 C10.59386064 93.42621212 17.89570248 97.69439939 25.1171875 102.12011719 C27.73076091 103.70895439 30.0865139 105.02883797 33 106 C31.74072901 109.77781298 30.64885696 110.0465387 27.22265625 111.92578125 C26.23330078 112.47556641 25.24394531 113.02535156 24.22460938 113.59179688 C23.18111328 114.15962891 22.13761719 114.72746094 21.0625 115.3125 C19.03183114 116.43228736 17.00187733 117.55337243 14.97265625 118.67578125 C13.4724292 119.4948999 13.4724292 119.4948999 11.94189453 120.33056641 C8.30097165 122.39667684 4.81410255 124.67183828 1.34936523 127.02026367 C-1.86715068 128.36162067 -3.66720314 127.92686935 -7 127 C-9.76293945 125.63989258 -9.76293945 125.63989258 -12.61328125 123.89453125 C-14.24233398 122.91129883 -14.24233398 122.91129883 -15.90429688 121.90820312 C-17.04076982 121.21029488 -18.17684077 120.51173158 -19.3125 119.8125 C-21.49374537 118.48181996 -23.67746616 117.15519152 -25.86328125 115.83203125 C-26.44038849 115.48262482 -27.01749573 115.13321838 -27.61209106 114.77322388 C-37.92175822 108.58822248 -48.49126528 102.83737368 -59 97 C-59.20884949 88.49857851 -59.36859675 79.99823405 -59.46630955 71.49487877 C-59.51321686 67.54595508 -59.57679045 63.59879017 -59.67895508 59.65087891 C-59.77699952 55.83817006 -59.83060624 52.0271483 -59.85389519 48.21327591 C-59.87048204 46.76101742 -59.90287767 45.30884797 -59.95157051 43.85731125 C-60.31740715 32.49624084 -60.31740715 32.49624084 -57.08425903 28.82420349 C-54.77608231 27.26039768 -52.55162763 26.1121289 -50 25 C-48.59098278 24.19743699 -47.18850699 23.38312572 -45.796875 22.55078125 C-44.44999942 21.80093417 -43.10105311 21.05479372 -41.75 20.3125 C-40.39026734 19.55923901 -39.0308839 18.80534724 -37.671875 18.05078125 C-37.0850293 17.72762939 -36.49818359 17.40447754 -35.89355469 17.0715332 C-33.56973828 15.75652157 -31.28869378 14.37516594 -29 13 C-25.48824808 10.96331786 -21.96207825 8.95188935 -18.4375 6.9375 C-17.01920898 6.12442383 -17.01920898 6.12442383 -15.57226562 5.29492188 C-14.20424805 4.5127832 -14.20424805 4.5127832 -12.80859375 3.71484375 C-11.98157959 3.24167725 -11.15456543 2.76851074 -10.30249023 2.28100586 C-9.54266846 1.85827393 -8.78284668 1.43554199 -8 1 C-7.32332275 0.59338135 -6.64664551 0.1867627 -5.94946289 -0.23217773 C-3.42264979 -1.22739717 -2.52105619 -0.98602083 0 0 Z " fill="#353535" transform="translate(462,174)"/>
<path d="M0 0 C4.14065133 1.51213515 7.7792519 3.73693071 11.55078125 6 C13.24686378 7.00090214 14.94348802 8.00088684 16.640625 9 C17.49124512 9.50273437 18.34186523 10.00546875 19.21826172 10.5234375 C23.63411194 13.11082969 28.10431177 15.6000519 32.57348633 18.09375 C35.99725547 20.0079791 39.38058657 21.97251024 42.73828125 24 C45.88677229 25.82996053 49.0385831 27.65407693 52.19140625 29.4765625 C54.73828125 31 54.73828125 31 55.73828125 32 C55.83339391 34.64738089 55.8638376 37.26859001 55.85180664 39.91625977 C55.85195267 40.74545929 55.85209869 41.57465881 55.85224915 42.4289856 C55.85154976 45.18315198 55.84375618 47.93725161 55.8359375 50.69140625 C55.83407341 52.59569766 55.83264947 54.49998955 55.83164978 56.40428162 C55.82782388 61.42667963 55.81799298 66.44904892 55.8069458 71.47143555 C55.79673323 76.5922812 55.79215249 81.71313148 55.78710938 86.83398438 C55.77637078 96.88933557 55.75929349 106.9446654 55.73828125 117 C51.88291745 115.75619601 48.5984371 114.48514241 45.17578125 112.3125 C40.23080155 109.25451859 35.15812685 106.51143024 30.01171875 103.80859375 C28.39136719 102.91333984 28.39136719 102.91333984 26.73828125 102 C26.06435333 101.70064545 25.39042542 101.40129089 24.69607544 101.09286499 C22.36706582 99.92464423 20.60245498 98.82937745 18.73828125 97 C17.62945099 93.54753534 17.80212607 90.26394131 17.95703125 86.66796875 C17.96835083 85.67622147 17.97967041 84.68447418 17.99133301 83.66267395 C18.03603542 80.50229769 18.13638582 77.34649877 18.23828125 74.1875 C18.27841621 72.04238335 18.31491696 69.8971954 18.34765625 67.75195312 C18.43574792 62.49974657 18.56951713 57.25020019 18.73828125 52 C17.34609375 51.56059082 17.34609375 51.56059082 15.92578125 51.11230469 C11.40142242 49.53349197 7.71805941 46.89808243 3.73828125 44.265625 C-0.19141969 42.60778242 -1.35937621 43.42848434 -5.26171875 45 C-7.5757536 46.16492415 -9.86767121 47.3747085 -12.13671875 48.625 C-13.28914063 49.25664062 -14.4415625 49.88828125 -15.62890625 50.5390625 C-16.49773438 51.02117187 -17.3665625 51.50328125 -18.26171875 52 C-18.18727539 53.30557861 -18.11283203 54.61115723 -18.03613281 55.95629883 C-16.21419245 92.02811619 -16.21419245 92.02811619 -21.23974609 100.22705078 C-26.21469222 104.74785244 -32.5453993 107.40245983 -39.26171875 108 C-41.26171875 107 -41.26171875 107 -42.26171875 104 C-42.36397895 102.34750442 -42.41013991 100.69125233 -42.42285156 99.03564453 C-42.43245911 98.02253204 -42.44206665 97.00941956 -42.45196533 95.96560669 C-42.45621521 94.86578461 -42.46046509 93.76596252 -42.46484375 92.6328125 C-42.47054382 91.48827606 -42.4762439 90.34373962 -42.4821167 89.16452026 C-42.49158015 86.72834193 -42.498106 84.29215071 -42.50195312 81.85595703 C-42.51151746 78.20190406 -42.54246713 74.54844868 -42.57421875 70.89453125 C-42.64549128 54.93465273 -41.52177196 39.6332576 -38.26171875 24 C-37.60171875 24 -36.94171875 24 -36.26171875 24 C-36.15859375 23.360625 -36.05546875 22.72125 -35.94921875 22.0625 C-35.72234375 21.381875 -35.49546875 20.70125 -35.26171875 20 C-34.27171875 19.67 -33.28171875 19.34 -32.26171875 19 C-30.9261409 17.66891497 -29.59305089 16.33533152 -28.26171875 15 C-26.69442297 13.97347195 -25.08817201 13.00460994 -23.453125 12.08984375 C-22.08510742 11.31737305 -22.08510742 11.31737305 -20.68945312 10.52929688 C-19.27116211 9.74135742 -19.27116211 9.74135742 -17.82421875 8.9375 C-15.95031907 7.88447355 -14.07661486 6.83109916 -12.203125 5.77734375 C-11.37498291 5.31577881 -10.54684082 4.85421387 -9.69360352 4.37866211 C-7.97025839 3.40167888 -6.27231994 2.37924868 -4.59423828 1.32641602 C-2.26171875 0 -2.26171875 0 0 0 Z " fill="#363636" transform="translate(42.26171875,173)"/>
<path d="M0 0 C3.63985222 1.16351712 6.71434491 3.0210826 9.94921875 5.0078125 C11.45628815 5.9126971 12.96415605 6.81625264 14.47265625 7.71875 C15.72127441 8.46850098 15.72127441 8.46850098 16.99511719 9.23339844 C22.32791439 12.412747 27.70123327 15.52203561 33.07421875 18.6328125 C34.14631592 19.25816895 35.21841309 19.88352539 36.32299805 20.52783203 C37.37140869 21.13481934 38.41981934 21.74180664 39.5 22.3671875 C40.877323 23.16721191 40.877323 23.16721191 42.2824707 23.98339844 C47.36692708 26.75913843 52.58048884 29.29219755 57.76171875 31.8828125 C57.76171875 54.3228125 57.76171875 76.7628125 57.76171875 99.8828125 C51.82171875 103.1828125 45.88171875 106.4828125 39.76171875 109.8828125 C36.03998909 112.03163951 32.33015819 114.18748368 28.63671875 116.3828125 C27.26495483 117.19129639 27.26495483 117.19129639 25.86547852 118.01611328 C21.5189502 120.59084951 17.21572383 123.20828592 12.984375 125.96875 C12.25557129 126.44119141 11.52676758 126.91363281 10.77587891 127.40039062 C9.43200095 128.27882484 8.09633768 129.17001278 6.77099609 130.07617188 C2.38278583 132.94671813 2.38278583 132.94671813 -0.64892578 132.63476562 C-5.16408851 131.32355488 -9.00675111 128.8600448 -13.05078125 126.5078125 C-13.93443359 126.0128125 -14.81808594 125.5178125 -15.72851562 125.0078125 C-16.56318359 124.52570313 -17.39785156 124.04359375 -18.2578125 123.546875 C-19.40407104 122.88872803 -19.40407104 122.88872803 -20.57348633 122.21728516 C-21.12286865 121.77690918 -21.67225098 121.3365332 -22.23828125 120.8828125 C-22.23828125 119.8928125 -22.23828125 118.9028125 -22.23828125 117.8828125 C-18.09548698 115.81141536 -15.68333999 115.54090798 -11.23828125 116.8828125 C-8.66739981 118.44931422 -6.16977856 120.07451343 -3.703125 121.80078125 C-1.28572237 123.18770264 -1.28572237 123.18770264 1.1262207 122.11621094 C3.64691743 120.93653888 6.00797885 119.66056324 8.39453125 118.23046875 C9.71445068 117.44410034 9.71445068 117.44410034 11.06103516 116.6418457 C11.99351074 116.08198975 12.92598633 115.52213379 13.88671875 114.9453125 C15.85506266 113.77275553 17.82382084 112.60089374 19.79296875 111.4296875 C20.78554688 110.83865234 21.778125 110.24761719 22.80078125 109.63867188 C27.31319087 106.96277725 31.846813 104.3242181 36.38671875 101.6953125 C37.17320801 101.23842041 37.95969727 100.78152832 38.77001953 100.31079102 C39.86805908 99.67548462 39.86805908 99.67548462 40.98828125 99.02734375 C41.62330566 98.65971924 42.25833008 98.29209473 42.91259766 97.91333008 C44.83070239 96.84436783 46.79768086 95.86483144 48.76171875 94.8828125 C49.09171875 75.7428125 49.42171875 56.6028125 49.76171875 36.8828125 C47.78171875 36.2228125 45.80171875 35.5628125 43.76171875 34.8828125 C42.16998237 34.01790828 40.60585732 33.10016317 39.07421875 32.1328125 C35.74157075 30.07817111 32.39915663 28.10873155 28.94921875 26.2578125 C19.7849732 21.31708881 10.79050001 16.06546622 1.76171875 10.8828125 C1.76171875 10.2228125 1.76171875 9.5628125 1.76171875 8.8828125 C-3.46908312 11.02423595 -8.37514593 13.49113891 -13.30078125 16.2578125 C-14.06156982 16.68191406 -14.8223584 17.10601562 -15.60620117 17.54296875 C-23.11351812 21.75654377 -30.5135441 26.15149331 -37.88891602 30.59130859 C-38.77377686 31.12062988 -39.6586377 31.64995117 -40.5703125 32.1953125 C-41.35124268 32.66582031 -42.13217285 33.13632812 -42.93676758 33.62109375 C-45.23828125 34.8828125 -45.23828125 34.8828125 -50.23828125 36.8828125 C-50.23828125 56.3528125 -50.23828125 75.8228125 -50.23828125 95.8828125 C-48.58828125 96.5428125 -46.93828125 97.2028125 -45.23828125 97.8828125 C-43.76906913 98.73942027 -42.31043461 99.61444346 -40.86328125 100.5078125 C-36.81377126 102.77176484 -33.94183676 103.80507829 -29.23828125 102.8828125 C-26.47662913 100.65558312 -25.36995067 98.78081257 -24.85437012 95.26449585 C-24.6772611 91.88611128 -24.63237256 88.52758064 -24.62890625 85.14453125 C-24.61237 83.90862747 -24.59583374 82.67272369 -24.57879639 81.39936829 C-24.53850155 78.12616299 -24.51514675 74.85341718 -24.50006104 71.58001709 C-24.48045322 68.23480197 -24.43815457 64.88995874 -24.3984375 61.54492188 C-24.32449417 54.99095561 -24.27288743 48.43709814 -24.23828125 41.8828125 C-21.59828125 41.8828125 -18.95828125 41.8828125 -16.23828125 41.8828125 C-16.09877443 49.56739248 -15.99240525 57.25183988 -15.92740822 64.93740082 C-15.8961993 68.50690185 -15.85392426 72.0755316 -15.78564453 75.64453125 C-15.72006934 79.09406492 -15.68449683 82.54276492 -15.66901779 85.99287415 C-15.65266486 87.9383599 -15.60588617 89.88351383 -15.5585022 91.82849121 C-15.55590691 98.7042606 -16.04329292 103.12692025 -20.61679077 108.42028809 C-24.48125551 111.90589229 -27.77800782 112.94947042 -32.91796875 112.71484375 C-37.81707827 112.01166282 -41.71449568 109.90659801 -45.98828125 107.5078125 C-46.72949219 107.10820312 -47.47070312 106.70859375 -48.234375 106.296875 C-50.26064847 105.1909735 -52.26724255 104.08450371 -54.23828125 102.8828125 C-54.92784912 102.49984512 -55.61741699 102.11687775 -56.32788086 101.7223053 C-58.23828125 99.8828125 -58.23828125 99.8828125 -58.71929932 96.94050598 C-58.71041687 95.73915512 -58.70153442 94.53780426 -58.69238281 93.30004883 C-58.69296692 92.63636795 -58.69355103 91.97268707 -58.69415283 91.28889465 C-58.69136788 89.09701069 -58.66026 86.90648984 -58.62890625 84.71484375 C-58.62144524 83.19456221 -58.61575164 81.67427104 -58.61175537 80.15397644 C-58.59648779 76.15391454 -58.55719707 72.15443426 -58.51293945 68.15460205 C-58.47201052 64.07254912 -58.45374949 59.99040213 -58.43359375 55.90820312 C-58.39070322 47.89947277 -58.32243911 39.891215 -58.23828125 31.8828125 C-54.59631813 29.81416909 -50.95260529 27.74862631 -47.30859375 25.68359375 C-46.28805908 25.10387817 -45.26752441 24.5241626 -44.21606445 23.92687988 C-38.2326205 20.53833342 -32.21707427 17.23679777 -26.11328125 14.0703125 C-19.47506822 10.60298672 -6.83836574 -0.35802962 0 0 Z " fill="#6DA169" transform="translate(248.23828125,292.1171875)"/>
<path d="M0 0 C0.74765625 0.4846875 1.4953125 0.969375 2.265625 1.46875 C3.24660156 2.02691406 4.22757812 2.58507812 5.23828125 3.16015625 C7.30123651 4.40940476 9.36373544 5.65940715 11.42578125 6.91015625 C14.34425867 8.66842977 14.34425867 8.66842977 18.265625 9.46875 C18.265625 17.05875 18.265625 24.64875 18.265625 32.46875 C24.43125477 28.85337249 24.43125477 28.85337249 30.59130859 25.22851562 C31.35781738 24.78185547 32.12432617 24.33519531 32.9140625 23.875 C33.69958496 23.41416016 34.48510742 22.95332031 35.29443359 22.47851562 C37.265625 21.46875 37.265625 21.46875 39.265625 21.46875 C39.29054536 26.69742495 39.30858832 31.92606449 39.32055664 37.15478516 C39.32555184 38.92953088 39.33235028 40.70427255 39.34106445 42.47900391 C39.43560173 62.24285598 39.43560173 62.24285598 38.265625 69.46875 C37.275625 69.96375 37.275625 69.96375 36.265625 70.46875 C35.935625 69.47875 35.605625 68.48875 35.265625 67.46875 C34.275625 66.97375 34.275625 66.97375 33.265625 66.46875 C33.595625 65.80875 33.925625 65.14875 34.265625 64.46875 C33.69714844 64.35144531 33.12867188 64.23414063 32.54296875 64.11328125 C27.77024517 62.76251043 23.56119226 59.90137688 19.265625 57.46875 C18.52570313 57.05157715 17.78578125 56.6344043 17.0234375 56.20458984 C9.9992822 52.23947662 9.9992822 52.23947662 6.62841797 50.25195312 C1.98796737 47.52198503 -2.61731412 45.02067383 -7.5390625 42.83203125 C-20.20262706 36.89296027 -20.20262706 36.89296027 -22.89550781 30.87304688 C-24.69510846 23.96874245 -24.76586194 17.0201164 -21.734375 10.46875 C-16.96533837 4.99567718 -7.54748679 -1.46636886 0 0 Z " fill="#ECEDEC" transform="translate(460.734375,215.53125)"/>
<path d="M0 0 C2.63498156 3.82497323 2.82813942 7.24918118 2.9375 11.8125 C0.2975 11.8125 -2.3425 11.8125 -5.0625 11.8125 C-5.495625 10.86375 -5.92875 9.915 -6.375 8.9375 C-7.85552201 5.61208063 -7.85552201 5.61208063 -11.0625 3.8125 C-14.29024516 3.49317718 -14.29024516 3.49317718 -17.875 3.5625 C-19.07769531 3.55734375 -20.28039062 3.5521875 -21.51953125 3.546875 C-25.02631355 3.80978701 -27.79471185 4.55142402 -31.0625 5.8125 C-31.74208603 8.20969432 -31.74208603 8.20969432 -32.0625 10.8125 C-29.53852658 13.33647342 -28.22003554 13.24637429 -24.71484375 13.671875 C-23.63396484 13.81882812 -22.55308594 13.96578125 -21.43945312 14.1171875 C-19.17533577 14.41032706 -16.90968477 14.69189168 -14.64257812 14.9609375 C-7.24754787 15.99300559 -1.70489728 17.77375299 3.9375 22.8125 C6.63060389 26.85215584 6.48857791 30.06989014 5.9375 34.8125 C4.46628933 38.03515194 2.6770097 40.54942677 -0.0625 42.8125 C-0.7225 42.8125 -1.3825 42.8125 -2.0625 42.8125 C-2.0625 43.4725 -2.0625 44.1325 -2.0625 44.8125 C-7.71237443 47.20797041 -13.03458387 47.14498646 -19.0625 47.125 C-20.52042969 47.14916992 -20.52042969 47.14916992 -22.0078125 47.17382812 C-28.21928385 47.17805937 -32.87833941 46.71070442 -37.671875 42.34765625 C-41.31420671 37.64505675 -43.39722729 34.83759113 -43.0625 28.8125 C-40.0925 28.8125 -37.1225 28.8125 -34.0625 28.8125 C-33.7325 29.92625 -33.4025 31.04 -33.0625 32.1875 C-31.61637972 35.45612804 -31.26054656 35.72655527 -27.75 37.25 C-21.32016799 38.32762548 -12.49974624 39.69852148 -6.65625 36.4921875 C-4.72588938 34.81066656 -4.72588938 34.81066656 -4.8125 31.625 C-4.895 30.696875 -4.9775 29.76875 -5.0625 28.8125 C-11.86225965 25.47891309 -18.71262506 24.51003665 -26.14453125 23.3515625 C-35.31076611 21.82594087 -35.31076611 21.82594087 -39.0625 18.8125 C-42.04730598 14.33529103 -41.65644796 10.06029341 -41.0625 4.8125 C-38.57811575 -0.65314535 -35.31144145 -2.70115931 -30.0625 -5.1875 C-19.15308903 -7.88784925 -9.16328994 -6.5452071 0 0 Z " fill="#6AA065" transform="translate(280.0625,338.1875)"/>
<path d="M0 0 C4.3715728 5.24588737 7.05126494 11.50421648 9 18 C9.66 18 10.32 18 11 18 C14.0944962 21.88712154 16.27853941 26.48725543 18.4375 30.9375 C20.46613013 35.09619176 22.82722047 38.81966411 25.44140625 42.62890625 C33 54.12781955 33 54.12781955 33 59 C33.66 59 34.32 59 35 59 C35 59.99 35 60.98 35 62 C31.30398418 61.41921503 28.56292492 60.40940419 25.32421875 58.55078125 C24.42461426 58.03894287 23.52500977 57.52710449 22.59814453 56.99975586 C21.63763184 56.44296143 20.67711914 55.88616699 19.6875 55.3125 C18.69089355 54.73959229 17.69428711 54.16668457 16.66748047 53.57641602 C14.54639507 52.35551066 12.42697479 51.13170869 10.30908203 49.90527344 C6.94620872 47.96902854 3.56692011 46.06430681 0.18359375 44.1640625 C-2.00296629 42.92251255 -4.18917451 41.68034272 -6.375 40.4375 C-7.42083252 39.85460205 -8.46666504 39.2717041 -9.54418945 38.67114258 C-10.98797974 37.84199341 -10.98797974 37.84199341 -12.4609375 36.99609375 C-13.31478027 36.51325928 -14.16862305 36.0304248 -15.04833984 35.53295898 C-17 34 -17 34 -17.86181641 31.95727539 C-18.07105663 28.99353181 -16.60145928 27.4593839 -15 25 C-14.58492187 23.97261719 -14.16984375 22.94523437 -13.7421875 21.88671875 C-11.81416996 17.29565704 -9.11610244 13.26520681 -6.375 9.125 C-5.87226563 8.35414063 -5.36953125 7.58328125 -4.8515625 6.7890625 C-1.17426658 1.17426658 -1.17426658 1.17426658 0 0 Z " fill="#3C883A" transform="translate(144,238)"/>
<path d="M0 0 C0.70898438 0.40283203 1.41796875 0.80566406 2.1484375 1.22070312 C3.24285156 1.85202148 3.24285156 1.85202148 4.359375 2.49609375 C5.10445313 2.92083984 5.84953125 3.34558594 6.6171875 3.78320312 C8.45036461 4.82905417 10.28020177 5.88075567 12.109375 6.93359375 C13.15218383 14.48145348 14.23512235 22.50938137 12.109375 29.93359375 C8.11184274 35.18742305 1.42645385 38.34593301 -4.890625 39.93359375 C-7.453125 39.84765625 -7.453125 39.84765625 -9.890625 38.93359375 C-11.75654297 38.31097656 -11.75654297 38.31097656 -13.66015625 37.67578125 C-18.05678548 35.79204567 -21.93566308 33.78793469 -24.890625 29.93359375 C-27.6566802 22.69638083 -27.75755526 14.14852023 -24.890625 6.93359375 C-18.5451314 -0.84612983 -8.9350891 -5.11605908 0 0 Z " fill="#EEEEEE" transform="translate(325.890625,219.06640625)"/>
<path d="M0 0 C0.66 0.33 1.32 0.66 2 1 C1.67 1.66 1.34 2.32 1 3 C1.99 3.33 2.98 3.66 4 4 C3.67 5.32 3.34 6.64 3 8 C3.721875 8.27070313 4.44375 8.54140625 5.1875 8.8203125 C8.31886455 10.27291772 10.53835663 11.56382191 13 14 C14.51923485 18.94335648 14.50263141 23.05359466 13 28 C10.06658354 31.04481202 6.99730113 32.67805789 3 34 C2.01 34 1.02 34 0 34 C0 34.66 0 35.32 0 36 C-0.66 36 -1.32 36 -2 36 C-2 36.66 -2 37.32 -2 38 C-0.515 38.495 -0.515 38.495 1 39 C1.33 39.99 1.66 40.98 2 42 C-1.96839121 43.32279707 -3.59803572 42.34595269 -7.31079102 40.69873047 C-11.46043766 38.60579107 -15.10590165 36.72796153 -18 33 C-20.14620809 25.58751066 -19.04180725 17.54061028 -18 10 C-15.04894616 8.2995208 -12.08809878 6.61688907 -9.125 4.9375 C-8.28324219 4.45216797 -7.44148438 3.96683594 -6.57421875 3.46679688 C-5.76855469 3.01240234 -4.96289062 2.55800781 -4.1328125 2.08984375 C-3.38918457 1.66566162 -2.64555664 1.24147949 -1.87939453 0.80444336 C-1.25919434 0.53897705 -0.63899414 0.27351074 0 0 Z " fill="#E6E7E6" transform="translate(457,216)"/>
<path d="M0 0 C0.33 0 0.66 0 1 0 C1 20.46 1 40.92 1 62 C-1.84501863 59.15498137 -3.22988453 56.95743407 -5.0625 53.4375 C-7.13325518 49.42794967 -7.13325518 49.42794967 -10 46 C-10.268125 45.29875 -10.53625 44.5975 -10.8125 43.875 C-11.89367986 41.25740665 -13.08860518 39.3725055 -14.6875 37.0625 C-16.37047282 34.38572424 -16.98790682 33.28418975 -17.125 30.0625 C-15.08583857 24.51144944 -12.10435611 19.54087239 -8.75 14.6875 C-7.21349 12.32785965 -6.42238632 10.74551109 -6 8 C-5.34 8 -4.68 8 -4 8 C-3.71125 7.236875 -3.4225 6.47375 -3.125 5.6875 C-2 3 -2 3 0 0 Z " fill="#3D863B" transform="translate(236,206)"/>
<path d="M0 0 C2.49023438 1.51367188 2.49023438 1.51367188 4.98046875 3.02734375 C5.57186201 7.82420022 5.84823923 12.25460608 4.98046875 17.02734375 C2.13292571 20.32740332 -0.84580372 21.86170813 -5.01953125 23.02734375 C-8.26953125 22.65234375 -8.26953125 22.65234375 -11.01953125 21.02734375 C-12.13328125 20.59421875 -13.24703125 20.16109375 -14.39453125 19.71484375 C-17.55183272 16.48236843 -17.66690757 15.08028968 -18.01953125 10.65234375 C-17.8531861 6.66006005 -17.69940167 4.75458744 -14.9453125 1.80859375 C-9.52312074 -1.62789251 -5.96931181 -2.87496836 0 0 Z " fill="#659F60" transform="translate(465.01953125,226.97265625)"/>
<path d="M0 0 C1.65 0 3.3 0 5 0 C6.40692958 3.78112324 7.45030866 6.94722204 7 11 C4.60236815 13.39763185 3.66726502 13.34280586 0.375 13.625 C-0.44226563 13.69976562 -1.25953125 13.77453125 -2.1015625 13.8515625 C-2.72804688 13.90054687 -3.35453125 13.94953125 -4 14 C-4 14.99 -4 15.98 -4 17 C-9.55698748 17.15601168 -14.77046206 16.59027633 -20.25 15.6875 C-21.05179687 15.56955078 -21.85359375 15.45160156 -22.6796875 15.33007812 C-23.83597656 15.14155273 -23.83597656 15.14155273 -25.015625 14.94921875 C-25.70946289 14.83924561 -26.40330078 14.72927246 -27.11816406 14.6159668 C-29.43705749 13.85694135 -30.4974364 12.90618086 -32 11 C-32.125 8.5 -32.125 8.5 -31 6 C-24.92243035 1.90117396 -17.08314427 1.93669111 -10 3 C-6.77452715 5.07883257 -5.28254441 6.04369585 -4.1875 9.75 C-4.125625 10.4925 -4.06375 11.235 -4 12 C-1.36 12 1.28 12 4 12 C3.71640113 10.5608866 3.42278601 9.12374482 3.125 7.6875 C2.96257812 6.88699219 2.80015625 6.08648437 2.6328125 5.26171875 C2.05521001 2.74698882 2.05521001 2.74698882 0 0 Z " fill="#E8EFE8" transform="translate(279,338)"/>
<path d="M0 0 C0.33 0 0.66 0 1 0 C1.33 18.81 1.66 37.62 2 57 C0.35 56.34 -1.3 55.68 -3 55 C-3.99 55.495 -3.99 55.495 -5 56 C-5 38.18 -5 20.36 -5 2 C-3.02 2.99 -3.02 2.99 -1 4 C-0.67 2.68 -0.34 1.36 0 0 Z " fill="#679E62" transform="translate(196,331)"/>
<path d="M0 0 C0.99 0.495 0.99 0.495 2 1 C2 21.13 2 41.26 2 62 C2.99 62 3.98 62 5 62 C6.98717857 62.87469826 8.94277989 63.82229742 10.875 64.8125 C11.90367187 65.33457031 12.93234375 65.85664063 13.9921875 66.39453125 C17 68 17 68 19.66015625 69.67578125 C22.93435343 71.52879101 25.30116112 71.4035097 29 71 C31.40083438 69.64114884 31.40083438 69.64114884 33 68 C32.67 69.65 32.34 71.3 32 73 C28.12315913 74.19287411 25.08378077 75 21 75 C21 75.66 21 76.32 21 77 C21.66 77.33 22.32 77.66 23 78 C20.55266217 78.88812175 19.38370901 79.14473667 16.90942383 78.21142578 C16.18263428 77.7936084 15.45584473 77.37579102 14.70703125 76.9453125 C13.91232422 76.49542969 13.11761719 76.04554688 12.29882812 75.58203125 C11.47833984 75.10121094 10.65785156 74.62039063 9.8125 74.125 C8.98041016 73.65191406 8.14832031 73.17882812 7.29101562 72.69140625 C1.21535714 69.21535714 1.21535714 69.21535714 0 68 C-0.0942174 65.88318683 -0.11742761 63.76319242 -0.11352539 61.64428711 C-0.11367142 60.98089828 -0.11381744 60.31750946 -0.1139679 59.63401794 C-0.11326881 57.43176044 -0.10547665 55.22958655 -0.09765625 53.02734375 C-0.09579206 51.50419664 -0.09436816 49.98104893 -0.09336853 48.457901 C-0.08954346 44.44162349 -0.07971328 40.42538192 -0.06866455 36.40911865 C-0.05845019 32.31376634 -0.05387086 28.21840824 -0.04882812 24.12304688 C-0.038091 16.08201472 -0.02101472 8.04101183 0 0 Z " fill="#77A772" transform="translate(190,324)"/>
<path d="M0 0 C2.97 0 5.94 0 9 0 C9.99 2.97 10.98 5.94 12 9 C11.34 9 10.68 9 10 9 C10.33 10.98 10.66 12.96 11 15 C13.85506049 15.95168683 15.90937282 16.1900946 18.88671875 16.31640625 C19.82451172 16.35830078 20.76230469 16.40019531 21.72851562 16.44335938 C22.70498047 16.48267578 23.68144531 16.52199219 24.6875 16.5625 C25.67556641 16.60568359 26.66363281 16.64886719 27.68164062 16.69335938 C30.12095546 16.79941654 32.56037113 16.90147714 35 17 C35 17.33 35 17.66 35 18 C31.45849107 18.08761663 27.91726367 18.14059739 24.375 18.1875 C23.37597656 18.21263672 22.37695312 18.23777344 21.34765625 18.26367188 C14.99702453 18.32675762 10.30216601 18.00561226 5.390625 13.53515625 C1.74829329 8.83255675 -0.33472729 6.02509113 0 0 Z " fill="#79A574" transform="translate(237,367)"/>
<path d="M0 0 C2.49023438 1.51367188 2.49023438 1.51367188 4.98046875 3.02734375 C5.57186201 7.82420022 5.84823923 12.25460608 4.98046875 17.02734375 C2.13292571 20.32740332 -0.84580372 21.86170813 -5.01953125 23.02734375 C-8.26953125 22.65234375 -8.26953125 22.65234375 -11.01953125 21.02734375 C-12.13328125 20.59421875 -13.24703125 20.16109375 -14.39453125 19.71484375 C-17.55183272 16.48236843 -17.66690757 15.08028968 -18.01953125 10.65234375 C-17.8531861 6.66006005 -17.69940167 4.75458744 -14.9453125 1.80859375 C-9.52312074 -1.62789251 -5.96931181 -2.87496836 0 0 Z M-6.89453125 1.96484375 C-9.01953125 3.02734375 -9.01953125 3.02734375 -12.20703125 3.52734375 C-13.59921875 3.77484375 -13.59921875 3.77484375 -15.01953125 4.02734375 C-16.28190856 6.55209837 -16.11809529 8.33934841 -16.08203125 11.15234375 C-16.07300781 12.06242188 -16.06398438 12.9725 -16.0546875 13.91015625 C-16.04308594 14.60882813 -16.03148437 15.3075 -16.01953125 16.02734375 C-15.02953125 16.02734375 -14.03953125 16.02734375 -13.01953125 16.02734375 C-13.01953125 16.68734375 -13.01953125 17.34734375 -13.01953125 18.02734375 C-12.02953125 18.35734375 -11.03953125 18.68734375 -10.01953125 19.02734375 C-9.68953125 19.68734375 -9.35953125 20.34734375 -9.01953125 21.02734375 C-4.3503428 20.74719244 -0.69106194 20.03760461 2.890625 16.8359375 C5.19431874 13.01296187 4.38617446 8.317306 3.98046875 4.02734375 C2.66046875 4.02734375 1.34046875 4.02734375 -0.01953125 4.02734375 C-0.34953125 3.03734375 -0.67953125 2.04734375 -1.01953125 1.02734375 C-4.77263208 0.72920135 -4.77263208 0.72920135 -6.89453125 1.96484375 Z " fill="#83A97F" transform="translate(465.01953125,226.97265625)"/>
<path d="M0 0 C0 0.66 0 1.32 0 2 C-1.96147874 3.38938077 -3.96166576 4.7260411 -6 6 C-6.66 5.67 -7.32 5.34 -8 5 C-7.90764714 12.5990995 -7.80033001 20.19788216 -7.68261719 27.79663086 C-7.64433901 30.38154305 -7.60948414 32.96650829 -7.578125 35.55151367 C-7.53244994 39.26760823 -7.4744583 42.98333789 -7.4140625 46.69921875 C-7.40251129 47.85459641 -7.39096008 49.00997406 -7.37905884 50.20036316 C-7.3492543 51.82147758 -7.3492543 51.82147758 -7.31884766 53.4753418 C-7.30552399 54.42354294 -7.29220032 55.37174408 -7.2784729 56.34867859 C-6.97859029 59.20384043 -6.18395486 61.39705045 -5 64 C-6.32 63.67 -7.64 63.34 -9 63 C-9 43.53 -9 24.06 -9 4 C-2 0 -2 0 0 0 Z " fill="#D2E3CF" transform="translate(207,325)"/>
<path d="M0 0 C0.99 0.495 0.99 0.495 2 1 C2 18.16 2 35.32 2 53 C2.66 53.33 3.32 53.66 4 54 C2.92598892 56.91517292 2.22189824 58.77810176 0 61 C0 40.87 0 20.74 0 0 Z " fill="#58A049" transform="translate(126,207)"/>
<path d="M0 0 C3.05402088 1.52701044 3.65869481 3.95157912 5 7 C5 7.99 5 8.98 5 10 C5.66 10 6.32 10 7 10 C7 10.99 7 11.98 7 13 C2.57676318 12.41734728 -0.5155864 10.73233789 -4.3125 8.4375 C-5.38113281 7.79683594 -6.44976562 7.15617187 -7.55078125 6.49609375 C-8.35902344 6.00238281 -9.16726562 5.50867188 -10 5 C-6.28272326 3.86416544 -4.52948291 4.33329974 -1 6 C-0.67 4.02 -0.34 2.04 0 0 Z " fill="#478944" transform="translate(172,287)"/>
<path d="M0 0 C0.66 0.33 1.32 0.66 2 1 C2.33 1.99 2.66 2.98 3 4 C-2.75 8 -2.75 8 -5 8 C-5 8.99 -5 9.98 -5 11 C-9.455 11.495 -9.455 11.495 -14 12 C-10.82228249 7.82357127 -8.99634009 5.80423392 -4 4 C-3.67 3.01 -3.34 2.02 -3 1 C-2.01 0.67 -1.02 0.34 0 0 Z " fill="#659F60" transform="translate(298,388)"/>
<path d="M0 0 C3.42556216 1.86194219 6.72606149 3.88423341 10 6 C6.30581799 7.231394 3.7943739 6.64432764 0 6 C-0.66 4.35 -1.32 2.7 -2 1 C-2.99 1.99 -3.98 2.98 -5 4 C-4.67 4.99 -4.34 5.98 -4 7 C-7.37503669 5.8141763 -9.64722731 4.72426311 -12 2 C-7.49128423 -0.68375939 -5.04683323 -1.64992625 0 0 Z " fill="#78A373" transform="translate(237,409)"/>
<path d="M0 0 C3.4375 1.375 3.4375 1.375 4.9375 3.375 C5.4375 5.375 5.4375 5.375 4.4375 7.375 C-1.1875 7.625 -1.1875 7.625 -4.5625 5.375 C-4.5625 4.385 -4.5625 3.395 -4.5625 2.375 C-5.2225 2.045 -5.8825 1.715 -6.5625 1.375 C-3.5625 -0.625 -3.5625 -0.625 0 0 Z " fill="#689F62" transform="translate(273.5625,306.625)"/>
<path d="M0 0 C0 1.32 0 2.64 0 4 C-4.8185861 8.8185861 -8.39406746 10.6564205 -15 12 C-14.3125 9.5625 -14.3125 9.5625 -13 7 C-10.19031313 6.06343771 -7.96200864 6 -5 6 C-5 4.35 -5 2.7 -5 1 C-2 0 -2 0 0 0 Z " fill="#639F60" transform="translate(267,407)"/>
<path d="M0 0 C-1.65593745 3.58786447 -3.62837691 6.83783588 -6 10 C-6.99 10 -7.98 10 -9 10 C-9 9.01 -9 8.02 -9 7 C-9.66 7 -10.32 7 -11 7 C-11.33 7.66 -11.66 8.32 -12 9 C-12.66 8.34 -13.32 7.68 -14 7 C-12.04480616 5.82807953 -10.0857461 4.6626071 -8.125 3.5 C-7.03445313 2.8503125 -5.94390625 2.200625 -4.8203125 1.53125 C-2 0 -2 0 0 0 Z " fill="#74A670" transform="translate(276,400)"/>
<path d="M0 0 C0.33 0 0.66 0 1 0 C1 3.96 1 7.92 1 12 C1.66 12.33 2.32 12.66 3 13 C3.66 13.33 4.32 13.66 5 14 C5 14.66 5 15.32 5 16 C5.66 16 6.32 16 7 16 C7 16.66 7 17.32 7 18 C7.99 18.33 8.98 18.66 10 19 C6.12454437 18.77641602 3.67784748 18.52142114 0.5625 16.125 C-1.74215091 11.51569819 -1.49779306 7.06769661 -1 2 C-0.67 1.34 -0.34 0.68 0 0 Z " fill="#84A980" transform="translate(240,341)"/>
<path d="M0 0 C1.65 0 3.3 0 5 0 C6.40692958 3.78112324 7.45030866 6.94722204 7 11 C5 13 5 13 3.0546875 13.1953125 C1.03645833 13.13020833 -0.98177083 13.06510417 -3 13 C-3 12.67 -3 12.34 -3 12 C-0.69 12 1.62 12 4 12 C3.71640113 10.5608866 3.42278601 9.12374482 3.125 7.6875 C2.88136719 6.48673828 2.88136719 6.48673828 2.6328125 5.26171875 C2.05521001 2.74698882 2.05521001 2.74698882 0 0 Z " fill="#D3E4D2" transform="translate(279,338)"/>
<path d="M0 0 C0.66 0.33 1.32 0.66 2 1 C-3.59201135 6.79912288 -6.92822823 9.45276124 -15 10 C-12.38221206 7.0447272 -9.32416665 5.24167273 -5.9375 3.25 C-4.87402344 2.61578125 -3.81054688 1.9815625 -2.71484375 1.328125 C-1.81894531 0.88984375 -0.92304688 0.4515625 0 0 Z " fill="#83AB7F" transform="translate(293,389)"/>
<path d="M0 0 C2.475 0.99 2.475 0.99 5 2 C3.02 2.99 3.02 2.99 1 4 C1 5.65 1 7.3 1 9 C-3.43090471 7.79157144 -5.98112756 6.48331435 -9 3 C-3.25 2.875 -3.25 2.875 -1 4 C-0.67 2.68 -0.34 1.36 0 0 Z " fill="#7EA979" transform="translate(279,310)"/>
<path d="M0 0 C2.0625 0.4375 2.0625 0.4375 4 1 C1.43379672 2.89758952 -1.11003539 4.63305212 -4 6 C-7.68258515 5.33043906 -10.1240605 3.34335811 -13 1 C-9 1 -5 1 -1 1 C-0.67 0.67 -0.34 0.34 0 0 Z " fill="#DEEEDB" transform="translate(253,410)"/>
<path d="M0 0 C0.75732422 0.0515625 1.51464844 0.103125 2.29492188 0.15625 C3.47344727 0.25292969 3.47344727 0.25292969 4.67578125 0.3515625 C5.47306641 0.40828125 6.27035156 0.465 7.09179688 0.5234375 C9.05801706 0.66472278 11.02326949 0.81936156 12.98828125 0.9765625 C12.98828125 1.3065625 12.98828125 1.6365625 12.98828125 1.9765625 C12.11945313 2.02554687 11.250625 2.07453125 10.35546875 2.125 C9.20304687 2.19976562 8.050625 2.27453125 6.86328125 2.3515625 C5.15785156 2.45597656 5.15785156 2.45597656 3.41796875 2.5625 C-1.06184276 3.10334285 -4.76382834 3.72867209 -8.01171875 6.9765625 C-7.69921875 4.6015625 -7.69921875 4.6015625 -7.01171875 1.9765625 C-3.88828212 -0.10572858 -3.47318953 -0.26114207 0 0 Z " fill="#79A275" transform="translate(255.01171875,339.0234375)"/>
<path d="M0 0 C0.33 0 0.66 0 1 0 C1.61305761 3.82820419 1.86306255 7.19940528 1 11 C-1.89615329 13.9666589 -5.00587616 15.86833158 -9 17 C-11.328125 16.13671875 -11.328125 16.13671875 -13 15 C-11.7625 14.566875 -10.525 14.13375 -9.25 13.6875 C-4.64714753 12.06347141 -4.64714753 12.06347141 -1 9 C-0.37590594 6.00754901 -0.12791718 3.05082463 0 0 Z " fill="#7CA079" transform="translate(469,233)"/>
<path d="M0 0 C6.33393082 -0.34548714 11.10261508 0.70657253 17 3 C17.125 5.875 17.125 5.875 17 9 C16.34 9.66 15.68 10.32 15 11 C14.79375 9.88625 14.5875 8.7725 14.375 7.625 C13.39681139 3.82388275 13.39681139 3.82388275 10.3125 2.625 C6.88171924 1.97768288 3.46668567 1.41600228 0 1 C0 0.67 0 0.34 0 0 Z " fill="#81A97F" transform="translate(261,362)"/>
<path d="M0 0 C1.84170838 1.56727453 2.88776232 2.50649641 3.43237305 4.90112305 C3.45855713 5.59761963 3.48474121 6.29411621 3.51171875 7.01171875 C3.54716797 7.76904297 3.58261719 8.52636719 3.61914062 9.30664062 C3.64169922 10.09232422 3.66425781 10.87800781 3.6875 11.6875 C3.72166016 12.48478516 3.75582031 13.28207031 3.79101562 14.10351562 C3.87338104 16.06851904 3.93837067 18.03423696 4 20 C3.67 20 3.34 20 3 20 C0.71415102 13.44723293 0.39405632 6.89598561 0 0 Z " fill="#7F7E80" transform="translate(496,211)"/>
<path d="M0 0 C2 1 2 1 4 4 C3.01 5.485 3.01 5.485 2 7 C1.01 7 0.02 7 -1 7 C-1.66 8.32 -2.32 9.64 -3 11 C-2.25 3.375 -2.25 3.375 0 0 Z " fill="#C8C8C8" transform="translate(8,186)"/>
<path d="M0 0 C0.33 0 0.66 0 1 0 C1.08107583 1.93681161 1.13922475 3.8745934 1.1875 5.8125 C1.22230469 6.89144531 1.25710938 7.97039062 1.29296875 9.08203125 C1 12 1 12 -0.38671875 13.88671875 C-2 15 -2 15 -4 15 C-4 15.66 -4 16.32 -4 17 C-5.32 16.67 -6.64 16.34 -8 16 C-6.576875 15.1028125 -6.576875 15.1028125 -5.125 14.1875 C-1.14508356 10.95851119 -0.88334179 7.10480131 -0.2265625 2.23046875 C-0.11441406 1.12638672 -0.11441406 1.12638672 0 0 Z " fill="#D7E8D5" transform="translate(286,365)"/>
<path d="M0 0 C-4.34923981 3.12601611 -7.75056443 3.74599505 -13 4 C-13.99 3.34 -14.98 2.68 -16 2 C-15.31292969 1.86722656 -14.62585938 1.73445313 -13.91796875 1.59765625 C-12.56638672 1.33275391 -12.56638672 1.33275391 -11.1875 1.0625 C-9.84751953 0.80146484 -9.84751953 0.80146484 -8.48046875 0.53515625 C-2.35755258 -0.78585086 -2.35755258 -0.78585086 0 0 Z " fill="#79A176" transform="translate(227,401)"/>
<path d="M0 0 C0 0.66 0 1.32 0 2 C-4.89795918 6.89795918 -4.89795918 6.89795918 -9.375 7.3125 C-10.674375 7.1578125 -10.674375 7.1578125 -12 7 C-9.20232475 3.70861735 -4.40323273 0 0 0 Z " fill="#D5E8D1" transform="translate(237,271)"/>
<path d="M0 0 C4.30764815 1.56641751 8.06171464 3.68336156 12 6 C12 6.33 12 6.66 12 7 C9.69 7.33 7.38 7.66 5 8 C4.67 6.35 4.34 4.7 4 3 C2.68 2.67 1.36 2.34 0 2 C0 1.34 0 0.68 0 0 Z " fill="#6E9C64" transform="translate(200,184)"/>
<path d="M0 0 C0 0.66 0 1.32 0 2 C-0.99 2 -1.98 2 -3 2 C-3.33 2.99 -3.66 3.98 -4 5 C-4.66 5 -5.32 5 -6 5 C-6 5.66 -6 6.32 -6 7 C-8.31 7.33 -10.62 7.66 -13 8 C-10.83676753 5.68757908 -8.62352196 3.9843604 -5.9375 2.3125 C-5.24527344 1.87550781 -4.55304688 1.43851562 -3.83984375 0.98828125 C-2 0 -2 0 0 0 Z " fill="#CFE3CC" transform="translate(220,317)"/>
<path d="M0 0 C0 2 0 2 -1.375 3.5 C-1.91125 3.995 -2.4475 4.49 -3 5 C-3.66 5.66 -4.32 6.32 -5 7 C-8 7 -8 7 -11 6 C-3.28571429 0 -3.28571429 0 0 0 Z " fill="#7CA971" transform="translate(136,199)"/>
<path d="M0 0 C1.32 0.33 2.64 0.66 4 1 C-1.94 4.465 -1.94 4.465 -8 8 C-8 5 -8 5 -7 3 C-5.01276732 2.29618843 -3.01222047 1.6288189 -1 1 C-0.67 0.67 -0.34 0.34 0 0 Z " fill="#7FA673" transform="translate(202,288)"/>
<path d="M0 0 C1.32 0.33 2.64 0.66 4 1 C4 1.99 4 2.98 4 4 C0.04 5.98 0.04 5.98 -4 8 C-4 7.01 -4 6.02 -4 5 C-3.01 5 -2.02 5 -1 5 C-0.67 3.35 -0.34 1.7 0 0 Z " fill="#75A469" transform="translate(233,267)"/>
<path d="M0 0 C1 2 1 2 0.375 4.25 C-1.33818866 7.67637732 -3.46502376 10.13147426 -6 13 C-6.33 12.34 -6.66 11.68 -7 11 C-5.8203125 8.65234375 -5.8203125 8.65234375 -4.125 5.9375 C-3.57070312 5.03902344 -3.01640625 4.14054688 -2.4453125 3.21484375 C-1 1 -1 1 0 0 Z " fill="#4E9148" transform="translate(228,220)"/>
<path d="M0 0 C-4.29 2.31 -8.58 4.62 -13 7 C-13 6.01 -13 5.02 -13 4 C-11.59248779 3.13083113 -10.1735479 2.28014851 -8.75 1.4375 C-7.96109375 0.96183594 -7.1721875 0.48617188 -6.359375 -0.00390625 C-4 -1 -4 -1 0 0 Z " fill="#749F70" transform="translate(292,400)"/>
<path d="M0 0 C1.91731918 0.11455681 3.8338675 0.24206258 5.75 0.375 C7.35101563 0.47941406 7.35101563 0.47941406 8.984375 0.5859375 C11.80206432 0.9728223 13.5830366 1.55686166 16 3 C13.89646505 3.0810206 11.79204048 3.13919907 9.6875 3.1875 C8.51574219 3.22230469 7.34398437 3.25710938 6.13671875 3.29296875 C3 3 3 3 1.08203125 1.48828125 C0.72496094 0.99714844 0.36789062 0.50601562 0 0 Z " fill="#DAE7D6" transform="translate(256,362)"/>
<path d="M0 0 C3.99500618 1.3697164 6.80009492 3.25722422 10 6 C9.01 6.33 8.02 6.66 7 7 C6.34 6.34 5.68 5.68 5 5 C2.93125966 4.3574765 2.93125966 4.3574765 1 4 C0.67 4.66 0.34 5.32 0 6 C0 4 0 2 0 0 Z " fill="#DFF0DF" transform="translate(169,296)"/>
<path d="M0 0 C2.97 0 5.94 0 9 0 C9.33 0.99 9.66 1.98 10 3 C10.66 3 11.32 3 12 3 C11.67 3.66 11.34 4.32 11 5 C10.13375 4.484375 9.2675 3.96875 8.375 3.4375 C4.60596507 1.83217031 2.89114901 1.98088955 -1 3 C-0.67 2.01 -0.34 1.02 0 0 Z " fill="#DFEEDF" transform="translate(244,291)"/>
<path d="M0 0 C0.99 1.485 0.99 1.485 2 3 C2.680625 3.309375 3.36125 3.61875 4.0625 3.9375 C6 5 6 5 6.75 7.125 C6.8325 7.74375 6.915 8.3625 7 9 C2.25 7.125 2.25 7.125 0 6 C0 4.02 0 2.04 0 0 Z " fill="#7EA57A" transform="translate(191,387)"/>
<path d="M0 0 C1.65 0 3.3 0 5 0 C1.53258866 2.95749791 -1.86873527 5.07848152 -6 7 C-6 5.68 -6 4.36 -6 3 C-4.35 3 -2.7 3 -1 3 C-0.67 2.01 -0.34 1.02 0 0 Z " fill="#7CA670" transform="translate(218,278)"/>
<path d="M0 0 C0.66 0.33 1.32 0.66 2 1 C2.4140625 3.06640625 2.4140625 3.06640625 2.625 5.5625 C2.69976562 6.38878906 2.77453125 7.21507812 2.8515625 8.06640625 C2.90054687 8.70449219 2.94953125 9.34257812 3 10 C0.36 10 -2.28 10 -5 10 C-4.67 9.34 -4.34 8.68 -4 8 C-1.03 8.495 -1.03 8.495 2 9 C1.67 8.443125 1.34 7.88625 1 7.3125 C-0.1309601 4.69715478 -0.15662974 2.8193354 0 0 Z " fill="#7DA37A" transform="translate(280,340)"/>
<path d="M0 0 C0.66 0.66 1.32 1.32 2 2 C0.02 2.99 0.02 2.99 -2 4 C-2 4.66 -2 5.32 -2 6 C-3.32 6 -4.64 6 -6 6 C-4.95125002 3.37812506 -4.35068687 2.20628639 -1.875 0.75 C-1.25625 0.5025 -0.6375 0.255 0 0 Z " fill="#75A070" transform="translate(280,377)"/>
<path d="M0 0 C0.66 0.33 1.32 0.66 2 1 C-1.99613521 4.71069698 -4.37082652 6.59791618 -10 7 C-7.21098485 3.90109428 -4.92211279 2.37803963 -1 1 C-0.67 0.67 -0.34 0.34 0 0 Z " fill="#8AB080" transform="translate(170,178)"/>
<path d="M0 0 C2.31 0 4.62 0 7 0 C7 0.99 7 1.98 7 3 C7.66 3 8.32 3 9 3 C9 3.66 9 4.32 9 5 C5.22454612 3.90931332 2.52956528 3.0916909 0 0 Z " fill="#81AA7E" transform="translate(198,396)"/>
<path d="M0 0 C-0.33 1.32 -0.66 2.64 -1 4 C-2.98 4.33 -4.96 4.66 -7 5 C-7.33 4.34 -7.66 3.68 -8 3 C-2.25 0 -2.25 0 0 0 Z " fill="#D9E9D8" transform="translate(240,306)"/>
<path d="M0 0 C0.33 1.32 0.66 2.64 1 4 C1.66 4 2.32 4 3 4 C3 4.66 3 5.32 3 6 C-0.77545388 4.90931332 -3.47043472 4.0916909 -6 1 C-4.7934375 1.0309375 -4.7934375 1.0309375 -3.5625 1.0625 C-1.06645115 1.29633621 -1.06645115 1.29633621 0 0 Z " fill="#D5E6D2" transform="translate(281,306)"/>
<path d="M0 0 C0.66 0.33 1.32 0.66 2 1 C0.9375 2.9375 0.9375 2.9375 -1 5 C-4.6875 5.75 -4.6875 5.75 -8 6 C-5.63404067 3.38499232 -3.13950774 1.61000397 0 0 Z " fill="#8CB188" transform="translate(209,313)"/>
<path d="M0 0 C2.91517292 1.07401108 4.77810176 1.77810176 7 4 C5.35 4.66 3.7 5.32 2 6 C0 2.25 0 2.25 0 0 Z " fill="#E4E4E4" transform="translate(458,215)"/>
<path d="M0 0 C2.97 0.495 2.97 0.495 6 1 C6.33 3.31 6.66 5.62 7 8 C6.67 7.34 6.34 6.68 6 6 C5.34 6 4.68 6 4 6 C3.67 5.01 3.34 4.02 3 3 C1.50014391 1.33289654 1.50014391 1.33289654 0 0 Z " fill="#9C9C9C" transform="translate(488,189)"/>
<path d="M0 0 C2.76276177 0.52268466 5.3260876 1.10869587 8 2 C9.1875 4.0625 9.1875 4.0625 10 6 C6.40992874 4.66654496 3.20429093 3.1056769 0 1 C0 0.67 0 0.34 0 0 Z " fill="#81A87D" transform="translate(233,416)"/>
<path d="M0 0 C3.3 1.65 6.6 3.3 10 5 C9.01 5.66 8.02 6.32 7 7 C6.34 6.67 5.68 6.34 5 6 C5 5.34 5 4.68 5 4 C4.360625 3.896875 3.72125 3.79375 3.0625 3.6875 C2.381875 3.460625 1.70125 3.23375 1 3 C0.67 2.01 0.34 1.02 0 0 Z " fill="#E0EFE0" transform="translate(190,392)"/>
<path d="M0 0 C1.98 0.99 1.98 0.99 4 2 C4 3.98 4 5.96 4 8 C3.01 8.495 3.01 8.495 2 9 C1.34 6.03 0.68 3.06 0 0 Z " fill="#DFEDDB" transform="translate(272,365)"/>
<path d="M0 0 C0.33 0.99 0.66 1.98 1 3 C1.66 3 2.32 3 3 3 C3 3.99 3 4.98 3 6 C-1.75 5.25 -1.75 5.25 -4 3 C-3.01 2.67 -2.02 2.34 -1 2 C-0.67 1.34 -0.34 0.68 0 0 Z " fill="#569052" transform="translate(176,294)"/>
<path d="M0 0 C3.3125 0.1875 3.3125 0.1875 7 1 C8.9375 3.5625 8.9375 3.5625 10 6 C6.40992874 4.66654496 3.20429093 3.1056769 0 1 C0 0.67 0 0.34 0 0 Z " fill="#689C68" transform="translate(141,279)"/>
<path d="M0 0 C3.45925163 1.2491742 6.14693203 2.67527795 9 5 C7.68 5.33 6.36 5.66 5 6 C5 5.34 5 4.68 5 4 C2.525 3.01 2.525 3.01 0 2 C0 1.34 0 0.68 0 0 Z " fill="#E0F1DE" transform="translate(449,245)"/>
<path d="M0 0 C5.66153846 1.47692308 5.66153846 1.47692308 7.375 4.125 C7.684375 5.053125 7.684375 5.053125 8 6 C4.74456771 5.65120368 3.98126893 4.97866739 1.75 2.4375 C1.1725 1.633125 0.595 0.82875 0 0 Z " fill="#80A87E" transform="translate(240,377)"/>
<path d="M0 0 C2 1.4375 2 1.4375 4 4 C4.35442445 7.02824418 4.23347235 9.96485939 4 13 C3.67 13 3.34 13 3 13 C1.90154282 8.67940177 0.82187261 4.38332057 0 0 Z " fill="#87A985" transform="translate(282,360)"/>
<path d="M0 0 C0 0.66 0 1.32 0 2 C-1.96147874 3.38938077 -3.96166576 4.7260411 -6 6 C-6.66 5.34 -7.32 4.68 -8 4 C-2.25 0 -2.25 0 0 0 Z " fill="#DBEDDA" transform="translate(207,325)"/>
<path d="M0 0 C-2.97 1.65 -5.94 3.3 -9 5 C-9 4.01 -9 3.02 -9 2 C-5.3823098 -0.81375904 -4.61553765 -1.15388441 0 0 Z " fill="#769E72" transform="translate(208,324)"/>
<path d="M0 0 C0.33 1.32 0.66 2.64 1 4 C-1.91517292 2.92598892 -3.77810176 2.22189824 -6 0 C-3.50907189 -1.24546405 -2.58919267 -0.7767578 0 0 Z " fill="#538F52" transform="translate(140,275)"/>
<path d="M0 0 C0.99 0.33 1.98 0.66 3 1 C2.67 2.32 2.34 3.64 2 5 C0.68 5 -0.64 5 -2 5 C-2.33 4.01 -2.66 3.02 -3 2 C-2.01 1.34 -1.02 0.68 0 0 Z " fill="#E4E4E4" transform="translate(333,294)"/>
<path d="M0 0 C1.32 0 2.64 0 4 0 C4 0.66 4 1.32 4 2 C5.65 2 7.3 2 9 2 C9 2.99 9 3.98 9 5 C5.22454612 3.90931332 2.52956528 3.0916909 0 0 Z " fill="#C9DFC4" transform="translate(205,186)"/>
<path d="M0 0 C-1.15173355 2.46800047 -2.04783565 4.04783565 -4 6 C-4.33 5.34 -4.66 4.68 -5 4 C-5.66 3.67 -6.32 3.34 -7 3 C-2.25 0 -2.25 0 0 0 Z " fill="#87AF84" transform="translate(276,400)"/>
<path d="M0 0 C0.33 0.99 0.66 1.98 1 3 C0.01 4.485 0.01 4.485 -1 6 C-3.625 6.1875 -3.625 6.1875 -6 6 C-4.71034824 4.62437146 -3.37310707 3.29233607 -2 2 C-1.34 2 -0.68 2 0 2 C0 1.34 0 0.68 0 0 Z " fill="#75A071" transform="translate(277,371)"/>
<path d="M0 0 C6.0546875 -0.1953125 6.0546875 -0.1953125 8 0 C8.66 0.66 9.32 1.32 10 2 C6.18510326 3.46726798 3.70988378 2.43336419 0 1 C0 0.67 0 0.34 0 0 Z " fill="#D9ECD8" transform="translate(267,332)"/>
<path d="M0 0 C4.75 1.875 4.75 1.875 7 3 C6.67 3.99 6.34 4.98 6 6 C6 5.34 6 4.68 6 4 C4.68 4.33 3.36 4.66 2 5 C1.34 3.35 0.68 1.7 0 0 Z " fill="#91B48D" transform="translate(463,227)"/>
</svg>
