<?xml version="1.0" encoding="UTF-8"?>
<svg version="1.1" xmlns="http://www.w3.org/2000/svg" width="500" height="500">
<path d="M0 0 C3.80163653 3.2003232 3.80163653 3.2003232 5.34765625 4.93359375 C5.34765625 5.59359375 5.34765625 6.25359375 5.34765625 6.93359375 C6.00765625 6.93359375 6.66765625 6.93359375 7.34765625 6.93359375 C21.31873377 21.63999114 26.81422434 41.34173321 26.56640625 61.05078125 C26.25122492 71.22719841 23.49244333 80.95450374 18.28515625 89.72265625 C17.14545545 91.6529859 17.14545545 91.6529859 16.34765625 94.93359375 C17.05715068 97.1818618 18.07973843 99.14314861 19.15234375 101.2421875 C25.47974588 115.48918118 25.13306764 134.37136505 20.34765625 148.93359375 C16.9569541 157.14441169 12.82625538 164.92713446 7.34765625 171.93359375 C6.68765625 171.93359375 6.02765625 171.93359375 5.34765625 171.93359375 C5.34765625 172.59359375 5.34765625 173.25359375 5.34765625 173.93359375 C4.68765625 173.93359375 4.02765625 173.93359375 3.34765625 173.93359375 C3.34765625 174.59359375 3.34765625 175.25359375 3.34765625 175.93359375 C2.68765625 175.93359375 2.02765625 175.93359375 1.34765625 175.93359375 C1.34765625 176.59359375 1.34765625 177.25359375 1.34765625 177.93359375 C-0.72265625 179.60546875 -0.72265625 179.60546875 -3.77734375 181.68359375 C-4.34283936 182.06845947 -4.90833496 182.4533252 -5.4909668 182.84985352 C-18.11183284 191.35776517 -31.07951818 199.3643583 -44.01782227 207.37768555 C-47.90035438 209.79558278 -51.70612762 212.3046237 -55.48608398 214.87963867 C-74.51044105 227.82512104 -94.73387237 235.05604319 -117.9609375 231.31640625 C-133.95587745 228.23538369 -150.64903086 220.14828054 -161.65234375 207.93359375 C-161.65234375 207.27359375 -161.65234375 206.61359375 -161.65234375 205.93359375 C-162.31234375 205.93359375 -162.97234375 205.93359375 -163.65234375 205.93359375 C-165.19443835 204.0279405 -166.58982459 202.14314757 -167.96484375 200.12109375 C-168.57042114 199.23248657 -168.57042114 199.23248657 -169.18823242 198.32592773 C-172.67074782 193.09970364 -175.44744255 187.8268407 -177.65234375 181.93359375 C-178.04421875 180.92425781 -178.43609375 179.91492188 -178.83984375 178.875 C-183.96217089 163.77480646 -183.30394973 146.79021068 -177.65234375 131.93359375 C-176.50437316 129.63250472 -175.33806963 127.34045732 -174.15234375 125.05859375 C-172.0613527 121.01769757 -172.0613527 121.01769757 -172.0546875 116.65234375 C-173.07623564 114.52236807 -173.07623564 114.52236807 -174.3515625 112.4140625 C-181.83686794 98.14028186 -179.82698101 78.72602635 -175.29833984 63.82568359 C-172.71057133 56.24624068 -168.18810542 49.95939183 -163.16796875 43.80859375 C-161.49747251 41.80059621 -161.49747251 41.80059621 -159.65234375 38.93359375 C-158.99234375 38.93359375 -158.33234375 38.93359375 -157.65234375 38.93359375 C-157.65234375 38.27359375 -157.65234375 37.61359375 -157.65234375 36.93359375 C-154.19080529 33.93359375 -154.19080529 33.93359375 -151.65234375 33.93359375 C-151.65234375 33.27359375 -151.65234375 32.61359375 -151.65234375 31.93359375 C-149.77905273 30.58007812 -149.77905273 30.58007812 -147.1484375 29.02734375 C-146.18824707 28.45387207 -145.22805664 27.88040039 -144.23876953 27.28955078 C-143.19962402 26.67708496 -142.16047852 26.06461914 -141.08984375 25.43359375 C-131.06300467 19.43630454 -131.06300467 19.43630454 -121.27734375 13.05859375 C-114.56169795 8.51434655 -107.77750822 4.08108619 -100.96484375 -0.31640625 C-99.93117676 -0.9904248 -98.89750977 -1.66444336 -97.83251953 -2.35888672 C-66.00121554 -22.83815744 -30.33384185 -23.63269858 0 0 Z M-82.65234375 24.93359375 C-83.44125 25.44164551 -84.23015625 25.94969727 -85.04296875 26.47314453 C-90.15588687 29.76696737 -95.25040463 33.08822295 -100.33837891 36.42041016 C-103.51831677 38.49988419 -106.70753056 40.56456622 -109.90234375 42.62109375 C-110.99160156 43.32363281 -112.08085937 44.02617187 -113.203125 44.75 C-115.72038328 46.35777823 -118.26353967 47.91681744 -120.8203125 49.4609375 C-132.97832437 56.82863172 -141.94697103 63.82803179 -147.02734375 77.68359375 C-149.29853091 89.41806073 -148.17927042 101.30804096 -141.453125 111.34765625 C-139.32513589 114.3378069 -137.13773731 117.22748957 -134.65234375 119.93359375 C-133.99234375 119.93359375 -133.33234375 119.93359375 -132.65234375 119.93359375 C-132.65234375 120.59359375 -132.65234375 121.25359375 -132.65234375 121.93359375 C-121.96816569 130.36312587 -111.20445448 133.04753324 -97.77709961 132.20678711 C-89.41260209 131.13131052 -82.64235866 127.54330007 -75.58984375 123.12109375 C-74.75646484 122.61255859 -73.92308594 122.10402344 -73.06445312 121.58007812 C-68.9121299 119.03051935 -64.87289392 116.38777509 -60.88671875 113.5859375 C-55.7621835 110.15100739 -51.68329142 109.85830851 -45.65234375 110.93359375 C-41.43542906 112.81614495 -40.04026169 114.2703792 -37.71484375 118.24609375 C-36.53157553 122.35273051 -36.71612256 124.79861682 -37.65234375 128.93359375 C-37.75546875 129.69671875 -37.85859375 130.45984375 -37.96484375 131.24609375 C-38.94654445 133.65572274 -40.30157273 133.79080458 -42.65234375 134.93359375 C-44.9999906 136.35196372 -47.33041871 137.78679453 -49.65234375 139.24609375 C-50.35020996 139.6834082 -51.04807617 140.12072266 -51.76708984 140.57128906 C-57.30530137 144.05565076 -62.79655508 147.60977912 -68.27734375 151.18359375 C-75.73737942 156.04698988 -83.21309083 160.88474177 -90.71484375 165.68359375 C-92.13434326 166.5967334 -92.13434326 166.5967334 -93.58251953 167.52832031 C-94.46278809 168.0900293 -95.34305664 168.65173828 -96.25 169.23046875 C-97.02867432 169.72901367 -97.80734863 170.22755859 -98.60961914 170.74121094 C-102.80272424 173.18881764 -106.91161695 173.42741946 -111.65234375 172.93359375 C-115.16993717 171.67256969 -117.08370154 170.61988607 -119.46484375 167.74609375 C-120.99860779 164.11349471 -121.21609828 160.85179847 -121.65234375 156.93359375 C-124.06774681 155.95120967 -126.48456197 154.97259157 -128.90234375 153.99609375 C-129.58425781 153.71830078 -130.26617187 153.44050781 -130.96875 153.15429688 C-134.17158013 151.86383619 -137.29071909 150.71559331 -140.65234375 149.93359375 C-140.65234375 149.27359375 -140.65234375 148.61359375 -140.65234375 147.93359375 C-143.29234375 146.61359375 -145.93234375 145.29359375 -148.65234375 143.93359375 C-151.84795625 154.11960858 -152.05072712 165.07622392 -147.65234375 174.93359375 C-141.16369414 187.15560043 -132.57872976 195.98109238 -119.40625 200.74609375 C-109.86551956 203.2669473 -99.6654803 202.95760753 -90.65234375 198.93359375 C-89.91113281 198.61648438 -89.16992188 198.299375 -88.40625 197.97265625 C-82.2951063 195.14286557 -76.79484848 191.49351456 -71.26904297 187.67553711 C-68.05419691 185.46733809 -64.82386706 183.43882389 -61.39453125 181.578125 C-55.849935 178.55358521 -50.6101165 175.09581203 -45.33984375 171.62109375 C-44.3245459 170.95247314 -43.30924805 170.28385254 -42.26318359 169.5949707 C-40.27281081 168.28407001 -38.28288303 166.97249335 -36.29345703 165.66015625 C-34.14520753 164.25579126 -31.98616389 162.87907462 -29.8046875 161.52734375 C-18.7316024 154.5548721 -11.11089283 146.42005819 -8.078125 133.484375 C-6.0746636 121.48198698 -8.46503172 110.20445331 -15.27734375 100.12109375 C-16.95442853 97.72125333 -16.95442853 97.72125333 -18.65234375 95.93359375 C-19.31234375 95.93359375 -19.97234375 95.93359375 -20.65234375 95.93359375 C-20.88566406 95.33675781 -21.11898437 94.73992187 -21.359375 94.125 C-24.75814522 88.36454654 -33.52770666 85.17144192 -39.65234375 82.93359375 C-43.68687006 82.14119716 -47.60552862 81.71980043 -51.71484375 81.62109375 C-52.71644531 81.58371094 -53.71804688 81.54632813 -54.75 81.5078125 C-66.0026956 82.73558409 -74.94832046 87.417673 -84.27734375 93.55859375 C-85.33824219 94.23921875 -86.39914063 94.91984375 -87.4921875 95.62109375 C-91.23391679 98.02683075 -94.95109803 100.4660966 -98.65234375 102.93359375 C-103.98457713 103.65348711 -108.39008852 103.57579378 -113.21484375 101.12109375 C-115.93562754 98.67936471 -117.53316834 97.08153339 -117.91796875 93.375 C-117.9128125 92.42496094 -117.90765625 91.47492188 -117.90234375 90.49609375 C-117.91007812 89.07490234 -117.91007812 89.07490234 -117.91796875 87.625 C-117.62780044 84.68491225 -117.40176018 83.31088293 -115.65234375 80.93359375 C-113.32231579 79.28523853 -111.04079074 77.81468702 -108.58984375 76.37109375 C-107.12673009 75.48451379 -105.66451887 74.59644317 -104.203125 73.70703125 C-103.44854004 73.25038086 -102.69395508 72.79373047 -101.91650391 72.32324219 C-98.32386013 70.11822511 -94.80345478 67.80543653 -91.27734375 65.49609375 C-84.57131915 61.12189094 -77.77364092 56.91954771 -70.90869141 52.79956055 C-66.812715 50.32387641 -62.9553373 47.72481729 -59.15234375 44.80859375 C-54.50709297 41.47456694 -50.33830272 40.55389699 -44.65234375 40.93359375 C-42.16052158 41.39718857 -40.04212013 42.05041552 -37.65234375 42.93359375 C-37.65234375 43.59359375 -37.65234375 44.25359375 -37.65234375 44.93359375 C-36.99234375 44.93359375 -36.33234375 44.93359375 -35.65234375 44.93359375 C-35.58917969 45.76503906 -35.52601563 46.59648437 -35.4609375 47.453125 C-35.08992488 50.74537379 -34.62637115 53.76475795 -33.65234375 56.93359375 C-30.57931981 59.21536468 -30.57931981 59.21536468 -26.65234375 59.93359375 C-19.5797691 62.29111863 -13.83928569 65.78242866 -7.65234375 69.93359375 C-3.38948212 61.97625203 -3.45384905 52.37035937 -5.77734375 43.74609375 C-10.45950596 30.30937707 -19.00099154 21.67104337 -31.5546875 15.34375 C-50.12897896 6.88811417 -66.81297463 14.64880339 -82.65234375 24.93359375 Z " fill="#FC3F04" transform="translate(330.65234375,145.06640625)"/>
<path d="M0 0 C0.33 0 0.66 0 1 0 C1.43372423 15.21247588 0.93692291 29.31944598 -7.0625 42.7890625 C-8.2022008 44.71939215 -8.2022008 44.71939215 -9 48 C-8.29050557 50.24826805 -7.26791782 52.20955486 -6.1953125 54.30859375 C-0.67486047 66.73863117 -0.89424815 81.82206907 -3 95 C-3.33 95 -3.66 95 -4 95 C-4.01981934 94.13197754 -4.03963867 93.26395508 -4.06005859 92.36962891 C-4.13809872 89.15273733 -4.22478881 85.93622955 -4.31738281 82.71972656 C-4.35569327 81.32691428 -4.39054259 79.93400235 -4.421875 78.54101562 C-4.46747907 76.54013692 -4.52651623 74.53957854 -4.5859375 72.5390625 C-4.6173584 71.33459473 -4.6487793 70.13012695 -4.68115234 68.88916016 C-4.70915226 65.8739982 -4.70915226 65.8739982 -7 64 C-7.26991906 61.31160615 -7.08737357 58.70858064 -7 56 C-8.65 55.34 -10.3 54.68 -12 54 C-11.67 50.7 -11.34 47.4 -11 44 C-10.34 44 -9.68 44 -9 44 C-9 42.68 -9 41.36 -9 40 C-8.34 40 -7.68 40 -7 40 C-7 38.35 -7 36.7 -7 35 C-6.34 35 -5.68 35 -5 35 C-4.8453125 33.3603125 -4.8453125 33.3603125 -4.6875 31.6875 C-4.28064262 28.30881477 -3.50712512 25.2473644 -2.5 22 C-0.41466991 14.78780959 -0.2713709 7.458021 0 0 Z " fill="#E6734F" transform="translate(356,192)"/>
<path d="M0 0 C0.33 0.66 0.66 1.32 1 2 C-0.1875 4.5625 -0.1875 4.5625 -2 7 C-3.75 7.625 -3.75 7.625 -6 8 C-10.82867733 9.5077779 -10.82867733 9.5077779 -14 13 C-14.66 13 -15.32 13 -16 13 C-16.66 16.96 -17.32 20.92 -18 25 C-17.01 25.33 -16.02 25.66 -15 26 C-14.67 26.66 -14.34 27.32 -14 28 C-11.97536745 28.65213292 -11.97536745 28.65213292 -10 29 C-10 29.99 -10 30.98 -10 32 C-2.44961578 31.34650367 -2.44961578 31.34650367 5 30 C5 29.34 5 28.68 5 28 C5.99 28 6.98 28 8 28 C8.33 27.01 8.66 26.02 9 25 C10.65 24.67 12.3 24.34 14 24 C14 23.01 14 22.02 14 21 C18.0188515 19.18757677 21.61110675 17.66498383 26 17 C23.76328859 19.40695395 21.44123202 21.11234834 18.65625 22.84765625 C17.82222656 23.37037109 16.98820312 23.89308594 16.12890625 24.43164062 C15.26136719 24.96982422 14.39382812 25.50800781 13.5 26.0625 C11.78110653 27.13648916 10.06235076 28.21069875 8.34375 29.28515625 C7.20196289 29.99490601 7.20196289 29.99490601 6.03710938 30.71899414 C4.34080792 31.78568802 2.66727484 32.88848344 1 34 C-4.27741041 34.71249183 -8.70887994 34.64556003 -13.5 32.25 C-18.77106354 27.50604282 -18.77106354 27.50604282 -19.3984375 23.37890625 C-19.39070312 22.44949219 -19.38296875 21.52007812 -19.375 20.5625 C-19.38273438 19.63566406 -19.39046875 18.70882812 -19.3984375 17.75390625 C-18.80885891 13.67887776 -17.58162994 11.20325063 -14.25390625 8.67163086 C-12.1396569 7.27986772 -9.992947 5.97291636 -7.8125 4.6875 C-7.06291016 4.23310547 -6.31332031 3.77871094 -5.54101562 3.31054688 C-3.70022626 2.19669344 -1.85092716 1.09692461 0 0 Z " fill="#E66B45" transform="translate(231,215)"/>
<path d="M0 0 C21.26326389 -0.48022428 38.53443344 3.64761934 56 16 C55.01 16.495 55.01 16.495 54 17 C51.64018187 16.06421005 49.30368736 15.06652192 47 14 C47 13.34 47 12.68 47 12 C44.525 11.505 44.525 11.505 42 11 C42 10.34 42 9.68 42 9 C41.401875 8.855625 40.80375 8.71125 40.1875 8.5625 C38.43849596 8.1127561 36.71322977 7.57107659 35 7 C33.19075124 6.80112075 31.37741502 6.63790399 29.5625 6.5 C26.25650749 6.24811486 23.19322368 5.89744195 20 5 C19.2575 4.814375 18.515 4.62875 17.75 4.4375 C17.1725 4.293125 16.595 4.14875 16 4 C16.33 3.34 16.66 2.68 17 2 C16.1646875 2.01740234 16.1646875 2.01740234 15.3125 2.03515625 C10.10221657 2.09676433 5.1562049 1.74999344 0 1 C0 0.67 0 0.34 0 0 Z " fill="#EF6B41" transform="translate(272,127)"/>
<path d="M0 0 C0.33 0 0.66 0 1 0 C1.02749766 1.37488287 1.0466164 2.74993391 1.0625 4.125 C1.07410156 4.89070313 1.08570313 5.65640625 1.09765625 6.4453125 C1 9 1 9 0.515625 11.84765625 C-1.20559512 22.37057018 -0.16701471 32.23477263 2.66479492 42.4152832 C4.37205743 48.6518347 4.37205743 48.6518347 3 52 C2.36963774 50.33535403 1.74602407 48.66815224 1.125 47 C0.77695313 46.071875 0.42890625 45.14375 0.0703125 44.1875 C-2.39809096 36.83634225 -3.35742948 30.47436014 -3.3125 22.75 C-3.31121094 21.83065674 -3.30992187 20.91131348 -3.30859375 19.96411133 C-3.2094869 12.92938355 -2.32299268 6.67860396 0 0 Z " fill="#E56C43" transform="translate(152,280)"/>
<path d="M0 0 C0.33 0 0.66 0 1 0 C0.9278125 0.7528125 0.855625 1.505625 0.78125 2.28125 C-0.31782651 14.85957006 -1.47188058 28.42112035 2.0625 40.6875 C2.90832146 43.67606916 3.18626236 45.92667107 3 49 C0.61619611 46.61619611 0.28978839 45.04762611 -0.5625 41.8125 C-0.93568359 40.42998047 -0.93568359 40.42998047 -1.31640625 39.01953125 C-4.31568231 25.77130041 -3.73443799 12.98161778 0 0 Z " fill="#E76B3D" transform="translate(155,211)"/>
<path d="M0 0 C1.32 0 2.64 0 4 0 C4 0.66 4 1.32 4 2 C5.32 2.33 6.64 2.66 8 3 C8.33 5.31 8.66 7.62 9 10 C9.66 10 10.32 10 11 10 C15.10057748 19.70643024 15.81452637 29.61037322 14 40 C13.01 40.495 13.01 40.495 12 41 C12.04640625 39.92363281 12.0928125 38.84726562 12.140625 37.73828125 C12.51238143 25.39795428 11.60226616 14.23331261 3.171875 4.48828125 C2 3 2 3 2 1 C1.34 0.67 0.68 0.34 0 0 Z " fill="#E66A3F" transform="translate(310,240)"/>
<path d="M0 0 C1.32 0.33 2.64 0.66 4 1 C-2.50040586 5.92648869 -9.09023082 10.30125542 -16.18359375 14.32421875 C-20.01529559 16.60410792 -23.52682949 19.21124839 -27 22 C-27.33 20.68 -27.66 19.36 -28 18 C-27.4225 17.7525 -26.845 17.505 -26.25 17.25 C-23.87006403 16.08424178 -23.87006403 16.08424178 -22.0625 13.875 C-20 12 -20 12 -17.25 11.75 C-16.5075 11.8325 -15.765 11.915 -15 12 C-15 11.01 -15 10.02 -15 9 C-12.02588876 7.76078698 -9.14737182 6.69941596 -6 6 C-5.67 4.68 -5.34 3.36 -5 2 C-3.35 2 -1.7 2 0 2 C0 1.34 0 0.68 0 0 Z " fill="#E65D32" transform="translate(220,185)"/>
<path d="M0 0 C1.82675041 2.74012562 2.64237877 4.64760172 3.5625 7.75 C3.81128906 8.56984375 4.06007813 9.3896875 4.31640625 10.234375 C5.77644036 16.14125585 6.15984763 21.936512 6.125 28 C6.12886719 28.67289062 6.13273437 29.34578125 6.13671875 30.0390625 C6.12816695 34.46889635 5.7147525 38.64341336 5 43 C4.67 43 4.34 43 4 43 C3.98018066 42.13197754 3.96036133 41.26395508 3.93994141 40.36962891 C3.86190128 37.15273733 3.77521119 33.93622955 3.68261719 30.71972656 C3.64430673 29.32691428 3.60945741 27.93400235 3.578125 26.54101562 C3.53252093 24.54013692 3.47348377 22.53957854 3.4140625 20.5390625 C3.3826416 19.33459473 3.3512207 18.13012695 3.31884766 16.88916016 C3.29084774 13.8739982 3.29084774 13.8739982 1 12 C0.5859375 9.1796875 0.5859375 9.1796875 0.375 5.875 C0.30023438 4.77929688 0.22546875 3.68359375 0.1484375 2.5546875 C0.09945313 1.71164063 0.05046875 0.86859375 0 0 Z " fill="#E97B55" transform="translate(348,244)"/>
<path d="M0 0 C2.64 0 5.28 0 8 0 C3.66915009 3.63065262 -0.94986115 6.68801459 -5.6875 9.75 C-6.45900391 10.25660156 -7.23050781 10.76320313 -8.02539062 11.28515625 C-8.76337891 11.76339844 -9.50136719 12.24164063 -10.26171875 12.734375 C-11.26658325 13.38744629 -11.26658325 13.38744629 -12.29174805 14.05371094 C-14 15 -14 15 -16 15 C-16.33 13.68 -16.66 12.36 -17 11 C-13.25 9.875 -13.25 9.875 -11 11 C-11 10.34 -11 9.68 -11 9 C-9.35 8.67 -7.7 8.34 -6 8 C-6 7.01 -6 6.02 -6 5 C-5.01 5 -4.02 5 -3 5 C-3 4.34 -3 3.68 -3 3 C-2.01 3 -1.02 3 0 3 C0 2.01 0 1.02 0 0 Z " fill="#ED6940" transform="translate(316,328)"/>
<path d="M0 0 C0.66 0.33 1.32 0.66 2 1 C1.67 1.99 1.34 2.98 1 4 C-0.32 4 -1.64 4 -3 4 C-2.67 5.32 -2.34 6.64 -2 8 C-2.99 8.33 -3.98 8.66 -5 9 C-5 8.34 -5 7.68 -5 7 C-6.32 7 -7.64 7 -9 7 C-9.33 7.99 -9.66 8.98 -10 10 C-10.66 10 -11.32 10 -12 10 C-12 10.66 -12 11.32 -12 12 C-13.58960328 13.80636736 -14.83852297 14.91926148 -17 16 C-17.99 15.34 -18.98 14.68 -20 14 C-18.68 13.34 -17.36 12.68 -16 12 C-16 11.34 -16 10.68 -16 10 C-13.55236663 8.02268151 -10.80147163 6.46184705 -8.125 4.8125 C-7.37863281 4.33619141 -6.63226563 3.85988281 -5.86328125 3.36914062 C-4.79013672 2.70108398 -4.79013672 2.70108398 -3.6953125 2.01953125 C-3.03547363 1.60807861 -2.37563477 1.19662598 -1.69580078 0.77270508 C-1.13618652 0.5177124 -0.57657227 0.26271973 0 0 Z " fill="#EB7045" transform="translate(195,167)"/>
<path d="M0 0 C0.66 0 1.32 0 2 0 C2 0.66 2 1.32 2 2 C2.66 2 3.32 2 4 2 C6.39073445 5.82517513 6.55966552 9.59665524 7 14 C7.71027344 14.19335938 8.42054688 14.38671875 9.15234375 14.5859375 C10.07144531 14.84632813 10.99054688 15.10671875 11.9375 15.375 C12.85402344 15.63023437 13.77054687 15.88546875 14.71484375 16.1484375 C17 17 17 17 18 19 C11.375 19.125 11.375 19.125 8 18 C8 17.34 8 16.68 8 16 C7.01 16 6.02 16 5 16 C3.39274365 12.78548731 3.94251815 9.56387464 4 6 C3.01 5.67 2.02 5.34 1 5 C0.67 3.35 0.34 1.7 0 0 Z " fill="#E5704D" transform="translate(291,188)"/>
<path d="M0 0 C0 0.99 0 1.98 0 3 C-0.53625 2.855625 -1.0725 2.71125 -1.625 2.5625 C-9.75997545 0.63579529 -17.69978825 0.81463547 -26 1 C-22.53737826 -5.92524349 -6.04914134 -1.64044511 0 0 Z " fill="#E85E32" transform="translate(298,157)"/>
<path d="M0 0 C0.33 0.99 0.66 1.98 1 3 C1.99 3.33 2.98 3.66 4 4 C4 4.99 4 5.98 4 7 C0.73389246 5.96440493 -2.36782184 4.83579382 -5.5 3.4375 C-8.74096028 2.10639132 -11.53867501 1.4221128 -15 1 C-15 0.67 -15 0.34 -15 0 C-12.87562788 -0.19448477 -10.75046809 -0.38038289 -8.625 -0.5625 C-7.44164062 -0.66691406 -6.25828125 -0.77132812 -5.0390625 -0.87890625 C-2 -1 -2 -1 0 0 Z " fill="#F0663E" transform="translate(300,227)"/>
<path d="M0 0 C2.64 0 5.28 0 8 0 C4.29410944 3.08708331 0.42089735 5.73750332 -3.6875 8.25 C-4.55858398 8.79527344 -4.55858398 8.79527344 -5.44726562 9.3515625 C-9.7534657 12 -9.7534657 12 -12 12 C-11.67 11.01 -11.34 10.02 -11 9 C-9.68 9 -8.36 9 -7 9 C-7.33 7.68 -7.66 6.36 -8 5 C-5.36 4.67 -2.72 4.34 0 4 C0 2.68 0 1.36 0 0 Z " fill="#EB6B43" transform="translate(236,173)"/>
<path d="M0 0 C2.45827834 1.08370667 3.94448574 2.22225793 6 4 C5.34 4.66 4.68 5.32 4 6 C4 5.34 4 4.68 4 4 C0.53777385 2.93276039 -2.64039266 2.89826514 -6.25 2.9375 C-7.86648438 2.95103516 -7.86648438 2.95103516 -9.515625 2.96484375 C-10.74539063 2.98224609 -10.74539063 2.98224609 -12 3 C-12 3.66 -12 4.32 -12 5 C-14.31 5.33 -16.62 5.66 -19 6 C-13.50579842 -0.07253859 -7.9669085 -1.10651507 0 0 Z " fill="#E57853" transform="translate(285,255)"/>
<path d="M0 0 C0.66 0.33 1.32 0.66 2 1 C1.01 2.485 1.01 2.485 0 4 C-0.99 4 -1.98 4 -3 4 C-3 4.66 -3 5.32 -3 6 C-4.8984375 7.4375 -4.8984375 7.4375 -7.375 9 C-9.84952162 10.57112484 -11.92383041 11.92383041 -14 14 C-15.32 13.34 -16.64 12.68 -18 12 C-12 8 -6 4 0 0 Z " fill="#E96941" transform="translate(237,140)"/>
<path d="M0 0 C1.13328759 3.39986277 0.72891005 4.57362692 0 8 C-0.44590961 15.91230311 0.0575486 23.31691098 2 31 C-1.49005415 27.81342882 -2.10551762 25.05758325 -2.31640625 20.4375 C-2.35830078 19.55835938 -2.40019531 18.67921875 -2.44335938 17.7734375 C-2.50233398 16.40058594 -2.50233398 16.40058594 -2.5625 15 C-2.60568359 14.08476562 -2.64886719 13.16953125 -2.69335938 12.2265625 C-2.85099764 8.81356899 -3 5.41707342 -3 2 C-2.01 1.34 -1.02 0.68 0 0 Z " fill="#E87A48" transform="translate(181,289)"/>
<path d="M0 0 C9.30240285 1.86476739 16.32052365 6.7217432 24 12 C23.01 12.495 23.01 12.495 22 13 C19.64018187 12.06421005 17.30368736 11.06652192 15 10 C15 9.34 15 8.68 15 8 C13.35 7.67 11.7 7.34 10 7 C10 6.34 10 5.68 10 5 C9.484375 4.87625 8.96875 4.7525 8.4375 4.625 C5.27297649 3.81358372 2.13875015 2.9054087 -1 2 C-0.67 1.34 -0.34 0.68 0 0 Z " fill="#EA8057" transform="translate(304,131)"/>
<path d="M0 0 C0 0.66 0 1.32 0 2 C-0.66 2 -1.32 2 -2 2 C-2.66 3.32 -3.32 4.64 -4 6 C-5.32 6 -6.64 6 -8 6 C-8 6.66 -8 7.32 -8 8 C-8.969375 8.28875 -9.93875 8.5775 -10.9375 8.875 C-14.10664203 9.64214682 -14.10664203 9.64214682 -15 12 C-18.0625 12.625 -18.0625 12.625 -21 13 C-19.72014311 10.44028621 -18.52137237 10.06321478 -16 8.75 C-11.74582908 6.46976439 -7.79944036 3.90366459 -3.84765625 1.13671875 C-2 0 -2 0 0 0 Z " fill="#E96943" transform="translate(285,317)"/>
<path d="M0 0 C1.32 0.33 2.64 0.66 4 1 C-2.6 5.29 -9.2 9.58 -16 14 C-16.33 13.01 -16.66 12.02 -17 11 C-16.01 11 -15.02 11 -14 11 C-13.67 10.01 -13.34 9.02 -13 8 C-11.35 7.67 -9.7 7.34 -8 7 C-8 6.01 -8 5.02 -8 4 C-6.865625 3.525625 -5.73125 3.05125 -4.5625 2.5625 C-1.24259834 1.36377917 -1.24259834 1.36377917 0 0 Z " fill="#E86B46" transform="translate(253,232)"/>
<path d="M0 0 C1.81486676 5.44460028 -1.79534116 10.92684859 -4 16 C-5.23616337 18.42902165 -6.54944868 20.68986271 -8 23 C-8.33 23 -8.66 23 -9 23 C-8.67 20.69 -8.34 18.38 -8 16 C-7.34 16 -6.68 16 -6 16 C-5.87882812 15.28972656 -5.75765625 14.57945312 -5.6328125 13.84765625 C-5.46523438 12.92855469 -5.29765625 12.00945312 -5.125 11.0625 C-4.96257812 10.14597656 -4.80015625 9.22945313 -4.6328125 8.28515625 C-4.42398437 7.53105469 -4.21515625 6.77695312 -4 6 C-3.34 5.67 -2.68 5.34 -2 5 C-1.27840576 3.35636866 -0.60648579 1.68949614 0 0 Z " fill="#E87046" transform="translate(351,287)"/>
<path d="M0 0 C-8.261959 4.59225513 -8.261959 4.59225513 -13 4 C-13 4.66 -13 5.32 -13 6 C-15 8 -15 8 -18 10 C-19.32 9.34 -20.64 8.68 -22 8 C-4.9234139 -1.54188988 -4.9234139 -1.54188988 0 0 Z " fill="#E57850" transform="translate(261,131)"/>
<path d="M0 0 C4.77609498 1.64178265 8.79382904 4.26546702 13 7 C13.66 4.69 14.32 2.38 15 0 C15.33 0 15.66 0 16 0 C16.09765625 6.15234375 16.09765625 6.15234375 16 8 C15 9 15 9 12.4375 9.0625 C11.633125 9.041875 10.82875 9.02125 10 9 C10 8.34 10 7.68 10 7 C8.68 6.67 7.36 6.34 6 6 C6 5.34 6 4.68 6 4 C4.35 3.67 2.7 3.34 1 3 C0.67 2.01 0.34 1.02 0 0 Z " fill="#E97952" transform="translate(310,207)"/>
<path d="M0 0 C0.33 0.66 0.66 1.32 1 2 C0 3 -1 4 -2 5 C-2.53625 5.70125 -3.0725 6.4025 -3.625 7.125 C-7.11622454 9.8812299 -10.65793269 9.81444157 -15 10 C-11.86350023 7.57294661 -8.60330681 5.42827692 -5.25 3.3125 C-4.26515625 2.68988281 -3.2803125 2.06726563 -2.265625 1.42578125 C-1.51796875 0.95527344 -0.7703125 0.48476562 0 0 Z " fill="#E96336" transform="translate(261,196)"/>
<path d="M0 0 C1.670625 0.061875 1.670625 0.061875 3.375 0.125 C-8.54807692 10.125 -8.54807692 10.125 -12.625 10.125 C-12.625 8.805 -12.625 7.485 -12.625 6.125 C-9.16 5.63 -9.16 5.63 -5.625 5.125 C-5.625 4.135 -5.625 3.145 -5.625 2.125 C-3.625 0.125 -3.625 0.125 0 0 Z " fill="#EB774C" transform="translate(242.625,306.875)"/>
<path d="M0 0 C0.66 0.33 1.32 0.66 2 1 C1.01 2.485 1.01 2.485 0 4 C-0.66 4 -1.32 4 -2 4 C-2 4.66 -2 5.32 -2 6 C-6.96993194 8.43425238 -10.34605369 9.34615998 -16 9 C-15.45730469 8.73316406 -14.91460937 8.46632813 -14.35546875 8.19140625 C-11.64699241 6.82144724 -8.97942028 5.38668098 -6.3125 3.9375 C-4.85263672 3.14666016 -4.85263672 3.14666016 -3.36328125 2.33984375 C-1.11512031 1.20391534 -1.11512031 1.20391534 0 0 Z " fill="#EA7551" transform="translate(251,337)"/>
<path d="M0 0 C2.97510702 3.69074087 3.83670876 6.18290834 4 11 C3.30781968 13.68885431 2.38357357 15.52933291 1 18 C0.01 18.33 -0.98 18.66 -2 19 C-1.67257812 18.32582031 -1.34515625 17.65164063 -1.0078125 16.95703125 C0.20960865 13.38498546 0.195381 10.45288353 0.125 6.6875 C0.10695313 5.43324219 0.08890625 4.17898438 0.0703125 2.88671875 C0.04710937 1.93410156 0.02390625 0.98148437 0 0 Z " fill="#E97A5B" transform="translate(291,260)"/>
<path d="M0 0 C0.625 1.875 0.625 1.875 1 4 C-1.46526886 6.46526886 -3.71481573 6.95153693 -7 8 C-7.33 8.33 -7.66 8.66 -8 9 C-9.66617115 9.04063832 -11.33388095 9.042721 -13 9 C-8.91266859 5.55131413 -4.56194093 2.76206846 0 0 Z " fill="#E96A42" transform="translate(245,206)"/>
<path d="M0 0 C1.32 0.33 2.64 0.66 4 1 C2.25579087 2.32018588 0.50439909 3.63088602 -1.25 4.9375 C-2.22453125 5.66839844 -3.1990625 6.39929688 -4.203125 7.15234375 C-6.6267881 8.75345079 -8.1757492 9.57636238 -11 10 C-10.34 8.68 -9.68 7.36 -9 6 C-8.01 6 -7.02 6 -6 6 C-5.67 4.68 -5.34 3.36 -5 2 C-3.35 2 -1.7 2 0 2 C0 1.34 0 0.68 0 0 Z " fill="#EA744A" transform="translate(220,185)"/>
<path d="M0 0 C-4.62 2.97 -9.24 5.94 -14 9 C-14.33 8.01 -14.66 7.02 -15 6 C-13.6100869 3.22017379 -11.81341647 3.12536659 -9 2 C-8.67 1.34 -8.34 0.68 -8 0 C-4.71585695 -0.95067299 -3.30306592 -1.10102197 0 0 Z " fill="#EB6D44" transform="translate(283,355)"/>
<path d="M0 0 C0 3.16880694 -0.2058242 4.43689172 -2 7 C-4.625 7.75 -4.625 7.75 -7 8 C-7 8.66 -7 9.32 -7 10 C-8.98 10.33 -10.96 10.66 -13 11 C-9.88198197 7.62214713 -6.39929659 4.97536578 -2.70703125 2.26953125 C-1.06158035 1.11005343 -1.06158035 1.11005343 0 0 Z " fill="#E96A3E" transform="translate(312,297)"/>
<path d="M0 0 C0.66 0.33 1.32 0.66 2 1 C1.34 2.32 0.68 3.64 0 5 C-0.66 5 -1.32 5 -2 5 C-2.66 6.32 -3.32 7.64 -4 9 C-4.66 9 -5.32 9 -6 9 C-6.268125 9.969375 -6.53625 10.93875 -6.8125 11.9375 C-7.204375 12.948125 -7.59625 13.95875 -8 15 C-8.99 15.33 -9.98 15.66 -11 16 C-9.65686815 12.21908383 -7.97035316 9.34348084 -5.5 6.1875 C-4.8915625 5.39730469 -4.283125 4.60710937 -3.65625 3.79296875 C-2.83640625 2.90544922 -2.83640625 2.90544922 -2 2 C-1.34 2 -0.68 2 0 2 C0 1.34 0 0.68 0 0 Z " fill="#E46843" transform="translate(173,182)"/>
<path d="M0 0 C1.3921875 0.4640625 1.3921875 0.4640625 2.8125 0.9375 C7.77871546 2.3783156 12.86205306 2.64694036 18 3 C14.28838251 5.47441166 11.30426299 5.67548653 7 5 C4.42581741 3.88710151 2.34969419 2.56646279 0 1 C0 0.67 0 0.34 0 0 Z " fill="#E77855" transform="translate(212,314)"/>
<path d="M0 0 C0.33 0.66 0.66 1.32 1 2 C0.0625 4.5625 0.0625 4.5625 -2 7 C-4.72931984 7.75217476 -7.14237969 7.8594613 -10 8 C-6.88983545 4.71211176 -3.98381075 2.16264012 0 0 Z " fill="#EA5E30" transform="translate(231,215)"/>
<path d="M0 0 C5.61 0.33 11.22 0.66 17 1 C17 1.33 17 1.66 17 2 C7.595 2.99 7.595 2.99 -2 4 C-2 3.34 -2 2.68 -2 2 C-1.34 2 -0.68 2 0 2 C0 1.34 0 0.68 0 0 Z " fill="#EE7856" transform="translate(267,225)"/>
<path d="M0 0 C0.66 0 1.32 0 2 0 C0.79618552 2.49361571 -0.45428722 4.68143083 -2 7 C-2.66 7 -3.32 7 -4 7 C-4 7.66 -4 8.32 -4 9 C-4.66 9 -5.32 9 -6 9 C-6 9.66 -6 10.32 -6 11 C-6.66 11 -7.32 11 -8 11 C-7.67 9.68 -7.34 8.36 -7 7 C-5.68 6.67 -4.36 6.34 -3 6 C-3 4.35 -3 2.7 -3 1 C-2.01 1.33 -1.02 1.66 0 2 C0 1.34 0 0.68 0 0 Z " fill="#E97F5E" transform="translate(340,310)"/>
<path d="M0 0 C0.8971875 0.309375 0.8971875 0.309375 1.8125 0.625 C0.8225 0.955 -0.1675 1.285 -1.1875 1.625 C-1.1875 2.285 -1.1875 2.945 -1.1875 3.625 C-2.77710328 5.43136736 -4.02602297 6.54426148 -6.1875 7.625 C-7.1775 6.965 -8.1675 6.305 -9.1875 5.625 C-7.8675 4.965 -6.5475 4.305 -5.1875 3.625 C-5.1875 2.965 -5.1875 2.305 -5.1875 1.625 C-2.1875 -0.375 -2.1875 -0.375 0 0 Z " fill="#EE6340" transform="translate(184.1875,175.375)"/>
<path d="M0 0 C1.33897583 0.95043374 2.67105427 1.91059147 4 2.875 C5.11375 3.67550781 5.11375 3.67550781 6.25 4.4921875 C6.8275 4.98976562 7.405 5.48734375 8 6 C8 6.66 8 7.32 8 8 C8.66 8 9.32 8 10 8 C10 8.66 10 9.32 10 10 C9.01 9.67 8.02 9.34 7 9 C7 8.34 7 7.68 7 7 C4.03 6.505 4.03 6.505 1 6 C0.67 4.02 0.34 2.04 0 0 Z " fill="#E87249" transform="translate(328,144)"/>
<path d="M0 0 C0.51949219 0.26554687 1.03898438 0.53109375 1.57421875 0.8046875 C5.33020694 2.70698097 9.05225879 4.51959705 13 6 C13 6.33 13 6.66 13 7 C10.69 7.33 8.38 7.66 6 8 C6 6.68 6 5.36 6 4 C4.68 4 3.36 4 2 4 C2 3.34 2 2.68 2 2 C1.34 2 0.68 2 0 2 C0 1.34 0 0.68 0 0 Z " fill="#E86F46" transform="translate(201,269)"/>
<path d="M0 0 C0.99 0.33 1.98 0.66 3 1 C3.33 2.98 3.66 4.96 4 7 C4.99 7 5.98 7 7 7 C7.33 8.98 7.66 10.96 8 13 C4.3260401 9.62392874 1.94593446 6.60879214 0 2 C0 1.34 0 0.68 0 0 Z " fill="#E96A47" transform="translate(156,332)"/>
<path d="M0 0 C4.42857143 5.14285714 4.42857143 5.14285714 5 9 C4.38125 8.814375 3.7625 8.62875 3.125 8.4375 C0.95839822 7.76313824 0.95839822 7.76313824 -1 9 C-0.67 6.03 -0.34 3.06 0 0 Z " fill="#F0623A" transform="translate(346,165)"/>
<path d="M0 0 C3.59930552 2.62652025 6.07666989 4.93963643 8 9 C7.67 9.66 7.34 10.32 7 11 C6.34 10.67 5.68 10.34 5 10 C5 9.01 5 8.02 5 7 C3.68 6.67 2.36 6.34 1 6 C0.67 4.02 0.34 2.04 0 0 Z " fill="#EA734D" transform="translate(338,154)"/>
<path d="M0 0 C-1.44626119 3.81287042 -3.30194812 5.32707177 -7 7 C-9.1640625 6.57421875 -9.1640625 6.57421875 -11 6 C-9.54550599 4.9944239 -8.08627557 3.99569565 -6.625 3 C-5.40683594 2.1646875 -5.40683594 2.1646875 -4.1640625 1.3125 C-2 0 -2 0 0 0 Z " fill="#E86C45" transform="translate(219,153)"/>
<path d="M0 0 C0.33 0.66 0.66 1.32 1 2 C0.67 2.66 0.34 3.32 0 4 C-0.66 4 -1.32 4 -2 4 C-2 4.66 -2 5.32 -2 6 C-4.31 6.33 -6.62 6.66 -9 7 C-6.24479785 4.04070881 -3.53372712 1.96318174 0 0 Z " fill="#EB6537" transform="translate(294,310)"/>
<path d="M0 0 C1.32 0 2.64 0 4 0 C4 0.66 4 1.32 4 2 C9.28 2 14.56 2 20 2 C20 2.33 20 2.66 20 3 C13.73 3 7.46 3 1 3 C0.67 2.01 0.34 1.02 0 0 Z " fill="#E55120" transform="translate(215,276)"/>
<path d="M0 0 C0.99 0.33 1.98 0.66 3 1 C3.49230769 7.4 3.49230769 7.4 1 10.4375 C0.01 11.2109375 0.01 11.2109375 -1 12 C-1 9 -1 9 0.0625 6.5625 C1.07746423 3.78826445 1.00487696 2.7131678 0 0 Z " fill="#E97545" transform="translate(158,260)"/>
<path d="M0 0 C0.66 0.33 1.32 0.66 2 1 C0.875 2.9375 0.875 2.9375 -1 5 C-4.1875 5.75 -4.1875 5.75 -7 6 C-7 6.66 -7 7.32 -7 8 C-8.32 7.67 -9.64 7.34 -11 7 C-9.21475351 5.80286983 -7.4215972 4.61752721 -5.625 3.4375 C-4.62726563 2.77621094 -3.62953125 2.11492187 -2.6015625 1.43359375 C-1.74304688 0.96050781 -0.88453125 0.48742187 0 0 Z " fill="#E87C50" transform="translate(261,263)"/>
<path d="M0 0 C2.56616632 3.84924948 2.55097676 6.4349304 3 11 C2.01 11.66 1.02 12.32 0 13 C0 8.71 0 4.42 0 0 Z " fill="#EF7043" transform="translate(353,180)"/>
<path d="M0 0 C3.37462715 0.54723683 5.08235 1.0549 8 3 C8 3.66 8 4.32 8 5 C9.32 5.33 10.64 5.66 12 6 C11.01 6.33 10.02 6.66 9 7 C6.73828125 5.8203125 6.73828125 5.8203125 4.3125 4.125 C3.50425781 3.57070313 2.69601563 3.01640625 1.86328125 2.4453125 C1.24839844 1.96835937 0.63351563 1.49140625 0 1 C0 0.67 0 0.34 0 0 Z " fill="#EA754F" transform="translate(178,360)"/>
<path d="M0 0 C-2.88087546 2.40072955 -5.56404834 4.47291037 -9 6 C-9 3 -9 3 -8 1 C-5.07175348 0.02391783 -3.04386724 -0.08226668 0 0 Z " fill="#E96234" transform="translate(292,348)"/>
<path d="M0 0 C8.19256018 0.35010941 8.19256018 0.35010941 11.5625 3.0625 C12.036875 3.701875 12.51125 4.34125 13 5 C8.15340923 4.40895235 4.39251833 3.02055843 0 1 C0 0.67 0 0.34 0 0 Z " fill="#E87A4C" transform="translate(194,296)"/>
<path d="M0 0 C0.33 0 0.66 0 1 0 C1.10251672 5.12583611 1.03590199 9.94997778 0 15 C-2.20186088 11.69720869 -2.20044366 11.20802649 -1.6875 7.5 C-1.58824219 6.7265625 -1.48898438 5.953125 -1.38671875 5.15625 C-1 3 -1 3 0 0 Z " fill="#EB6835" transform="translate(152,280)"/>
<path d="M0 0 C0 0.99 0 1.98 0 3 C-5.61 2.67 -11.22 2.34 -17 2 C-17 1.67 -17 1.34 -17 1 C-14.9168207 0.83141902 -12.83344956 0.66520745 -10.75 0.5 C-9.58984375 0.4071875 -8.4296875 0.314375 -7.234375 0.21875 C-4.82731342 0.05595356 -2.41256049 0 0 0 Z " fill="#DB5831" transform="translate(235,346)"/>
<path d="M0 0 C0.99 0.33 1.98 0.66 3 1 C0.36 2.98 -2.28 4.96 -5 7 C-5.33 5.68 -5.66 4.36 -6 3 C-4 2 -2 1 0 0 Z " fill="#EA683B" transform="translate(198,200)"/>
<path d="M0 0 C1.32 0.33 2.64 0.66 4 1 C1.03 2.65 -1.94 4.3 -5 6 C-5 4.68 -5 3.36 -5 2 C-3.35 2 -1.7 2 0 2 C0 1.34 0 0.68 0 0 Z " fill="#EA7043" transform="translate(279,283)"/>
<path d="M0 0 C0.66 0 1.32 0 2 0 C3.35439668 2.70879335 3.06501451 5.00933268 3 8 C1.68 7.34 0.36 6.68 -1 6 C-0.67 4.02 -0.34 2.04 0 0 Z " fill="#ED5A2C" transform="translate(345,240)"/>
<path d="M0 0 C-4.95 2.97 -4.95 2.97 -10 6 C-10 5.01 -10 4.02 -10 3 C-9.01 3 -8.02 3 -7 3 C-6.67 2.01 -6.34 1.02 -6 0 C-3 -1 -3 -1 0 0 Z " fill="#EB795A" transform="translate(246,240)"/>
<path d="M0 0 C1.09658936 3.28976808 0.79953138 4.71303767 0 8 C-0.66 8 -1.32 8 -2 8 C-2.66 6.35 -3.32 4.7 -4 3 C-2.68 2.01 -1.36 1.02 0 0 Z " fill="#E85D2F" transform="translate(181,289)"/>
<path d="M0 0 C1.4800841 0.11362262 2.95910074 0.24122908 4.4375 0.375 C5.26121094 0.44460937 6.08492188 0.51421875 6.93359375 0.5859375 C7.95646484 0.79089844 7.95646484 0.79089844 9 1 C9.33 1.66 9.66 2.32 10 3 C3.375 3.125 3.375 3.125 0 2 C0 1.34 0 0.68 0 0 Z " fill="#EC6439" transform="translate(299,204)"/>
<path d="M0 0 C-2.97 1.65 -5.94 3.3 -9 5 C-9 3.68 -9 2.36 -9 1 C-5.19495213 -0.79682816 -4.29399165 -1.07349791 0 0 Z " fill="#E86A41" transform="translate(258,165)"/>
<path d="M0 0 C0 0.99 0 1.98 0 3 C-0.639375 3.12375 -1.27875 3.2475 -1.9375 3.375 C-2.618125 3.58125 -3.29875 3.7875 -4 4 C-4.33 4.66 -4.66 5.32 -5 6 C-6.32 5.67 -7.64 5.34 -9 5 C-7.87926138 4.16094435 -6.75325453 3.32892169 -5.625 2.5 C-4.99851562 2.0359375 -4.37203125 1.571875 -3.7265625 1.09375 C-2 0 -2 0 0 0 Z " fill="#E56D48" transform="translate(264,330)"/>
<path d="M0 0 C2.64 0 5.28 0 8 0 C5.31158141 2.25245881 3.35358125 3.88213958 0 5 C0 3.35 0 1.7 0 0 Z " fill="#EA7851" transform="translate(316,328)"/>
<path d="M0 0 C0.99 0 1.98 0 3 0 C3.144375 1.11375 3.28875 2.2275 3.4375 3.375 C3.78372035 6.82142047 3.78372035 6.82142047 5 9 C4.34 9.66 3.68 10.32 3 11 C2.86722656 10.37351562 2.73445312 9.74703125 2.59765625 9.1015625 C2.42105469 8.28429687 2.24445313 7.46703125 2.0625 6.625 C1.80146484 5.40683594 1.80146484 5.40683594 1.53515625 4.1640625 C1.07669307 1.970537 1.07669307 1.970537 0 0 Z " fill="#E38464" transform="translate(207,301)"/>
<path d="M0 0 C2.31 0.33 4.62 0.66 7 1 C7 1.99 7 2.98 7 4 C7.66 4 8.32 4 9 4 C8.67 4.66 8.34 5.32 8 6 C7.01 5.67 6.02 5.34 5 5 C5 4.34 5 3.68 5 3 C2.525 2.01 2.525 2.01 0 1 C0 0.67 0 0.34 0 0 Z " fill="#E96D45" transform="translate(185,290)"/>
<path d="M0 0 C0 3.20395416 -0.74335022 5.09399739 -2 8 C-4 5 -4 5 -4 1 C-2.68 0.67 -1.36 0.34 0 0 Z " fill="#F44109" transform="translate(327,258)"/>
<path d="M0 0 C3.99500618 1.3697164 6.80009492 3.25722422 10 6 C8.68 6 7.36 6 6 6 C6 5.34 6 4.68 6 4 C4.35 3.67 2.7 3.34 1 3 C0.67 2.01 0.34 1.02 0 0 Z " fill="#EB7D5F" transform="translate(310,207)"/>
<path d="M0 0 C0.66 0.33 1.32 0.66 2 1 C0.875 2.9375 0.875 2.9375 -1 5 C-4.1875 5.75 -4.1875 5.75 -7 6 C-4.74259377 3.66475218 -2.7194239 1.81294927 0 0 Z " fill="#EA653C" transform="translate(206,160)"/>
<path d="M0 0 C0.99 0.33 1.98 0.66 3 1 C3 1.66 3 2.32 3 3 C3.99 3.33 4.98 3.66 6 4 C5.34 4.66 4.68 5.32 4 6 C3.01 5.67 2.02 5.34 1 5 C0.67 3.35 0.34 1.7 0 0 Z " fill="#E76439" transform="translate(195,264)"/>
<path d="M0 0 C2.97 0.495 2.97 0.495 6 1 C6 2.65 6 4.3 6 6 C3.97945196 4.35830472 1.97956942 2.69088222 0 1 C0 0.67 0 0.34 0 0 Z " fill="#E9764F" transform="translate(310,167)"/>
<path d="M0 0 C0.598125 0.20625 1.19625 0.4125 1.8125 0.625 C1.8125 1.285 1.8125 1.945 1.8125 2.625 C-1.1875 3.625 -1.1875 3.625 -3.375 2.6875 C-3.973125 2.336875 -4.57125 1.98625 -5.1875 1.625 C-2.1875 -0.375 -2.1875 -0.375 0 0 Z " fill="#ED5F34" transform="translate(244.1875,137.375)"/>
</svg>
